<svg width="60" height="60" viewBox="0 0 60 60" fill="none" xmlns="http://www.w3.org/2000/svg">
<rect width="59.9568" height="60" rx="9" fill="#1E1E1E"/>
<mask id="path-2-inside-1_237_627" fill="white">
<path d="M26.8509 49.843C26.8509 49.903 27.3891 49.965 28.0872 49.9855C29.8915 50.0381 33.164 49.9389 33.2066 49.8302C33.2268 49.7787 33.5358 49.7366 33.8934 49.7366C34.2536 49.7366 34.5437 49.6876 34.5437 49.6266C34.5437 49.5661 34.7415 49.5167 34.9832 49.5167C35.225 49.5167 35.4228 49.4672 35.4228 49.4067C35.4228 49.3462 35.6206 49.2967 35.8624 49.2967C36.1042 49.2967 36.302 49.2472 36.302 49.1867C36.302 49.1262 36.4474 49.0767 36.6252 49.0767C36.803 49.0767 36.979 49.0272 37.0163 48.9668C37.0537 48.9063 37.2021 48.8568 37.346 48.8568C37.49 48.8568 37.6383 48.8073 37.6757 48.7468C37.7131 48.6863 37.8124 48.6368 37.8965 48.6368C38.0942 48.6368 40.7844 47.3171 41.2214 47.0056C41.4055 46.8745 41.6102 46.7672 41.6764 46.7672C41.7427 46.7672 41.7968 46.7177 41.7968 46.6572C41.7968 46.5967 41.8637 46.5472 41.9454 46.5472C42.0271 46.5472 42.2492 46.3987 42.439 46.2173C42.6286 46.0358 42.8387 45.8873 42.9057 45.8873C42.9726 45.8873 43.166 45.7389 43.3354 45.5574C43.5047 45.3759 43.6758 45.2275 43.7156 45.2275C43.8738 45.2275 45.863 43.2983 45.863 43.145C45.863 43.0806 45.9125 43.0279 45.9729 43.0279C46.0334 43.0279 46.0828 42.9736 46.0828 42.907C46.0828 42.8406 46.2229 42.6549 46.3943 42.4946C46.5655 42.3342 46.77 42.0824 46.8487 41.935C46.9274 41.7877 47.0366 41.6144 47.0914 41.5501C47.536 41.029 48.6104 39.0815 48.6104 38.7969C48.6104 38.7044 48.6599 38.6287 48.7203 38.6287C48.7808 38.6287 48.8302 38.5297 48.8302 38.4088C48.8302 38.2878 48.8797 38.1888 48.9401 38.1888C49.0006 38.1888 49.05 38.0403 49.05 37.8589C49.05 37.6774 49.0995 37.5289 49.1599 37.5289C49.2203 37.5289 49.2698 37.3805 49.2698 37.199C49.2698 37.0175 49.3193 36.8691 49.3797 36.8691C49.4401 36.8691 49.4896 36.6958 49.4896 36.4841C49.4896 36.2724 49.5391 36.0992 49.5995 36.0992C49.6599 36.0992 49.7094 35.8558 49.7094 35.5584C49.7094 35.2611 49.762 35.0002 49.8264 34.9787C49.9953 34.9223 50.0025 30.1298 49.8337 30.0734C49.7653 30.0507 49.7094 29.8135 49.7094 29.5463C49.7094 29.2792 49.6599 29.0605 49.5995 29.0605C49.5391 29.0605 49.4896 28.9121 49.4896 28.7306C49.4896 28.5491 49.4401 28.4007 49.3797 28.4007C49.3193 28.4007 49.2698 28.2522 49.2698 28.0707C49.2698 27.8893 49.2203 27.7408 49.1599 27.7408C49.0995 27.7408 49.05 27.6418 49.05 27.5208C49.05 27.3999 49.0098 27.3009 48.9607 27.3009C48.9114 27.3009 48.8033 27.1277 48.7203 26.9159C48.6373 26.7042 48.5292 26.531 48.48 26.531C48.4309 26.531 48.3906 26.4667 48.3906 26.3881C48.3906 26.2672 48.164 25.9599 47.1328 24.6829C46.8217 24.2977 46.2841 23.7815 46.194 23.7815C46.1383 23.7815 45.9793 23.6696 45.8405 23.5329C45.3178 23.0175 43.6338 22.0219 43.2848 22.0219C43.1918 22.0219 43.1156 21.9724 43.1156 21.9119C43.1156 21.8514 43.0167 21.8019 42.8958 21.8019C42.7749 21.8019 42.676 21.7578 42.676 21.7039C42.676 21.6077 42.3086 21.5215 41.3847 21.4008C41.1279 21.3673 40.9177 21.2954 40.9177 21.2409C40.9177 21.1847 39.5442 21.142 37.7307 21.142C35.6792 21.142 34.5437 21.1029 34.5437 21.0321C34.5437 20.9716 34.3458 20.9221 34.1041 20.9221C33.8623 20.9221 33.6645 20.8726 33.6645 20.8121C33.6645 20.7516 33.5656 20.7021 33.4447 20.7021C33.3238 20.7021 33.2249 20.6526 33.2249 20.5921C33.2249 20.5317 33.1738 20.4822 33.1114 20.4822C32.9636 20.4822 32.2358 19.7539 32.2358 19.606C32.2358 19.5435 32.1864 19.4924 32.1259 19.4924C32.0655 19.4924 32.016 19.3934 32.016 19.2724C32.016 19.1514 31.9666 19.0524 31.9061 19.0524C31.8457 19.0524 31.7962 18.904 31.7962 18.7225C31.7962 18.541 31.7468 18.3926 31.6864 18.3926C31.6252 18.3926 31.5765 18.0993 31.5765 17.7327C31.5765 17.3661 31.6252 17.0728 31.6864 17.0728C31.7468 17.0728 31.7962 16.9243 31.7962 16.7429C31.7962 16.5614 31.8457 16.4129 31.9061 16.4129C31.9666 16.4129 32.016 16.314 32.016 16.193C32.016 16.072 32.0655 15.973 32.1259 15.973C32.1864 15.973 32.2358 15.8988 32.2358 15.8081C32.2358 15.7173 32.2729 15.643 32.3183 15.6429C32.4496 15.6425 32.9728 14.7544 33.1602 14.2134C33.2545 13.9412 33.3323 13.4857 33.3332 13.2012C33.3347 12.7106 33.2906 12.5474 32.9329 11.7185C32.7421 11.2763 31.9794 10.4741 31.7499 10.4741C31.6545 10.4741 31.5765 10.4246 31.5765 10.3641C31.5765 10.3036 31.4816 10.2541 31.3658 10.2541C31.25 10.2541 31.1346 10.1923 31.1094 10.1166C31.0518 9.94386 27.0372 9.97125 26.9792 10.1447C26.9589 10.2048 26.6499 10.2541 26.2923 10.2541C25.9321 10.2541 25.642 10.3032 25.642 10.3641C25.642 10.4246 25.4442 10.4741 25.2025 10.4741C24.9607 10.4741 24.7629 10.5236 24.7629 10.584C24.7629 10.6445 24.6145 10.694 24.4332 10.694C24.2519 10.694 24.1035 10.7435 24.1035 10.804C24.1035 10.8645 23.9545 10.914 23.7723 10.914C23.5902 10.914 23.3552 10.9576 23.2503 11.0111C23.1453 11.0645 22.9358 11.1564 22.7847 11.215C22.1638 11.4563 19.8698 12.604 19.8359 12.6905C19.8157 12.7417 19.7292 12.7836 19.6436 12.7836C19.5578 12.7836 19.4878 12.8331 19.4878 12.8936C19.4878 12.9541 19.423 13.0036 19.3438 13.0036C19.2644 13.0036 19.0934 13.1026 18.9636 13.2235C18.834 13.3445 18.6836 13.4435 18.6295 13.4435C18.5756 13.4435 18.3761 13.592 18.1863 13.7734C17.9966 13.9549 17.7938 14.1034 17.7355 14.1034C17.4531 14.1034 14.1029 17.4543 14.1029 17.7369C14.1029 17.795 14.0534 17.8427 13.993 17.8427C13.9326 17.8427 13.8831 17.906 13.8831 17.9833C13.8831 18.0608 13.7842 18.1954 13.6633 18.2826C13.5424 18.3698 13.4435 18.5065 13.4435 18.5865C13.4435 18.6663 13.3446 18.838 13.2237 18.9678C13.1028 19.0976 13.0039 19.2688 13.0039 19.3482C13.0039 19.4275 12.9545 19.4924 12.894 19.4924C12.8336 19.4924 12.7841 19.5624 12.7841 19.6482C12.7841 19.7339 12.7423 19.8204 12.6911 19.8407C12.6398 19.8608 12.3119 20.4712 11.9624 21.197C11.613 21.9229 11.2839 22.6027 11.2314 22.7077C11.1788 22.8127 11.1357 22.9984 11.1357 23.1201C11.1357 23.242 11.0862 23.3416 11.0258 23.3416C10.9654 23.3416 10.9159 23.5148 10.9159 23.7266C10.9159 23.9383 10.8664 24.1115 10.806 24.1115C10.7456 24.1115 10.6961 24.26 10.6961 24.4414C10.6961 24.6229 10.6467 24.7714 10.5862 24.7714C10.5258 24.7714 10.4763 24.9693 10.4763 25.2113C10.4763 25.4532 10.4269 25.6512 10.3664 25.6512C10.3055 25.6512 10.2565 25.9414 10.2565 26.3019C10.2565 26.6931 10.2063 26.9694 10.1306 26.9946C9.95442 27.0534 9.95749 33.0484 10.1338 33.1071C10.204 33.1305 10.2565 33.4027 10.2565 33.7438C10.2565 34.0714 10.306 34.3395 10.3664 34.3395C10.4269 34.3395 10.4763 34.5375 10.4763 34.7795C10.4763 35.0214 10.5258 35.2194 10.5862 35.2194C10.6467 35.2194 10.6961 35.3678 10.6961 35.5493C10.6961 35.7308 10.7456 35.8792 10.806 35.8792C10.8664 35.8792 10.9159 36.0284 10.9159 36.2107C10.9159 36.393 10.9595 36.6281 11.0129 36.7331C11.0664 36.8382 11.1581 37.0478 11.2167 37.199C11.3858 37.6346 12.5907 40.1076 12.6637 40.1684C12.6999 40.1987 12.7992 40.3587 12.8844 40.524C12.9694 40.6893 13.1301 40.9223 13.2413 41.0418C13.3525 41.1613 13.4435 41.3244 13.4435 41.4043C13.4435 41.4842 13.5424 41.6209 13.6633 41.7081C13.7842 41.7954 13.8831 41.93 13.8831 42.0074C13.8831 42.0847 13.9326 42.1481 13.993 42.1481C14.0534 42.1481 14.1029 42.1952 14.1029 42.253C14.1029 42.5382 17.4496 45.8873 17.7345 45.8873C17.7922 45.8873 17.8394 45.9368 17.8394 45.9973C17.8394 46.0578 17.9136 46.1073 18.0042 46.1073C18.0949 46.1073 18.1691 46.1484 18.1691 46.1987C18.1691 46.249 18.3051 46.3603 18.4713 46.4459C18.6375 46.5317 18.7982 46.6299 18.8285 46.6642C19.0978 46.9703 21.6664 48.3411 22.7847 48.7757C22.9358 48.8343 23.1453 48.9262 23.2503 48.9796C23.3552 49.0331 23.5625 49.0767 23.7108 49.0767C23.8592 49.0767 24.0112 49.1262 24.0485 49.1867C24.0859 49.2472 24.2618 49.2967 24.4397 49.2967C24.6175 49.2967 24.7629 49.3462 24.7629 49.4067C24.7629 49.4672 24.9607 49.5167 25.2025 49.5167C25.4442 49.5167 25.642 49.5661 25.642 49.6266C25.642 49.6871 25.914 49.7366 26.2465 49.7366C26.5789 49.7366 26.8509 49.7845 26.8509 49.843Z"/>
</mask>
<path d="M26.8509 49.843C26.8509 49.903 27.3891 49.965 28.0872 49.9855C29.8915 50.0381 33.164 49.9389 33.2066 49.8302C33.2268 49.7787 33.5358 49.7366 33.8934 49.7366C34.2536 49.7366 34.5437 49.6876 34.5437 49.6266C34.5437 49.5661 34.7415 49.5167 34.9832 49.5167C35.225 49.5167 35.4228 49.4672 35.4228 49.4067C35.4228 49.3462 35.6206 49.2967 35.8624 49.2967C36.1042 49.2967 36.302 49.2472 36.302 49.1867C36.302 49.1262 36.4474 49.0767 36.6252 49.0767C36.803 49.0767 36.979 49.0272 37.0163 48.9668C37.0537 48.9063 37.2021 48.8568 37.346 48.8568C37.49 48.8568 37.6383 48.8073 37.6757 48.7468C37.7131 48.6863 37.8124 48.6368 37.8965 48.6368C38.0942 48.6368 40.7844 47.3171 41.2214 47.0056C41.4055 46.8745 41.6102 46.7672 41.6764 46.7672C41.7427 46.7672 41.7968 46.7177 41.7968 46.6572C41.7968 46.5967 41.8637 46.5472 41.9454 46.5472C42.0271 46.5472 42.2492 46.3987 42.439 46.2173C42.6286 46.0358 42.8387 45.8873 42.9057 45.8873C42.9726 45.8873 43.166 45.7389 43.3354 45.5574C43.5047 45.3759 43.6758 45.2275 43.7156 45.2275C43.8738 45.2275 45.863 43.2983 45.863 43.145C45.863 43.0806 45.9125 43.0279 45.9729 43.0279C46.0334 43.0279 46.0828 42.9736 46.0828 42.907C46.0828 42.8406 46.2229 42.6549 46.3943 42.4946C46.5655 42.3342 46.77 42.0824 46.8487 41.935C46.9274 41.7877 47.0366 41.6144 47.0914 41.5501C47.536 41.029 48.6104 39.0815 48.6104 38.7969C48.6104 38.7044 48.6599 38.6287 48.7203 38.6287C48.7808 38.6287 48.8302 38.5297 48.8302 38.4088C48.8302 38.2878 48.8797 38.1888 48.9401 38.1888C49.0006 38.1888 49.05 38.0403 49.05 37.8589C49.05 37.6774 49.0995 37.5289 49.1599 37.5289C49.2203 37.5289 49.2698 37.3805 49.2698 37.199C49.2698 37.0175 49.3193 36.8691 49.3797 36.8691C49.4401 36.8691 49.4896 36.6958 49.4896 36.4841C49.4896 36.2724 49.5391 36.0992 49.5995 36.0992C49.6599 36.0992 49.7094 35.8558 49.7094 35.5584C49.7094 35.2611 49.762 35.0002 49.8264 34.9787C49.9953 34.9223 50.0025 30.1298 49.8337 30.0734C49.7653 30.0507 49.7094 29.8135 49.7094 29.5463C49.7094 29.2792 49.6599 29.0605 49.5995 29.0605C49.5391 29.0605 49.4896 28.9121 49.4896 28.7306C49.4896 28.5491 49.4401 28.4007 49.3797 28.4007C49.3193 28.4007 49.2698 28.2522 49.2698 28.0707C49.2698 27.8893 49.2203 27.7408 49.1599 27.7408C49.0995 27.7408 49.05 27.6418 49.05 27.5208C49.05 27.3999 49.0098 27.3009 48.9607 27.3009C48.9114 27.3009 48.8033 27.1277 48.7203 26.9159C48.6373 26.7042 48.5292 26.531 48.48 26.531C48.4309 26.531 48.3906 26.4667 48.3906 26.3881C48.3906 26.2672 48.164 25.9599 47.1328 24.6829C46.8217 24.2977 46.2841 23.7815 46.194 23.7815C46.1383 23.7815 45.9793 23.6696 45.8405 23.5329C45.3178 23.0175 43.6338 22.0219 43.2848 22.0219C43.1918 22.0219 43.1156 21.9724 43.1156 21.9119C43.1156 21.8514 43.0167 21.8019 42.8958 21.8019C42.7749 21.8019 42.676 21.7578 42.676 21.7039C42.676 21.6077 42.3086 21.5215 41.3847 21.4008C41.1279 21.3673 40.9177 21.2954 40.9177 21.2409C40.9177 21.1847 39.5442 21.142 37.7307 21.142C35.6792 21.142 34.5437 21.1029 34.5437 21.0321C34.5437 20.9716 34.3458 20.9221 34.1041 20.9221C33.8623 20.9221 33.6645 20.8726 33.6645 20.8121C33.6645 20.7516 33.5656 20.7021 33.4447 20.7021C33.3238 20.7021 33.2249 20.6526 33.2249 20.5921C33.2249 20.5317 33.1738 20.4822 33.1114 20.4822C32.9636 20.4822 32.2358 19.7539 32.2358 19.606C32.2358 19.5435 32.1864 19.4924 32.1259 19.4924C32.0655 19.4924 32.016 19.3934 32.016 19.2724C32.016 19.1514 31.9666 19.0524 31.9061 19.0524C31.8457 19.0524 31.7962 18.904 31.7962 18.7225C31.7962 18.541 31.7468 18.3926 31.6864 18.3926C31.6252 18.3926 31.5765 18.0993 31.5765 17.7327C31.5765 17.3661 31.6252 17.0728 31.6864 17.0728C31.7468 17.0728 31.7962 16.9243 31.7962 16.7429C31.7962 16.5614 31.8457 16.4129 31.9061 16.4129C31.9666 16.4129 32.016 16.314 32.016 16.193C32.016 16.072 32.0655 15.973 32.1259 15.973C32.1864 15.973 32.2358 15.8988 32.2358 15.8081C32.2358 15.7173 32.2729 15.643 32.3183 15.6429C32.4496 15.6425 32.9728 14.7544 33.1602 14.2134C33.2545 13.9412 33.3323 13.4857 33.3332 13.2012C33.3347 12.7106 33.2906 12.5474 32.9329 11.7185C32.7421 11.2763 31.9794 10.4741 31.7499 10.4741C31.6545 10.4741 31.5765 10.4246 31.5765 10.3641C31.5765 10.3036 31.4816 10.2541 31.3658 10.2541C31.25 10.2541 31.1346 10.1923 31.1094 10.1166C31.0518 9.94386 27.0372 9.97125 26.9792 10.1447C26.9589 10.2048 26.6499 10.2541 26.2923 10.2541C25.9321 10.2541 25.642 10.3032 25.642 10.3641C25.642 10.4246 25.4442 10.4741 25.2025 10.4741C24.9607 10.4741 24.7629 10.5236 24.7629 10.584C24.7629 10.6445 24.6145 10.694 24.4332 10.694C24.2519 10.694 24.1035 10.7435 24.1035 10.804C24.1035 10.8645 23.9545 10.914 23.7723 10.914C23.5902 10.914 23.3552 10.9576 23.2503 11.0111C23.1453 11.0645 22.9358 11.1564 22.7847 11.215C22.1638 11.4563 19.8698 12.604 19.8359 12.6905C19.8157 12.7417 19.7292 12.7836 19.6436 12.7836C19.5578 12.7836 19.4878 12.8331 19.4878 12.8936C19.4878 12.9541 19.423 13.0036 19.3438 13.0036C19.2644 13.0036 19.0934 13.1026 18.9636 13.2235C18.834 13.3445 18.6836 13.4435 18.6295 13.4435C18.5756 13.4435 18.3761 13.592 18.1863 13.7734C17.9966 13.9549 17.7938 14.1034 17.7355 14.1034C17.4531 14.1034 14.1029 17.4543 14.1029 17.7369C14.1029 17.795 14.0534 17.8427 13.993 17.8427C13.9326 17.8427 13.8831 17.906 13.8831 17.9833C13.8831 18.0608 13.7842 18.1954 13.6633 18.2826C13.5424 18.3698 13.4435 18.5065 13.4435 18.5865C13.4435 18.6663 13.3446 18.838 13.2237 18.9678C13.1028 19.0976 13.0039 19.2688 13.0039 19.3482C13.0039 19.4275 12.9545 19.4924 12.894 19.4924C12.8336 19.4924 12.7841 19.5624 12.7841 19.6482C12.7841 19.7339 12.7423 19.8204 12.6911 19.8407C12.6398 19.8608 12.3119 20.4712 11.9624 21.197C11.613 21.9229 11.2839 22.6027 11.2314 22.7077C11.1788 22.8127 11.1357 22.9984 11.1357 23.1201C11.1357 23.242 11.0862 23.3416 11.0258 23.3416C10.9654 23.3416 10.9159 23.5148 10.9159 23.7266C10.9159 23.9383 10.8664 24.1115 10.806 24.1115C10.7456 24.1115 10.6961 24.26 10.6961 24.4414C10.6961 24.6229 10.6467 24.7714 10.5862 24.7714C10.5258 24.7714 10.4763 24.9693 10.4763 25.2113C10.4763 25.4532 10.4269 25.6512 10.3664 25.6512C10.3055 25.6512 10.2565 25.9414 10.2565 26.3019C10.2565 26.6931 10.2063 26.9694 10.1306 26.9946C9.95442 27.0534 9.95749 33.0484 10.1338 33.1071C10.204 33.1305 10.2565 33.4027 10.2565 33.7438C10.2565 34.0714 10.306 34.3395 10.3664 34.3395C10.4269 34.3395 10.4763 34.5375 10.4763 34.7795C10.4763 35.0214 10.5258 35.2194 10.5862 35.2194C10.6467 35.2194 10.6961 35.3678 10.6961 35.5493C10.6961 35.7308 10.7456 35.8792 10.806 35.8792C10.8664 35.8792 10.9159 36.0284 10.9159 36.2107C10.9159 36.393 10.9595 36.6281 11.0129 36.7331C11.0664 36.8382 11.1581 37.0478 11.2167 37.199C11.3858 37.6346 12.5907 40.1076 12.6637 40.1684C12.6999 40.1987 12.7992 40.3587 12.8844 40.524C12.9694 40.6893 13.1301 40.9223 13.2413 41.0418C13.3525 41.1613 13.4435 41.3244 13.4435 41.4043C13.4435 41.4842 13.5424 41.6209 13.6633 41.7081C13.7842 41.7954 13.8831 41.93 13.8831 42.0074C13.8831 42.0847 13.9326 42.1481 13.993 42.1481C14.0534 42.1481 14.1029 42.1952 14.1029 42.253C14.1029 42.5382 17.4496 45.8873 17.7345 45.8873C17.7922 45.8873 17.8394 45.9368 17.8394 45.9973C17.8394 46.0578 17.9136 46.1073 18.0042 46.1073C18.0949 46.1073 18.1691 46.1484 18.1691 46.1987C18.1691 46.249 18.3051 46.3603 18.4713 46.4459C18.6375 46.5317 18.7982 46.6299 18.8285 46.6642C19.0978 46.9703 21.6664 48.3411 22.7847 48.7757C22.9358 48.8343 23.1453 48.9262 23.2503 48.9796C23.3552 49.0331 23.5625 49.0767 23.7108 49.0767C23.8592 49.0767 24.0112 49.1262 24.0485 49.1867C24.0859 49.2472 24.2618 49.2967 24.4397 49.2967C24.6175 49.2967 24.7629 49.3462 24.7629 49.4067C24.7629 49.4672 24.9607 49.5167 25.2025 49.5167C25.4442 49.5167 25.642 49.5661 25.642 49.6266C25.642 49.6871 25.914 49.7366 26.2465 49.7366C26.5789 49.7366 26.8509 49.7845 26.8509 49.843Z" stroke="#F0EEEE" stroke-width="10" mask="url(#path-2-inside-1_237_627)"/>
</svg>
