<svg width="48" height="58" viewBox="0 0 48 58" fill="none" xmlns="http://www.w3.org/2000/svg">
<g clip-path="url(#clip0_93_1012)">
<path d="M14.9899 45.2486V45.2499C15.281 45.3904 15.5753 45.5238 15.8737 45.6475C16.1901 45.7809 16.5112 45.9044 16.8361 46.0184H16.8373C17.1853 46.142 17.538 46.2559 17.8944 46.359C18.2181 46.4523 18.5429 46.5373 18.8714 46.6148H18.8726C18.9285 46.6282 18.9841 46.6402 19.04 46.6537H19.0412C19.0509 46.6561 19.0606 46.6573 19.0704 46.6597H19.0714H19.0727C19.4073 46.7348 19.7455 46.8015 20.0849 46.8586H20.0861C20.1733 46.8743 20.2632 46.8887 20.3516 46.9033H20.3529C20.3686 46.9057 20.383 46.9082 20.3989 46.9105C20.7492 46.9651 21.1007 47.01 21.4547 47.0464C21.5904 47.0608 21.7274 47.0729 21.8632 47.0839H21.8644C21.8911 47.0875 21.9154 47.0888 21.9408 47.0899H21.9419C22.525 47.1385 23.1081 47.1614 23.6949 47.1614C23.6658 47.1711 23.6367 47.1809 23.6077 47.1905H23.7265L23.8126 47.1614H23.8137H23.8162C24.6756 47.1566 25.5363 47.102 26.3909 46.9977L26.3921 46.9989L26.3933 46.9977H26.3946C29.3669 46.6401 32.2678 45.6945 34.7954 44.2181C35.3397 43.9005 35.8671 43.5574 36.3737 43.1901C36.3737 43.1889 36.3749 43.1889 36.3749 43.1889C36.524 43.0821 36.6695 42.9732 36.8149 42.8605L36.8161 42.8593H36.8173C37.0961 42.6447 37.3689 42.4229 37.6332 42.1924C37.8067 42.0421 37.9775 41.8882 38.1447 41.7307L38.1459 41.7295C38.1592 41.7161 38.1713 41.7053 38.186 41.692C38.3763 41.5113 38.5629 41.3272 38.7448 41.138C38.6805 41.0639 38.6248 40.9829 38.5762 40.8967C38.5726 40.8919 38.569 40.8858 38.5666 40.8798C38.4647 40.6979 38.3931 40.4955 38.3448 40.2833C38.3435 40.2773 38.3423 40.2712 38.3399 40.2639C38.2938 40.0528 38.2708 39.8349 38.2635 39.6215V39.6203C38.2551 39.3741 38.2684 39.1341 38.2927 38.9208C38.3338 38.5681 38.4043 38.2904 38.4577 38.1767C38.4587 38.1705 38.4625 38.1644 38.4649 38.1597C38.4927 38.0614 38.7002 37.7475 38.9691 37.317C38.9752 37.3086 38.9801 37.3001 38.9848 37.2916C39.14 37.0442 39.3147 36.7582 39.4857 36.4553C39.4905 36.4468 39.4953 36.4383 39.499 36.4309C39.568 36.3085 39.636 36.1835 39.7026 36.0576C39.6285 36.1861 39.5523 36.3132 39.4736 36.4383C39.4687 36.4468 39.4639 36.4564 39.4566 36.4649C39.2747 36.7595 39.0819 37.0467 38.8806 37.3255C38.8747 37.3352 38.8685 37.3437 38.8613 37.3523V37.3535C38.6298 37.6734 38.3873 37.9839 38.134 38.2832C37.9825 38.4627 37.8275 38.6384 37.6687 38.8094C37.522 38.9681 37.3727 39.1234 37.2201 39.2749L37.2188 39.2761C37.0734 39.4227 36.9255 39.5646 36.7727 39.7054C36.5279 39.9332 36.2757 40.1514 36.0176 40.3635L36.0164 40.3647H36.014C35.4466 40.8291 34.8514 41.2569 34.2283 41.6447C34.2283 41.6447 34.2283 41.646 34.2271 41.646C34.215 41.6557 34.2029 41.6629 34.1895 41.6703C34.1895 41.6715 34.1884 41.6715 34.1884 41.6715C33.8961 41.8534 33.5967 42.0279 33.2938 42.1927C32.8731 42.4231 32.4426 42.6377 32.0038 42.8353H32.0028C30.0365 43.7202 27.9078 44.2803 25.7439 44.496H25.7428C25.6821 44.5021 25.6227 44.5081 25.5621 44.513H25.5609C25.5197 44.5178 25.4808 44.5214 25.4408 44.5238H25.4396C24.705 44.5881 23.9668 44.6113 23.231 44.5943H23.2297C22.6479 44.581 22.0684 44.5421 21.4926 44.4791H21.4914C21.009 44.4257 20.5288 44.3542 20.0536 44.2646H20.0524C19.6318 44.1869 19.2148 44.0947 18.8027 43.9882H18.8015C18.4281 43.8925 18.0583 43.7844 17.6935 43.6657H17.6922C17.3552 43.5565 17.0232 43.4366 16.6933 43.3069C16.6921 43.3069 16.6921 43.3056 16.6921 43.3056C16.3939 43.1892 16.0981 43.0631 15.8072 42.9299C15.7987 42.9263 15.7903 42.9214 15.7804 42.9178C15.4992 42.7881 15.2204 42.6511 14.9465 42.5057C14.9452 42.5044 14.9452 42.5044 14.944 42.5044C14.7985 42.4268 14.6542 42.348 14.5124 42.2669C14.401 42.2039 14.2895 42.1396 14.1804 42.0729H14.1792C14.1768 42.0716 14.1743 42.0705 14.1732 42.0693C13.9331 41.925 13.6955 41.7747 13.4629 41.6171C13.4616 41.6171 13.4604 41.6159 13.4592 41.6148C13.2398 41.4681 13.0228 41.3142 12.8107 41.1553C12.8082 41.1528 12.8071 41.1517 12.8046 41.1492H12.8034C12.801 41.148 12.7997 41.1468 12.7974 41.1443H12.7961C12.5913 40.9904 12.39 40.8315 12.1925 40.6668C12.1889 40.6643 12.1851 40.6619 12.1815 40.6583V40.6571C11.9864 40.4971 11.7962 40.3297 11.6082 40.1575C11.4263 39.9915 11.2492 39.8193 11.076 39.6435H11.0748C10.9378 39.5056 10.8021 39.3635 10.6699 39.2193C10.4311 39.3817 10.2128 39.5017 10.2128 39.5017C10.2128 39.5017 10.2503 39.652 10.3026 39.8983V39.8994L10.4275 40.5479V40.5492C10.4615 40.7515 10.4966 40.9734 10.5257 41.2049V41.2062C10.5257 41.2098 10.5268 41.2144 10.5268 41.2194C10.5341 41.2801 10.5414 41.3406 10.5486 41.4026C10.5693 41.5915 10.5899 41.7395 10.6165 41.8546C10.6165 41.8582 10.6178 41.8607 10.6178 41.8643C10.6201 41.8704 10.6214 41.8776 10.6225 41.8836C10.6685 42.0692 10.7293 42.16 10.8299 42.1927C10.8978 42.2146 10.9825 42.211 11.0929 42.1927H12.9113C12.9973 42.2521 13.0664 42.3273 13.1234 42.4157C13.127 42.4206 13.1294 42.4242 13.1319 42.4291C13.2326 42.5878 13.2979 42.7891 13.3694 43.0255C13.3706 43.0291 13.3718 43.0327 13.373 43.0376C13.4276 43.2218 13.487 43.4268 13.567 43.6498C13.5997 43.7431 13.6373 43.8388 13.6797 43.9371C13.7439 44.0498 13.8033 44.148 13.8566 44.2437H13.8578C13.9476 44.405 14.0192 44.559 14.0663 44.7687C14.1028 44.7894 14.1391 44.8099 14.1767 44.8293C14.2748 44.8838 14.3743 44.9373 14.4748 44.9893C14.6446 45.0801 14.8167 45.1663 14.9901 45.2487L14.9899 45.2486Z" fill="#FF6E4A"/>
<path d="M10.372 26.7628C10.3587 26.535 10.3514 26.3069 10.3502 26.0791V26.0779C10.3478 25.8463 10.3514 25.6159 10.3599 25.3857C10.3684 25.1505 10.3818 24.9166 10.4012 24.6825V24.6813C10.4205 24.4414 10.4459 24.2036 10.4775 23.966C10.509 23.7225 10.5466 23.4799 10.5916 23.2387C10.6351 22.9926 10.6848 22.749 10.7417 22.5053C10.743 22.5029 10.743 22.5017 10.743 22.4992V22.4981C10.8024 22.2446 10.8691 21.9926 10.943 21.7428V21.7416C11.0171 21.4822 11.0995 21.2251 11.1891 20.9706C11.2838 20.7027 11.3855 20.4396 11.4959 20.1791C11.4959 20.1779 11.4972 20.1779 11.4972 20.1779C11.6073 19.9124 11.7276 19.6517 11.8547 19.3947C11.8596 19.3838 11.8644 19.3741 11.8704 19.3645C12.0076 19.0881 12.1541 18.8177 12.3118 18.5522C12.3167 18.5425 12.3227 18.5329 12.3299 18.5231V18.5218C12.5033 18.2285 12.6889 17.9412 12.8853 17.6624C12.8889 17.6563 12.8925 17.6503 12.8974 17.6455V17.6442H12.8985C13.0549 17.42 13.221 17.2018 13.3931 16.9885C13.4647 16.8989 13.5373 16.8104 13.6137 16.723L13.615 16.7218C13.615 16.7194 13.6173 16.7182 13.6209 16.7158V16.7146C13.9204 16.363 14.2417 16.026 14.5835 15.7073L14.7473 15.6527L14.5835 15.706C14.683 15.6128 14.7848 15.5206 14.8891 15.4296C15.254 15.1109 15.6394 14.8102 16.048 14.5326C16.048 14.5313 16.0492 14.5313 16.0492 14.5313L16.0516 14.5302C17.9172 13.2549 20.2398 12.4148 23.0208 12.2244H23.0244C23.3141 12.2051 23.6087 12.1917 23.9093 12.1869C24.2985 12.1942 24.6779 12.2136 25.0501 12.2439H25.0513C25.5653 12.2876 26.0636 12.3531 26.546 12.4391H26.5473C26.6369 12.4548 26.7243 12.4717 26.8127 12.4888H26.814C27.1462 12.5555 27.4723 12.6306 27.7898 12.7179H27.7922C27.8407 12.73 27.8905 12.7447 27.9389 12.758C28.2552 12.8465 28.5632 12.9458 28.8639 13.0525C28.8856 13.0609 28.9074 13.0694 28.9294 13.0769C29.2287 13.1871 29.5198 13.3047 29.8034 13.4319C29.8119 13.4357 29.8204 13.4393 29.8289 13.4429C30.1077 13.569 30.378 13.7024 30.641 13.8442L30.6423 13.8454C30.9004 13.9847 31.1513 14.1314 31.3951 14.2853L31.3961 14.2866C31.6301 14.4333 31.8557 14.5884 32.0763 14.7497L32.0714 14.7522L32.0787 14.7509C32.292 14.9061 32.4992 15.0673 32.6994 15.2346H32.7005C32.7781 15.2989 32.8544 15.3643 32.9297 15.4297C33.0448 15.5304 33.1575 15.6335 33.2678 15.7364V15.7377C33.4266 15.8867 33.5807 16.0394 33.731 16.1971L33.7539 16.2662L33.7866 16.2553C33.9502 16.4286 34.1079 16.6069 34.2606 16.7887C34.4109 16.9668 34.5551 17.1487 34.6958 17.3343V17.3353C34.8328 17.5172 34.9661 17.7039 35.0921 17.893C35.0933 17.893 35.0934 17.8942 35.0934 17.8942C35.0993 17.9038 35.1054 17.9123 35.1114 17.922C35.2303 18.1001 35.3455 18.2808 35.4545 18.4639V18.4651C35.4617 18.4748 35.4678 18.4844 35.4727 18.4955C35.5819 18.676 35.6848 18.8591 35.7829 19.0446V19.0458C35.7902 19.0579 35.7976 19.07 35.8024 19.0821C35.9005 19.265 35.994 19.4494 36.0812 19.6373C36.0885 19.6506 36.0946 19.6627 36.0994 19.6762C36.1867 19.8617 36.2704 20.0495 36.3478 20.2386C36.4327 20.4398 36.5114 20.6436 36.5866 20.8496L36.4981 20.88L36.5866 20.8508C36.6617 21.0557 36.7309 21.2629 36.7963 21.4714C36.8606 21.6799 36.9212 21.8897 36.977 22.102C37.012 22.2353 37.046 22.371 37.0777 22.5055C37.0958 22.5843 37.1127 22.6619 37.1297 22.7408C37.177 22.9565 37.2183 23.1722 37.2545 23.3905C37.2922 23.6087 37.3248 23.828 37.3528 24.0474C37.3794 24.2693 37.4026 24.4922 37.4208 24.7154C37.4388 24.9409 37.4522 25.1677 37.4594 25.3931C37.4679 25.6221 37.4715 25.8513 37.4691 26.0792C37.4679 26.3119 37.4607 26.5446 37.446 26.7762V26.7775C37.4351 27.0138 37.4169 27.2502 37.3926 27.4853C37.3684 27.7266 37.338 27.9666 37.3018 28.2054C37.2655 28.4515 37.223 28.6952 37.1733 28.9377C37.1236 29.1884 37.0677 29.437 37.0034 29.6844V29.6856C36.938 29.9412 36.8665 30.1935 36.7865 30.4457V30.4468C36.7053 30.7088 36.6155 30.9682 36.5185 31.2251H36.5175C36.4168 31.4954 36.3064 31.7622 36.1865 32.0252C36.0653 32.2968 35.9343 32.5647 35.7937 32.8278C35.7901 32.835 35.7865 32.8423 35.7816 32.8495C35.6337 33.1295 35.4736 33.4035 35.3052 33.6715C35.3016 33.6787 35.2968 33.6859 35.2919 33.692C35.2895 33.6969 35.287 33.6993 35.2847 33.7029V33.7041C35.0943 34.006 34.8906 34.3006 34.6749 34.5854C34.6713 34.5903 34.6676 34.5952 34.6639 34.5999C34.5864 34.7031 34.5077 34.8037 34.4263 34.903C34.2468 35.1248 34.059 35.3418 33.8639 35.5539L33.8626 35.5551C33.8626 35.5551 33.8614 35.5564 33.8603 35.5575C33.7111 35.7189 33.5559 35.8776 33.3971 36.0315H33.396C33.2445 36.1794 33.0892 36.3224 32.9305 36.4619C32.8723 36.5116 32.8154 36.5613 32.7572 36.6097C32.7572 36.6109 32.756 36.6109 32.756 36.6109C32.7414 36.623 32.7282 36.6352 32.7136 36.6462C32.6639 36.6885 32.6129 36.7298 32.5621 36.771C32.0349 37.1977 31.4638 37.5869 30.8504 37.9311V37.9324C30.8079 37.965 30.7668 37.9821 30.7243 38.0147L30.7231 38.016H30.7219C30.7207 38.016 30.7207 38.016 30.7194 38.0172H30.7183C30.7171 38.0172 30.7171 38.0183 30.7158 38.0183H30.7147C30.7135 38.0183 30.7135 38.0183 30.7122 38.0195H30.711C30.71 38.0195 30.71 38.0207 30.7086 38.0207H30.7074C30.7063 38.0207 30.7063 38.0219 30.705 38.0219H30.7037C30.7025 38.0219 30.7025 38.0231 30.7014 38.0231H30.7001C30.6989 38.0231 30.6989 38.0244 30.6978 38.0244H30.6965C30.6953 38.0244 30.6953 38.0256 30.694 38.0256H30.693C30.6918 38.0256 30.6918 38.0267 30.6905 38.0267H30.6895C30.6883 38.0267 30.6883 38.028 30.687 38.028H30.6858C30.6846 38.028 30.6846 38.0292 30.6834 38.0292H30.6822C30.681 38.0292 30.681 38.0303 30.6798 38.0303H30.6785C30.6774 38.0303 30.6774 38.0316 30.6762 38.0316H30.6749C30.6737 38.0316 30.6737 38.0328 30.6726 38.0328H30.6713C30.6701 38.0328 30.6701 38.0341 30.6688 38.0341H30.6677C30.6665 38.0341 30.6665 38.0351 30.6652 38.0351H30.6641C30.6628 38.0351 30.6628 38.0363 30.6616 38.0363C29.3705 38.7346 27.8941 39.2424 26.2356 39.5055H26.2332C26.1496 39.5188 26.0636 39.531 25.9787 39.543H25.9775C25.3168 39.6365 24.627 39.6909 23.9094 39.7044C23.7956 39.7019 23.6827 39.6995 23.57 39.6947C23.5288 39.6934 23.4901 39.6923 23.4487 39.6898H23.4463C23.4028 39.6886 23.3603 39.6862 23.3179 39.6838H23.3166C22.8003 39.657 22.302 39.6087 21.8171 39.5395H21.8158C21.7795 39.5346 21.7433 39.5298 21.708 39.525H21.7068C21.6293 39.5129 21.5517 39.4995 21.4753 39.4862H21.4741C21.1371 39.4316 20.8074 39.3649 20.486 39.2898H20.485C20.4582 39.2837 20.4328 39.2777 20.4074 39.2704H20.4062C20.3722 39.2631 20.3395 39.2546 20.3056 39.245H20.3044C19.9894 39.1674 19.6813 39.08 19.382 38.9831H19.3807C19.371 38.9807 19.3638 38.9771 19.3552 38.9735H19.3539C19.3298 38.9661 19.3042 38.9576 19.28 38.9491C19.3104 38.9395 19.3407 38.9285 19.3709 38.9189C19.3382 38.9285 19.3055 38.9382 19.2728 38.9468C18.9624 38.8449 18.6605 38.7322 18.3673 38.611V38.6098C18.3491 38.6037 18.3308 38.5952 18.3127 38.588C18.3115 38.588 18.3102 38.5868 18.3091 38.5868H18.3079C18.0278 38.4691 17.7563 38.3432 17.4907 38.211V38.2098C17.2217 38.0753 16.9597 37.931 16.7065 37.7795H16.7053C16.4617 37.634 16.2265 37.4825 15.9974 37.3249V37.3236C15.7768 37.171 15.5622 37.0121 15.3537 36.8473C15.2289 36.749 15.1064 36.6484 14.9865 36.5455C14.9113 36.4812 14.8386 36.417 14.7659 36.3515H14.7647C14.761 36.3478 14.7574 36.3442 14.7549 36.343C14.6506 36.2485 14.5489 36.1538 14.4494 36.057C14.3742 35.9854 14.3003 35.9127 14.2288 35.8388H14.2276C14.1814 35.7915 14.1367 35.7454 14.0906 35.6969C13.9706 35.5708 13.8529 35.4425 13.7367 35.3114C13.5815 35.1343 13.4311 34.9538 13.2869 34.7696C13.145 34.5889 13.008 34.4034 12.8772 34.2156C12.7462 34.0301 12.6201 33.841 12.5014 33.6496C12.3813 33.4604 12.2673 33.2676 12.1595 33.0726C12.0503 32.8798 11.9474 32.6834 11.8503 32.4846C11.7522 32.2882 11.6588 32.0893 11.5715 31.8869C11.483 31.6869 11.4007 31.4844 11.3219 31.2795V31.2783C11.2431 31.0747 11.1704 30.8698 11.1013 30.6625C11.0334 30.454 10.9691 30.2443 10.9085 30.0346C10.8503 29.8236 10.7958 29.6115 10.7462 29.3994C10.6963 29.1848 10.6503 28.9703 10.6103 28.7544C10.5691 28.5363 10.5328 28.3181 10.5025 28.0986C10.4711 27.878 10.4443 27.6574 10.4225 27.4355C10.4007 27.2113 10.3836 26.987 10.3728 26.7627L10.372 26.7628ZM10.8376 35.5794C10.9576 35.7406 11.0787 35.9007 11.2048 36.0571C11.2229 36.0813 11.2423 36.1056 11.2618 36.1297H11.263C11.4097 36.3127 11.5624 36.4924 11.7176 36.6692C11.8752 36.8487 12.0375 37.0244 12.2038 37.1978L12.2048 37.199C12.3746 37.3748 12.5479 37.5469 12.7249 37.7168C12.9067 37.8887 13.0922 38.0586 13.2825 38.2222C13.4765 38.3906 13.6753 38.5556 13.8778 38.7143C13.8778 38.7143 13.8778 38.7155 13.879 38.7155C14.0875 38.8805 14.2996 39.0392 14.5166 39.1944H14.5179C14.6718 39.3035 14.8282 39.4114 14.9858 39.5157C15.0512 39.558 15.1167 39.6005 15.1822 39.643C15.1894 39.6478 15.1967 39.6526 15.2041 39.6562V39.6575C15.2744 39.7022 15.3457 39.7472 15.4186 39.7921C15.5835 39.8938 15.7508 39.9921 15.9204 40.0878C15.9277 40.0926 15.935 40.0975 15.9436 40.1024H15.9447C15.9508 40.106 15.9568 40.1096 15.9629 40.1132C16.2091 40.2514 16.4587 40.3835 16.7133 40.5109C16.7242 40.5157 16.7352 40.5205 16.7462 40.5266C17.0213 40.6624 17.3025 40.7921 17.5862 40.9121H17.5872C17.5993 40.917 17.6092 40.9218 17.6213 40.9279C17.911 41.0491 18.2042 41.1643 18.5038 41.2697H18.5051C18.5171 41.2746 18.5304 41.2794 18.5437 41.283C18.5583 41.2879 18.5727 41.2939 18.5874 41.2975H18.5885C18.8867 41.403 19.191 41.4987 19.4977 41.586H19.4989C19.5535 41.6018 19.6081 41.6164 19.6637 41.632H19.6649C19.9764 41.7168 20.2904 41.7921 20.6093 41.8574H20.6105C20.705 41.877 20.8008 41.8963 20.8965 41.9145H20.8978C21.2213 41.9751 21.5487 42.0259 21.8797 42.0672H21.882C22.0397 42.0877 22.1986 42.1047 22.3585 42.1205H22.3609C22.7089 42.1534 23.0603 42.1751 23.4144 42.1848H23.4167C23.5791 42.1896 23.7441 42.192 23.9089 42.192C24.0034 42.1981 24.098 42.2017 24.1925 42.2041H24.1937C24.5114 42.2151 24.8302 42.2102 25.1527 42.192C25.8265 42.1534 26.5078 42.0538 27.194 41.9012L27.2 41.8999L27.2038 41.8988C28.1396 41.6878 29.0779 41.375 29.9967 40.975L29.9979 40.9737C30.8198 40.6162 31.626 40.1895 32.4006 39.7046C32.5861 39.5882 32.7679 39.4693 32.9498 39.3468C32.9498 39.3457 32.9509 39.3457 32.9509 39.3457L33.0613 39.2706L33.0637 39.2693C33.6032 38.9008 34.122 38.502 34.619 38.0801L34.6494 38.0548C35.0481 37.714 35.4313 37.3589 35.795 36.9891C35.7974 36.9879 35.7996 36.9853 35.7996 36.9843L35.8021 36.983C36.0978 36.6823 36.3815 36.3745 36.6506 36.057C36.6687 36.0364 36.6857 36.0158 36.7027 35.9952C36.7076 35.9903 36.7125 35.9842 36.7161 35.9792C36.9683 35.6811 37.2071 35.3756 37.4314 35.064V35.0629C37.4386 35.0532 37.4459 35.0447 37.4532 35.0349C37.4532 35.0349 37.4532 35.0338 37.4543 35.0338C37.5259 34.9319 37.5974 34.8301 37.6677 34.727C37.7914 34.5451 37.9102 34.3621 38.0241 34.1778C38.1963 33.8978 38.3574 33.6142 38.5066 33.3282C38.6459 33.0578 38.7757 32.7851 38.8933 32.5099C38.8945 32.5051 38.8969 32.5014 38.8994 32.4966C39.0086 32.2395 39.1079 31.98 39.1963 31.7196C39.2824 31.4661 39.3589 31.2115 39.4242 30.9547C39.486 30.7085 39.5393 30.46 39.5817 30.2115C39.6229 29.9727 39.6533 29.7315 39.6738 29.4915C39.6957 29.2575 39.7055 29.0248 39.7065 28.7909C39.7065 28.5628 39.698 28.335 39.6799 28.1083C39.6617 27.8877 39.6338 27.6672 39.5974 27.4464V27.4452C39.5612 27.2293 39.515 27.0159 39.4605 26.8016C39.4059 26.5918 39.3428 26.3821 39.2703 26.1736C39.1988 25.97 39.1175 25.7663 39.0278 25.5638C38.9405 25.3651 38.8422 25.1674 38.7357 24.971C38.6301 24.777 38.5162 24.5842 38.3926 24.3928C38.2713 24.2049 38.1404 24.0183 37.9998 23.8327C37.9574 23.7745 37.9126 23.7176 37.8676 23.6605C37.8119 23.5503 37.7803 23.3915 37.7671 23.2206C37.7477 22.9831 37.7671 22.7188 37.8132 22.5151L37.841 22.5054H37.8142C37.8459 22.3684 37.8894 22.2593 37.9416 22.2072C37.9887 22.1601 38.3392 22.1551 38.8374 22.1758H38.8386C39.1004 22.1855 39.4035 22.2023 39.7248 22.223C39.703 22.1162 39.6788 22.0108 39.6545 21.9054C39.6059 21.6908 39.5526 21.4787 39.4932 21.2689C39.4375 21.0568 39.3758 20.8458 39.3092 20.6397C39.2436 20.4289 39.1733 20.2227 39.0994 20.0179C39.0243 19.8119 38.9443 19.6081 38.8605 19.4081V19.4069C38.7805 19.2094 38.6957 19.0141 38.6047 18.8226C38.6035 18.8166 38.6011 18.8105 38.5975 18.8046H38.5962C38.5066 18.6082 38.4119 18.4154 38.3126 18.2263C38.3113 18.2215 38.309 18.2166 38.3053 18.2119C38.2058 18.0178 38.1017 17.8287 37.9937 17.642C37.9913 17.6371 37.9888 17.6323 37.9852 17.6274C37.8835 17.4493 37.778 17.2747 37.6676 17.1025V17.0552V17.0418V17.0407L37.6349 17.0515C37.5124 16.86 37.3865 16.6722 37.2556 16.4891C37.2556 16.4879 37.2543 16.4879 37.2543 16.4879C37.121 16.2987 36.984 16.1145 36.8422 15.9339C36.6979 15.7484 36.5501 15.5678 36.3962 15.392H36.3949C36.241 15.2102 36.0796 15.0332 35.9149 14.861C35.7464 14.6829 35.573 14.5095 35.3961 14.3423C35.2144 14.1688 35.0276 14.0003 34.8385 13.8368H34.8373C34.6396 13.667 34.4396 13.5034 34.2348 13.3471V13.3458H34.2335C34.0226 13.1811 33.8068 13.0223 33.5862 12.8706C33.414 12.7506 33.2383 12.6331 33.0601 12.5215C33.0031 12.484 32.945 12.4476 32.8856 12.4123C32.7546 12.3299 32.6225 12.2512 32.4892 12.1747C32.3703 12.1056 32.2491 12.0377 32.1292 11.9723C31.8589 11.8256 31.5848 11.686 31.3061 11.5553H31.3048C31.0103 11.4146 30.7121 11.2837 30.4091 11.1613H30.4079C30.0831 11.0303 29.7534 10.909 29.4199 10.7989C29.0563 10.6776 28.6889 10.5686 28.318 10.4727H28.3168C27.9677 10.3805 27.6149 10.3005 27.2597 10.2313C27.1967 10.2181 27.1337 10.2059 27.0707 10.1951H27.0694C26.6947 10.1248 26.3179 10.0679 25.9385 10.023H25.9373C25.8294 10.0098 25.7203 9.99868 25.6124 9.98794H25.6111C25.1724 9.94297 24.7311 9.91517 24.2898 9.90432C24.1262 9.89946 23.9624 9.89697 23.8 9.89697H23.799C23.7638 9.89697 23.7285 9.89697 23.6935 9.89822H23.6922C22.8159 9.90308 21.9405 9.97336 21.0762 10.1079C19.2372 10.394 17.4492 10.9747 15.8103 11.8499L15.7994 11.8535L15.7982 11.8548C15.5982 11.9603 15.4007 12.0717 15.2054 12.1869C14.683 12.4959 14.1786 12.838 13.6937 13.2112C13.6719 13.2269 13.6513 13.2429 13.6294 13.261L13.6283 13.2622L13.6258 13.2634C13.6222 13.2658 13.6198 13.2683 13.6162 13.2707L13.615 13.2719C13.182 13.6089 12.7688 13.9702 12.3724 14.3592C12.3675 14.363 12.3628 14.3679 12.359 14.3714V14.3725C12.0378 14.6865 11.7287 15.0187 11.4342 15.3678L11.433 15.369C11.4294 15.3727 11.4258 15.3775 11.4221 15.3824C11.176 15.6745 10.9384 15.98 10.7118 16.2963V16.2976H10.7106V16.2986C10.5165 16.5701 10.33 16.8502 10.1518 17.1399C10.1433 17.1532 10.1348 17.1667 10.1262 17.1812H10.125V17.1824C9.95761 17.4576 9.79647 17.74 9.64256 18.0309C9.50176 18.2989 9.3674 18.5728 9.24004 18.8541V18.8552C9.12116 19.1159 9.00963 19.3826 8.9042 19.6554C8.80351 19.9112 8.70904 20.1717 8.6218 20.4386V20.4396C8.60847 20.4749 8.59762 20.5111 8.58553 20.5474C8.83888 20.6711 9.07043 20.7996 9.25225 20.9196L9.25349 20.9209C9.49826 21.0845 9.65352 21.2362 9.65352 21.35C9.65352 21.3875 9.64866 21.4312 9.64019 21.4822V21.4833C9.60979 21.6675 9.52752 21.9355 9.42085 22.2446L9.41961 22.2458C9.39169 22.3295 9.36017 22.4168 9.32875 22.5053C9.26694 22.675 9.2014 22.8507 9.13473 23.0302C9.03664 23.2933 8.93595 23.5612 8.84386 23.817C8.75413 24.068 8.67164 24.308 8.60994 24.5177C8.60271 24.5418 8.59423 24.5674 8.58564 24.5917C8.44258 24.9685 8.07408 25.3068 7.66794 25.5809V25.5869L7.66309 25.5881V25.9713V26.2779L7.66557 26.2767C7.67043 26.5046 7.67891 26.7325 7.69337 26.958C7.70671 27.1834 7.72501 27.4078 7.74795 27.6308C7.77112 27.8526 7.79892 28.0732 7.83033 28.2928C7.86197 28.5121 7.89825 28.7303 7.93949 28.9473C7.97961 29.1642 8.02436 29.3802 8.07532 29.5935C8.1238 29.8069 8.17702 30.0201 8.23522 30.2299C8.29229 30.4422 8.35534 30.6507 8.42077 30.8578C8.48744 31.0663 8.55773 31.2735 8.63288 31.4784C8.7069 31.6845 8.78679 31.8882 8.86939 32.0907C8.95302 32.2931 9.04026 32.4943 9.13247 32.6932C9.22456 32.8945 9.32028 33.092 9.42096 33.2884C9.52165 33.4873 9.62584 33.6824 9.735 33.8751C9.84393 34.0703 9.95795 34.263 10.0756 34.4521C10.0998 34.4933 10.1266 34.5345 10.152 34.5757C10.2465 34.726 10.3434 34.8739 10.4441 35.0207C10.5702 35.2097 10.7023 35.3965 10.8381 35.5795L10.8376 35.5794Z" fill="#FF6E4A"/>
<path d="M16.0038 25.5895V25.5883C16.0135 25.352 16.0317 25.1154 16.0607 24.8804C16.0898 24.6354 16.1299 24.3919 16.1796 24.1505C16.2316 23.8973 16.2959 23.6451 16.371 23.3979V23.3967C16.451 23.1311 16.5445 22.8693 16.651 22.6147C16.6668 22.5784 16.6814 22.5419 16.6972 22.5055C16.8027 22.2618 16.9202 22.0242 17.0499 21.7928L17.0511 21.7916C17.2197 21.4874 17.4099 21.1939 17.6196 20.9139L17.6208 20.9126C17.8863 20.5611 18.1833 20.2313 18.513 19.9284L18.5142 19.9271C19.8114 18.7355 21.6091 17.9584 23.9087 17.9173C24.1112 17.9209 24.3087 17.9306 24.5027 17.9464H24.504C25.0046 17.9827 25.4785 18.0568 25.9271 18.1646H25.9295C26.3066 18.2542 26.663 18.3659 27.0036 18.4992H27.0048C27.3067 18.618 27.5952 18.7526 27.8691 18.9029H27.8703C28.1236 19.0399 28.3637 19.1914 28.5928 19.3539H28.594C28.8085 19.5067 29.0134 19.6691 29.2061 19.84V19.8413H29.2074C29.2195 19.8509 29.2303 19.8606 29.2414 19.8727C29.4136 20.0254 29.5772 20.1879 29.7323 20.3563H29.7335V20.3576C29.7408 20.3648 29.748 20.3721 29.7541 20.3807C29.9069 20.5467 30.0498 20.7189 30.1844 20.897C30.1844 20.897 30.1857 20.897 30.1857 20.8983C30.1905 20.9055 30.1965 20.9127 30.2014 20.9202C30.3335 21.0947 30.4558 21.2741 30.5711 21.4595L30.5481 21.4679C30.5553 21.4656 30.5638 21.4632 30.5722 21.4607C30.6911 21.6499 30.8002 21.8439 30.902 22.0413C30.9796 22.1941 31.0523 22.3491 31.1214 22.5056C31.1395 22.5504 31.159 22.5941 31.1773 22.639C31.2608 22.8415 31.336 23.0464 31.4027 23.2549V23.256C31.4705 23.4633 31.5298 23.6742 31.5795 23.8865V23.8876C31.6318 24.1009 31.6742 24.3169 31.7093 24.5338C31.7445 24.7532 31.7723 24.975 31.7905 25.1969V25.1982C31.8098 25.4247 31.8196 25.6515 31.8208 25.8782C31.8232 26.1109 31.816 26.3438 31.799 26.5752C31.7832 26.814 31.7566 27.0529 31.72 27.2904V27.2917C31.6825 27.54 31.634 27.7862 31.5734 28.0299C31.5115 28.288 31.4376 28.5426 31.3504 28.7936C31.2595 29.0603 31.154 29.3222 31.034 29.5781C31.0327 29.5817 31.0315 29.5864 31.0291 29.5901H31.0279V29.5912C30.8945 29.8797 30.7419 30.161 30.572 30.4312V30.4325C30.3745 30.7488 30.1527 31.052 29.9077 31.338C29.9065 31.3392 29.9053 31.3416 29.9041 31.3428C29.5707 31.732 29.1936 32.0895 28.7718 32.4072L28.7705 32.4084C28.7536 32.4218 28.7367 32.4352 28.7184 32.4473C27.5499 33.3141 26.0514 33.8766 24.2235 33.9638H24.2223C24.1641 33.9674 24.1072 33.9698 24.049 33.9711H24.0453L23.9083 33.9747C23.3798 33.9651 22.8767 33.9165 22.4015 33.8328H22.4003C22.3954 33.8328 22.3918 33.8316 22.387 33.8305C22.3857 33.8305 22.3857 33.8292 22.3857 33.8292C21.97 33.7565 21.5759 33.657 21.2015 33.5323H21.2002C20.873 33.4231 20.5614 33.296 20.2643 33.1516H20.2631C20.2558 33.1479 20.2486 33.1443 20.2414 33.1395H20.2401C19.9783 33.0122 19.7286 32.8715 19.4909 32.7176H19.4898C19.2606 32.5709 19.0437 32.4121 18.8377 32.2437C18.6413 32.0849 18.4557 31.9151 18.28 31.7382C18.2787 31.7382 18.2787 31.737 18.2787 31.737C18.109 31.5671 17.9502 31.3903 17.7999 31.206C17.6533 31.0277 17.5163 30.8423 17.389 30.6519C17.2628 30.4652 17.1465 30.2737 17.0375 30.0787V30.0774C16.9307 29.8846 16.8314 29.687 16.7416 29.486C16.652 29.2871 16.5707 29.0834 16.4968 28.8773C16.4229 28.6713 16.3586 28.4627 16.3004 28.2519V28.2506C16.2433 28.0397 16.1936 27.8252 16.1525 27.6104C16.1113 27.3923 16.0786 27.1741 16.053 26.9536C16.0276 26.7292 16.0107 26.505 16.0021 26.2795C15.9936 26.0492 15.9936 25.82 16.0033 25.5897L16.0038 25.5895ZM13.5527 26.4005C13.5612 26.6247 13.5769 26.8502 13.5986 27.0746C13.6204 27.2964 13.6484 27.5181 13.6823 27.7377C13.7161 27.9559 13.7562 28.1716 13.8036 28.3873C13.8485 28.6007 13.9004 28.814 13.9599 29.025V29.0263C14.0181 29.2371 14.0824 29.4456 14.1539 29.6517V29.653C14.2242 29.859 14.3006 30.0639 14.3841 30.2651V30.2664C14.4666 30.4687 14.5563 30.6688 14.6533 30.8664C14.7491 31.0664 14.8521 31.2628 14.9624 31.4556C15.0728 31.6508 15.1904 31.8424 15.314 32.029C15.4389 32.2192 15.571 32.4047 15.7104 32.5865V32.5878H15.7117C15.8522 32.7733 16.0014 32.955 16.1577 33.1309C16.1698 33.1455 16.1832 33.16 16.1965 33.1746C16.3432 33.3394 16.4971 33.4994 16.6573 33.6546H16.6584C16.7821 33.7747 16.9082 33.8923 17.039 34.0037C17.0984 34.0572 17.1591 34.108 17.2197 34.1589H17.2209C17.4233 34.3261 17.6343 34.4862 17.8549 34.6389H17.8561C18.0863 34.7989 18.3264 34.9506 18.5761 35.0899V35.0911C18.5785 35.0935 18.5809 35.0948 18.5845 35.096C18.8391 35.2414 19.1047 35.376 19.3786 35.4996C19.3858 35.5033 19.3932 35.5057 19.3992 35.5081H19.4004C19.6792 35.6342 19.9667 35.7483 20.2647 35.85C20.2951 35.8609 20.3265 35.8705 20.3569 35.8816H20.3581C20.5483 35.9447 20.7437 36.0041 20.9423 36.0574C21.1253 36.1071 21.3108 36.1519 21.5011 36.1931H21.5036C21.9605 36.2915 22.4358 36.364 22.9316 36.4101H22.934C23.2505 36.4381 23.5754 36.4562 23.9087 36.4623C24.3112 36.4551 24.7014 36.4307 25.0797 36.3895H25.0821C25.1536 36.3823 25.2264 36.3738 25.2967 36.364C25.5428 36.3338 25.7827 36.2973 26.0179 36.2526C26.0215 36.2513 26.024 36.2513 26.0263 36.2513C26.2458 36.2102 26.4593 36.163 26.6688 36.1095C26.6772 36.1071 26.6859 36.1047 26.6932 36.1047C26.7149 36.0999 26.7356 36.0951 26.7562 36.0914C27.7405 35.838 28.6218 35.4599 29.417 34.9894C29.417 34.9894 29.417 34.9883 29.4181 34.9883C29.4595 34.9653 29.5006 34.9397 29.5419 34.9143V34.9132C29.9987 34.6331 30.4232 34.3179 30.8136 33.9748C30.9141 33.8875 31.0111 33.7979 31.1069 33.7069V33.7057H31.1081L31.1093 33.7045C31.4074 33.4196 31.6826 33.1203 31.9373 32.8037C31.9615 32.7747 31.9844 32.7468 32.0064 32.7177H32.0076C32.2354 32.4292 32.4464 32.1298 32.6392 31.8195V31.8182C32.6439 31.8122 32.6477 31.8061 32.6513 31.8001C32.8185 31.531 32.9725 31.2546 33.113 30.9722L33.1142 30.9709C33.1191 30.9612 33.1251 30.9504 33.1287 30.9405C33.2561 30.6861 33.3725 30.4255 33.478 30.1612V30.1599C33.478 30.1575 33.4792 30.1563 33.4804 30.1539C33.5809 29.8993 33.6732 29.641 33.7544 29.3792C33.8332 29.1295 33.9022 28.8761 33.9629 28.6204V28.6191C34.0211 28.3743 34.0721 28.1281 34.1132 27.8796C34.1531 27.6407 34.1859 27.4008 34.2113 27.1584V27.1572L34.2635 26.4505V26.4492C34.2732 26.2189 34.2768 25.9887 34.272 25.7571C34.2695 25.5304 34.2586 25.3036 34.2416 25.077C34.2259 24.854 34.2027 24.6309 34.1725 24.4102V24.4091C34.1435 24.1896 34.1082 23.9713 34.067 23.7544C34.0258 23.5387 33.9772 23.3241 33.9227 23.112C33.8729 22.9084 33.8149 22.7059 33.7517 22.5059C33.7493 22.4974 33.7469 22.4902 33.7432 22.4816V22.4803C33.679 22.2718 33.6063 22.0657 33.5287 21.8621C33.45 21.6572 33.365 21.4548 33.2741 21.2559C33.188 21.0681 33.0971 20.8827 33.0001 20.7008C32.9941 20.6874 32.9869 20.6752 32.9795 20.6632C32.8825 20.4802 32.7795 20.3008 32.6717 20.125C32.6632 20.1104 32.6548 20.0972 32.6449 20.0839C32.5335 19.9032 32.4159 19.7275 32.2923 19.554C32.2838 19.5419 32.2753 19.5311 32.2668 19.519C32.142 19.3445 32.0098 19.1746 31.8715 19.0086C31.8618 18.9953 31.851 18.982 31.8401 18.9698C31.7698 18.885 31.6971 18.8014 31.6232 18.7201C31.5383 18.6243 31.4509 18.531 31.3601 18.4389V18.4378C31.1891 18.2607 31.0098 18.0898 30.823 17.9262L30.8472 17.9177H30.8134C30.6217 17.7504 30.423 17.5892 30.2168 17.4364C29.9975 17.2728 29.7695 17.1178 29.5319 16.9733C29.2822 16.8182 29.0215 16.674 28.7513 16.5418H28.7501C28.4761 16.4048 28.1925 16.2801 27.8991 16.1685C27.8822 16.1613 27.8665 16.1552 27.8494 16.1503C27.8494 16.1503 27.8494 16.1491 27.8482 16.1491H27.8471C27.5064 16.0194 27.1524 15.9066 26.7838 15.8121H26.7813C26.3656 15.7017 25.9329 15.6157 25.4819 15.5527H25.4794C24.9776 15.4811 24.4539 15.44 23.9083 15.4302H23.7629H23.6015C23.5907 15.434 23.5798 15.4375 23.5689 15.4411C21.125 15.5441 19.1285 16.2946 17.578 17.4523C17.5587 17.4667 17.5405 17.4801 17.5222 17.4945L17.5211 17.4958C17.344 17.6291 17.1744 17.7685 17.0095 17.9127C16.7657 18.1261 16.5367 18.3479 16.321 18.5819L16.3197 18.5832H16.3187L16.3175 18.5844C16.1659 18.7479 16.0192 18.9153 15.881 19.0887C15.7624 19.2328 15.6507 19.3795 15.5428 19.5298V19.5311C15.3392 19.8135 15.1513 20.1056 14.9792 20.4064V20.4075C14.9732 20.4172 14.9671 20.4269 14.9622 20.4379C14.8132 20.6986 14.6762 20.9653 14.5525 21.2381V21.2391H14.5513C14.4325 21.4998 14.3234 21.7665 14.2252 22.0368H14.224V22.038C14.1681 22.1932 14.1148 22.3485 14.0664 22.506C14.0336 22.6066 14.0045 22.7072 13.9755 22.8091C13.9052 23.0574 13.8434 23.3084 13.7912 23.5606V23.5618C13.7391 23.8042 13.6967 24.0479 13.6614 24.294C13.6276 24.5316 13.6009 24.7705 13.5815 25.0092V25.0105C13.562 25.2444 13.5511 25.4784 13.5463 25.7123C13.5414 25.9414 13.5439 26.1706 13.5524 26.3996V26.4009L13.5527 26.4005Z" fill="#FF6E4A"/>
<path d="M21.649 25.792C21.6636 25.5374 21.7183 25.2853 21.8104 25.0489C21.9437 24.701 22.1594 24.387 22.4564 24.1446H22.4576L22.4587 24.1434C22.809 23.8573 23.2722 23.6718 23.8493 23.6501C23.8504 23.6488 23.8517 23.6488 23.854 23.6501C23.8905 23.6501 23.9183 23.6488 23.9376 23.6488H23.9414C23.945 23.6488 23.9486 23.6488 23.951 23.6501H23.9535C24.4031 23.6633 24.7851 23.7773 25.0977 23.9603C25.3256 24.0936 25.5171 24.2634 25.6735 24.4598V24.461C25.8141 24.6368 25.9245 24.832 26.0055 25.0406C26.0855 25.2442 26.1377 25.4612 26.1596 25.6807C26.1838 25.9122 26.1766 26.1473 26.1377 26.3777C26.0904 26.6517 25.997 26.9183 25.8589 27.1597L25.8577 27.1608C25.5049 27.7755 24.8552 28.2277 23.9084 28.2447C23.5897 28.2387 23.3047 28.1841 23.0526 28.0895H23.0514V28.0883H23.0502C22.7677 27.9829 22.5291 27.8278 22.3314 27.6374V27.6363C22.1616 27.475 22.0247 27.2871 21.9181 27.0834C21.8161 26.8894 21.7422 26.6809 21.6986 26.4664V26.4652H21.6975C21.6513 26.2446 21.6355 26.0179 21.6489 25.7924L21.649 25.792ZM19.1917 25.9145C19.1906 26.1411 19.2038 26.3666 19.2306 26.591V26.5922C19.2584 26.8103 19.2985 27.0273 19.3531 27.2406V27.2419C19.4064 27.454 19.4744 27.6625 19.5555 27.865C19.6368 28.0698 19.7326 28.2686 19.8416 28.4602C19.9532 28.6566 20.0793 28.8457 20.2211 29.0239V29.0251H20.2223C20.369 29.213 20.5339 29.3899 20.7132 29.5524C20.9072 29.7283 21.1194 29.8894 21.3508 30.0312C21.3508 30.0312 21.352 30.0312 21.352 30.0325C21.6127 30.1926 21.8964 30.3295 22.2055 30.4386H22.2079C22.5935 30.5756 23.0166 30.6677 23.476 30.7089L23.4068 30.7321H23.9086C25.31 30.7065 26.3985 30.224 27.1755 29.4858V29.4845C27.4701 29.2058 27.7199 28.8895 27.9247 28.5476L27.926 28.5464C28.0811 28.2869 28.2109 28.0129 28.3139 27.7281L28.3152 27.7269C28.4048 27.4808 28.4751 27.2263 28.526 26.9681C28.5734 26.7303 28.6037 26.4904 28.6159 26.248V26.2468C28.6303 26.0177 28.6292 25.7873 28.611 25.5595C28.5953 25.3377 28.565 25.1171 28.5213 24.8988C28.4778 24.6842 28.4208 24.4721 28.3503 24.2659V24.2648C28.28 24.0574 28.1952 23.8538 28.0971 23.6587C27.9976 23.4585 27.8837 23.2659 27.7552 23.0827V23.0815C27.6219 22.8901 27.4739 22.7082 27.3102 22.5386H27.3091C27.2581 22.4851 27.2059 22.4343 27.1515 22.3844C27.0217 22.2608 26.8824 22.1469 26.7345 22.0402H26.7332V22.039C26.7054 22.0184 26.6763 21.9991 26.6472 21.9784C26.446 21.8402 26.229 21.7153 25.9951 21.6086H25.9939C25.9879 21.6062 25.9818 21.6037 25.9758 21.6001H25.9745C25.9527 21.5905 25.932 21.5808 25.9091 21.5709C25.6024 21.4376 25.2691 21.3334 24.9089 21.2631H24.9065C24.8932 21.2595 24.8811 21.257 24.8677 21.2546H24.8664C24.5647 21.1988 24.2458 21.1661 23.9087 21.1602C23.4541 21.1685 23.0323 21.2243 22.6444 21.3225H22.6432L22.6383 21.3237L22.6347 21.3249H22.6323C22.4033 21.3831 22.1863 21.4559 21.9802 21.5406L21.9766 21.5419V21.5431H21.9753L21.9645 21.5467C21.4445 21.7649 20.9971 22.0643 20.6237 22.4244C20.6226 22.4244 20.6226 22.4257 20.6226 22.4257C20.5001 22.5421 20.3873 22.6643 20.2808 22.7929V22.7941C20.0563 23.0645 19.8685 23.359 19.7145 23.6706V23.6718H19.7134C19.7109 23.6766 19.7096 23.6802 19.7073 23.6851C19.5836 23.9347 19.4831 24.1954 19.4041 24.4634L19.3108 24.4948L19.4041 24.4646C19.3328 24.7071 19.2792 24.9555 19.2442 25.2065L19.1229 25.2466V25.2477L19.2442 25.2078C19.2102 25.4417 19.1932 25.678 19.192 25.9145H19.1917Z" fill="#FF6E4A"/>
<path d="M39.7022 43.9092C39.6696 43.7468 39.6234 43.5589 39.5616 43.3322C39.5276 43.2097 39.4901 43.0764 39.4476 42.9297C39.2029 43.1662 38.9506 43.3965 38.6924 43.6195L38.6912 43.6207C38.2027 44.0438 37.691 44.4426 37.159 44.8159V44.8172C36.3613 45.3796 35.5163 45.8887 34.6362 46.3422L34.6314 46.3433C34.6217 46.3494 34.6109 46.3542 34.5998 46.3602C34.0093 46.6621 33.4022 46.9398 32.7826 47.1907C31.3037 47.7895 29.7508 48.2429 28.1664 48.5387C28.0415 48.5629 27.9178 48.5848 27.793 48.6066C26.7748 48.7799 25.7455 48.8903 24.7139 48.9338C24.0193 48.9642 23.3235 48.9642 22.6313 48.9328C22.0701 48.9085 21.5112 48.8635 20.9561 48.7969C20.476 48.74 19.9995 48.6684 19.5256 48.5812H19.5244C19.5231 48.58 19.522 48.58 19.5208 48.58C19.1002 48.5024 18.6819 48.4115 18.2673 48.3084C18.2648 48.3084 18.2637 48.3084 18.2625 48.3072C17.8903 48.215 17.5206 48.1133 17.1557 47.9992C17.1472 47.998 17.14 47.9956 17.1315 47.992H17.1303C16.7921 47.8877 16.4562 47.7738 16.1242 47.6502H16.123C16.1157 47.6489 16.1096 47.6453 16.1024 47.6428C15.7835 47.5254 15.4685 47.3993 15.1568 47.2646C15.0998 47.2404 15.0441 47.2162 14.9872 47.1907C14.815 47.1143 14.6441 47.0355 14.4745 46.9543C14.5156 47.0343 14.5592 47.1131 14.6053 47.1907C14.6467 47.2634 14.6902 47.3336 14.7351 47.404C14.8624 47.6064 14.997 47.7968 15.1243 47.9665C15.1291 47.9713 15.1316 47.9762 15.1352 47.9809C15.3036 48.2017 15.4589 48.3859 15.5703 48.5083C15.5764 48.5157 15.5825 48.5216 15.5885 48.5279C15.6575 48.6041 15.7074 48.6537 15.729 48.6697C15.7692 48.6999 15.8456 48.8586 15.9375 49.0769C15.94 49.083 15.9424 49.089 15.9449 49.0951C16.0164 49.2697 16.0976 49.4795 16.1763 49.6892C16.1788 49.6964 16.1824 49.7037 16.1848 49.711C16.2636 49.9219 16.3399 50.1304 16.4018 50.3038C16.4066 50.317 16.4102 50.3292 16.4151 50.3413C16.7569 50.4528 17.1012 50.5547 17.4492 50.6479C17.848 50.7571 18.2492 50.854 18.654 50.939C18.9996 51.0129 19.3463 51.0783 19.6953 51.1354C19.796 51.1535 19.8978 51.1692 19.9985 51.1851C20.3476 51.2372 20.6979 51.2832 21.0495 51.3196C21.2106 51.3379 21.372 51.3536 21.5344 51.367H21.5356C21.8872 51.3986 22.2411 51.4215 22.595 51.4372H22.5975C22.8459 51.4493 23.0932 51.4568 23.3418 51.4591H23.343C24.103 51.4711 24.8656 51.4482 25.6269 51.3924H25.6293C26.7553 51.3112 27.878 51.156 28.9835 50.9317C29.0952 50.91 29.2053 50.8869 29.3158 50.8626L29.3217 50.8614C31.1644 50.4615 32.956 49.8771 34.6399 49.1012L34.6726 49.0904L34.801 49.0479H34.7648C35.8242 48.557 36.8401 47.997 37.7978 47.3666C37.799 47.3666 37.799 47.3654 37.8001 47.3654H37.8014C37.8026 47.3654 37.8026 47.3642 37.8038 47.3642H37.805C37.8922 47.3072 37.9796 47.2501 38.0657 47.1909C38.5542 46.8613 39.0281 46.512 39.484 46.146C39.4865 46.1363 39.4876 46.1264 39.4901 46.1168V46.1156C39.4913 46.1095 39.4925 46.1022 39.4937 46.0963C39.5471 45.81 39.5954 45.5761 39.6355 45.3785C39.6368 45.3737 39.6368 45.37 39.6379 45.3652C39.6623 45.244 39.6839 45.1349 39.7022 45.0356C39.7276 44.8936 39.747 44.7688 39.7554 44.6488C39.7567 44.6464 39.7567 44.6452 39.7567 44.6427C39.7736 44.4295 39.7615 44.2293 39.7142 43.9711C39.7106 43.9518 39.707 43.9312 39.7021 43.9093L39.7022 43.9092Z" fill="#FF6E4A"/>
<path d="M3.08893 14.6782C2.9253 14.6709 2.79444 14.649 2.72043 14.603C2.61488 14.5387 2.58584 14.374 2.59556 14.1521C2.60166 13.9485 2.64155 13.6963 2.68167 13.4321C2.71907 13.1932 2.75795 12.9436 2.77614 12.7109C2.79671 12.455 2.79309 12.2188 2.73727 12.0345C2.7167 11.9642 2.68754 11.9011 2.65003 11.8477C2.58934 11.9387 2.52877 12.0308 2.46933 12.1229C2.28514 12.4077 2.10693 12.6962 1.93347 12.9896C1.76736 13.2696 1.60757 13.5522 1.45344 13.8382C1.30314 14.1134 1.16019 14.3921 1.02075 14.6722V14.6734C0.887404 14.9437 0.757677 15.2154 0.633938 15.4905C0.513929 15.756 0.398892 16.0252 0.287358 16.2955C0.187802 16.538 0.0920885 16.7827 -0.00012207 17.0287V19.1514V19.2255C0.00835316 19.2158 0.0726519 19.1648 0.174468 19.0933C0.574612 18.8145 1.5661 18.2096 2.14445 18.4158C2.23293 18.1613 2.32514 17.9091 2.4221 17.6594C2.52618 17.3915 2.63421 17.1248 2.748 16.8616C2.86564 16.5889 2.98938 16.3198 3.1165 16.0507V16.0495C3.25109 15.7694 3.39054 15.493 3.53473 15.2202C3.63304 15.0349 3.73361 14.8506 3.83667 14.6675V14.431L3.09108 14.6784H3.08871L3.08893 14.6782Z" fill="#FF6E4A"/>
<path d="M24.0276 2.91964C24.6422 2.92202 25.2579 2.94993 25.8689 3.00089H25.8701C26.3864 3.04316 26.8994 3.10384 27.4084 3.18136H27.4096C27.8631 3.24927 28.3103 3.33165 28.7528 3.42748C29.1408 3.50997 29.5239 3.60331 29.9007 3.7075C29.8086 3.51234 29.7142 3.32318 29.6183 3.14147C29.5118 2.93784 29.4037 2.74257 29.2971 2.55724C29.1782 2.35237 29.0606 2.16094 28.9455 1.98386C28.8109 1.77413 28.68 1.58621 28.5587 1.4202C28.3916 1.19476 28.2413 1.0117 28.1139 0.878355C28.0691 0.831119 28.0279 0.789873 27.9891 0.754616C27.6204 0.695176 27.2459 0.643195 26.869 0.599463C26.3186 0.535277 25.761 0.489285 25.2022 0.46013L25.3027 0.427246H23.9026H23.2165L23.1874 0.436964H23.1862C22.9475 0.444197 22.7088 0.453915 22.4722 0.468605C22.4783 0.538893 22.482 0.606808 22.4807 0.670994C22.4783 0.978927 22.3996 1.22618 22.2674 1.43105C21.6941 2.32084 20.1097 2.39486 19.3677 3.0809C19.2599 3.18045 19.1702 3.29187 19.1034 3.4216C19.9181 3.24351 20.7581 3.11254 21.6092 3.03005C22.4082 2.95106 23.2178 2.91478 24.0276 2.91964Z" fill="#FF6E4A"/>
<path d="M47.0992 15.3013C47.0084 15.1012 46.9137 14.9025 46.8156 14.706C46.7186 14.5072 46.6179 14.3108 46.515 14.1156C46.4118 13.918 46.3065 13.7228 46.1973 13.5289C46.0895 13.3338 45.9779 13.141 45.8639 12.9495C45.7487 12.7568 45.6324 12.5652 45.5124 12.3762C45.3923 12.186 45.2699 11.9955 45.1439 11.8089C45.0178 11.6185 44.8893 11.4318 44.7571 11.2464C44.625 11.0584 44.4904 10.8731 44.3511 10.69C44.3522 10.6888 44.3511 10.6863 44.3475 10.6852C44.2346 10.5313 44.1182 10.3796 43.9995 10.2281C43.6649 10.2984 43.3946 10.353 43.1631 10.3917C43.1619 10.393 43.1607 10.393 43.1595 10.393C42.5896 10.4888 42.2589 10.4911 41.7908 10.4087C41.6515 10.3832 41.4987 10.3505 41.3241 10.3104H41.3228C41.1325 10.2669 40.9143 10.2146 40.6561 10.1528C40.7459 10.2487 40.8356 10.3444 40.9241 10.4426C40.9253 10.4426 40.9253 10.4426 40.9253 10.4438C41.0852 10.6184 41.243 10.7965 41.3968 10.9772C41.5494 11.1543 41.6997 11.3347 41.8465 11.5179C41.8465 11.5179 41.8477 11.5179 41.8477 11.5189C41.8477 11.5189 41.8489 11.5189 41.8489 11.5202C41.9945 11.6996 42.1364 11.8813 42.2756 12.0669C42.3131 12.1165 42.3507 12.1662 42.3884 12.2159C42.4889 12.3505 42.5872 12.4863 42.6842 12.6221C42.8163 12.8076 42.9447 12.9942 43.0709 13.1833C43.197 13.3713 43.3195 13.5604 43.4394 13.7519C43.558 13.941 43.6733 14.1325 43.7873 14.3264C43.9 14.5179 44.0103 14.7119 44.1171 14.9083C44.2236 15.1024 44.3279 15.2988 44.4273 15.4962C44.528 15.6915 44.6262 15.889 44.7194 16.089C44.8153 16.2866 44.9062 16.4867 44.9948 16.6879C44.9971 16.6915 44.9984 16.6951 45.0008 16.7C45.0831 16.8878 45.1644 17.0782 45.2419 17.2698C45.2589 17.2323 45.2748 17.1982 45.2844 17.1751C45.3669 16.9836 45.7306 16.6564 46.1571 16.3085C46.1596 16.3061 46.1632 16.3036 46.1668 16.3012C46.5039 16.0248 46.8795 15.7376 47.1876 15.4938V15.272L47.0991 15.3011L47.0992 15.3013Z" fill="#FF6E4A"/>
<path d="M43.7931 18.4653C43.7156 18.2604 43.6356 18.0568 43.5518 17.8555C43.4706 17.6591 43.3868 17.464 43.2996 17.27C43.2972 17.2639 43.2936 17.2579 43.2911 17.2518C43.2875 17.2445 43.2851 17.2373 43.2814 17.2301C43.2778 17.2203 43.2729 17.2119 43.2693 17.202C43.1857 17.0178 43.0997 16.8348 43.0112 16.6541C43.0076 16.6469 43.004 16.6409 43.0004 16.6335C42.907 16.442 42.8113 16.2518 42.7119 16.0639H42.7106C42.7082 16.0578 42.7058 16.0518 42.7021 16.0469C42.6015 15.8554 42.4973 15.6662 42.3917 15.4796L42.3907 15.4784C42.3869 15.4723 42.3834 15.4663 42.381 15.4602C42.2732 15.2724 42.164 15.087 42.0512 14.9027V14.9014C41.9336 14.7086 41.8125 14.5183 41.69 14.3305C41.5651 14.1414 41.438 13.9535 41.307 13.768H41.3058C41.2671 13.7098 41.2246 13.6504 41.1834 13.5922C41.1834 13.5922 41.1834 13.591 41.1821 13.591L40.9034 13.2103H40.9021C40.7639 13.0248 40.6209 12.8418 40.4767 12.6624H40.4754C40.33 12.4794 40.1797 12.2987 40.0269 12.1204C39.8718 11.941 39.7141 11.7629 39.553 11.5884C39.3906 11.4101 39.2232 11.2345 39.0534 11.0622C39.0425 11.0502 39.0304 11.0379 39.0184 11.0257C38.56 11.0296 38.1516 11.4295 37.4643 11.4684C37.3152 11.4769 37.1527 11.4684 36.9733 11.4355C36.7903 11.3932 36.617 11.3227 36.4533 11.2319C36.2242 11.1057 36.0145 10.9385 35.8253 10.7506C35.6555 10.5832 35.5028 10.399 35.3671 10.2111C35.241 10.0391 35.1296 9.86565 35.0336 9.69965C35.0228 9.68022 35.0119 9.66213 35.001 9.6427C34.8737 9.41703 34.7732 9.21114 34.704 9.05101C34.6398 8.90558 34.6011 8.79879 34.5877 8.75167C34.509 8.64612 34.4302 8.55403 34.3537 8.47526C34.1112 8.22564 33.876 8.09693 33.6446 8.02065C33.2421 7.88731 32.8457 7.91025 32.4274 7.73328C32.2153 7.64243 31.9971 7.50061 31.7692 7.26059C31.7607 7.25087 31.751 7.24003 31.7402 7.23019C31.6128 7.09075 31.4818 6.91977 31.3474 6.71004C31.2393 6.5428 31.1304 6.35126 31.0176 6.12943C30.9788 6.05191 30.9376 5.96953 30.8975 5.88331C30.6987 5.81076 30.4988 5.74273 30.2962 5.67719C29.9313 5.55854 29.5591 5.45175 29.1835 5.35592H29.1822C28.7712 5.24936 28.3555 5.15715 27.9347 5.07839C27.6063 5.01533 27.2765 4.96075 26.9432 4.91589H26.9419C26.7977 4.89532 26.6534 4.87577 26.508 4.86007H26.5068C26.1722 4.82018 25.8363 4.78854 25.4995 4.76673H25.4971C25.2728 4.74865 25.0461 4.73655 24.8206 4.72808C24.4278 4.71215 24.0338 4.70853 23.6411 4.7135H23.6375C23.315 4.71836 22.9938 4.72921 22.6726 4.74876H22.6713C21.7476 4.8021 20.8275 4.91239 19.9256 5.0785C19.922 5.07952 19.9183 5.07952 19.9147 5.08087C19.6129 5.13794 19.3134 5.19975 19.0165 5.26869C19.0152 5.26869 19.014 5.26869 19.0127 5.26993C19.0116 5.26993 19.0104 5.26993 19.0092 5.27117C19.008 5.27117 19.0067 5.27117 19.0054 5.27219C19.0044 5.27219 19.0018 5.27343 19.0006 5.27343C17.9168 5.52441 16.867 5.85529 15.8694 6.27238C15.7482 6.32334 15.6282 6.37431 15.5094 6.42753C15.507 6.42878 15.5058 6.42878 15.5034 6.42991C15.5022 6.42991 15.5022 6.43115 15.5009 6.43115C15.3773 6.48697 15.2513 6.54257 15.1301 6.60077C15.153 6.81773 15.1676 7.00939 15.1748 7.179C15.1761 7.19595 15.1772 7.21302 15.1772 7.22873C15.1869 7.49304 15.1797 7.70153 15.1615 7.86889C15.1591 7.88821 15.1567 7.90776 15.1542 7.92584C15.1033 8.30158 14.9931 8.45198 14.9081 8.56589C14.7591 8.78896 12.2254 9.04954 11.8896 9.45929C11.8084 9.56484 11.7333 9.64123 11.6641 9.69943C11.6266 9.73208 11.5902 9.75762 11.5563 9.77943L11.2399 9.9017C11.2387 9.9017 11.2363 9.90294 11.2338 9.90294C11.1756 9.91865 11.12 9.93696 11.0642 9.96837L11.063 9.96962C10.9188 10.0532 10.7733 10.2352 10.5854 10.7345C10.5745 10.7672 10.555 10.8012 10.5283 10.8365V10.8376C10.2218 11.2583 9.00461 11.8571 8.83375 11.9942C8.81059 12.0123 8.77431 12.0572 8.72459 12.1227V12.1239C8.58402 12.3118 8.34524 12.6645 8.07008 13.0294V13.0306C7.94035 13.2016 7.80215 13.3761 7.6627 13.5372C7.49896 13.724 7.3342 13.8924 7.17656 14.0161C7.02265 14.1374 6.87597 14.2174 6.74625 14.2306C6.0384 14.3048 5.96325 14.5665 5.92573 14.752C5.91963 14.7883 5.87714 14.8138 5.81171 14.8319C5.72933 14.9665 5.64808 15.1011 5.56796 15.238C5.40445 15.5157 5.24805 15.797 5.09776 16.083V16.0842C5.09166 16.0938 5.0868 16.1035 5.08205 16.1134C4.94385 16.3751 4.81163 16.6419 4.68439 16.9109C4.55828 17.1776 4.43827 17.4478 4.32312 17.7207C4.21294 17.9826 4.1074 18.2469 4.00807 18.5147H4.00683C3.96208 18.6336 3.91834 18.7536 3.87585 18.8747V20.6287L6.12224 19.8844C6.12224 19.8844 6.12337 19.8856 6.12462 19.8844C6.13433 19.8869 6.14518 19.8893 6.15626 19.8905C6.15863 19.8844 6.15987 19.8784 6.16225 19.8723C6.2531 19.608 6.35017 19.3462 6.45334 19.0868C6.55866 18.8165 6.67144 18.5499 6.79032 18.2855C6.91394 18.0079 7.04616 17.7339 7.18312 17.4636H7.18436C7.32855 17.1788 7.48009 16.8986 7.63762 16.6236H7.63886L7.66304 16.6151V16.5798C7.81944 16.3108 7.98194 16.0452 8.15031 15.7859C8.15517 15.7762 8.16127 15.7678 8.16862 15.7593V15.7581C8.35778 15.466 8.55418 15.1799 8.76008 14.8997C8.76008 14.8973 8.76132 14.8961 8.76392 14.8949C8.77115 14.884 8.77838 14.8732 8.78686 14.8634C9.01953 14.5445 9.26328 14.2344 9.5155 13.9325C9.51652 13.9325 9.51652 13.9313 9.51652 13.9313C9.72264 13.6852 9.93474 13.4451 10.1518 13.2101C10.2331 13.1229 10.3131 13.0366 10.3956 12.9518L10.3968 12.9506H10.3981C10.6488 12.6887 10.9083 12.4342 11.175 12.1869C11.2794 12.09 11.3859 11.9931 11.4938 11.8986C11.4938 11.8986 11.4938 11.8973 11.4951 11.8973C11.9654 11.4815 12.4577 11.0876 12.9691 10.7203V10.7191C13.4758 10.3542 14.002 10.0136 14.545 9.69954C14.8408 9.52732 15.1403 9.36494 15.4457 9.21103C15.4457 9.20978 15.4469 9.20978 15.4469 9.20978C17.0883 8.37582 18.8691 7.7769 20.7443 7.45699H20.7479C21.6885 7.29574 22.6525 7.20477 23.6343 7.19143C23.7253 7.19019 23.8174 7.18906 23.9095 7.18906C24.4514 7.18906 24.9871 7.212 25.5181 7.25811C26.0272 7.30048 26.5304 7.36489 27.0274 7.44965C27.4625 7.52118 27.8927 7.60966 28.3171 7.71272C28.6783 7.79883 29.0359 7.89691 29.3876 8.00607C29.4105 8.01218 29.4324 8.01817 29.4542 8.02664C29.8009 8.13343 30.1428 8.24971 30.481 8.37695C30.7962 8.49583 31.1077 8.62194 31.4155 8.75766C31.7078 8.88501 31.9951 9.0196 32.2787 9.16142H32.28C32.5503 9.29713 32.817 9.43895 33.0788 9.58812C33.1443 9.62315 33.2098 9.66078 33.2752 9.69954C33.462 9.8061 33.6449 9.9165 33.8268 10.0317C34.0633 10.1783 34.296 10.3311 34.525 10.49C34.7468 10.6427 34.9663 10.8002 35.1808 10.9628C35.3905 11.1191 35.5966 11.2815 35.7979 11.4488C35.9954 11.6101 36.1881 11.7762 36.3785 11.9458L36.3796 11.9471C36.5664 12.112 36.7481 12.2817 36.9276 12.4549V12.4561C37.1034 12.6247 37.2768 12.7968 37.4441 12.9737H37.4451V12.9749C37.6125 13.1482 37.7749 13.324 37.9336 13.5035C38.0453 13.6296 38.1555 13.7569 38.2635 13.8854V13.8866C38.3082 13.9376 38.3507 13.9883 38.393 14.0406C38.5409 14.22 38.6853 14.403 38.8259 14.5885C38.9665 14.7702 39.1023 14.9545 39.2344 15.1424C39.3654 15.328 39.4938 15.5172 39.6186 15.7073H39.6199C39.7398 15.8929 39.8586 16.0808 39.9726 16.2711C39.975 16.2736 39.9764 16.276 39.9774 16.2784C40.0927 16.4688 40.2041 16.6603 40.3109 16.8553C40.3109 16.8553 40.3133 16.8566 40.312 16.8578C40.4198 17.0481 40.523 17.2409 40.6224 17.436C40.6237 17.4384 40.6248 17.4408 40.6261 17.4433C40.7244 17.6359 40.8201 17.8312 40.9109 18.0287C40.9133 18.0311 40.9145 18.0348 40.9158 18.0384C41.009 18.2373 41.0987 18.4373 41.1837 18.6397C41.2697 18.8409 41.3509 19.0434 41.4298 19.2471C41.5086 19.4519 41.5825 19.6581 41.6528 19.8653C41.7256 20.0714 41.7922 20.2787 41.8565 20.4872C41.9196 20.6956 41.9789 20.9054 42.0346 21.1175H42.0359C42.0916 21.3285 42.1448 21.5418 42.1934 21.7563C42.2431 21.9696 42.288 22.1843 42.3291 22.4013C42.3316 22.411 42.3329 22.4219 42.3352 22.4317C42.8093 22.4741 43.1231 22.5056 43.1231 22.5056C43.0772 22.393 43.054 22.2802 43.0504 22.1625C43.0419 21.9395 43.1025 21.7008 43.2152 21.4182C43.3086 21.1819 43.4395 20.914 43.5959 20.6012C43.7184 20.3562 43.8553 20.0846 44.0033 19.7768H44.0043C44.0504 19.6811 44.0977 19.5804 44.1463 19.4775C44.1038 19.3453 44.0602 19.2145 44.0154 19.0834C43.9451 18.8762 43.871 18.6701 43.7935 18.4652L43.7931 18.4653Z" fill="#FF6E4A"/>
<path d="M38.673 49.1471C37.6679 49.7895 36.6195 50.3678 35.5308 50.8769L35.5296 50.8782C35.0858 51.0854 34.6362 51.2806 34.1803 51.4649C32.6566 52.0807 31.0661 52.562 29.4236 52.8978C29.2769 52.9282 29.1302 52.956 28.9835 52.9839C29.0041 52.996 29.0247 53.0094 29.0466 53.0225C29.2417 53.1462 29.4575 53.3136 29.6769 53.5038C29.8612 53.6602 30.0478 53.8335 30.2285 54.0105C30.4066 54.184 30.58 54.362 30.74 54.5317C30.7424 54.5342 30.746 54.5378 30.7484 54.5414C30.9195 54.7231 31.0745 54.8953 31.2031 55.0446H31.277L31.5315 54.9597H31.5339C32.734 54.6433 33.905 54.2554 35.0409 53.7996C35.0422 53.7996 35.0422 53.7984 35.0434 53.7984C35.5889 53.5789 36.1271 53.3449 36.657 53.0953C36.5695 52.9692 36.4981 52.8675 36.4519 52.8068C36.4253 52.7718 36.3986 52.7256 36.3731 52.6686C36.3731 52.6686 36.372 52.6673 36.3731 52.6662C36.3028 52.5111 36.2423 52.2843 36.195 52.037C36.161 51.8504 36.1332 51.6517 36.1174 51.4649C36.115 51.4347 36.1127 51.4043 36.1114 51.3753C36.0896 51.0697 36.1006 50.8031 36.1539 50.683C36.1563 50.6783 36.1599 50.6734 36.1636 50.6685V50.6673C36.5102 50.1461 38.7081 49.8418 38.8245 49.0975L38.8294 49.0962V49.095V49.0479C38.7784 49.0805 38.7274 49.1133 38.6753 49.1459C38.6753 49.1472 38.6742 49.1472 38.673 49.1472V49.1471Z" fill="#FF6E4A"/>
<path d="M38.3323 55.4712C38.3141 55.4033 38.296 55.3342 38.2777 55.2627C37.6752 55.5597 37.0632 55.8372 36.44 56.0967C36.4387 56.0967 36.4387 56.0979 36.4376 56.0979L34.7683 56.6495V56.7403C35.0957 56.841 35.4192 56.9367 35.7284 57.0228C36.1672 57.1452 36.5721 57.2494 36.9031 57.3234C37.3213 57.4156 37.6206 57.4591 37.7189 57.4287C38.0438 57.2408 38.2426 57.0494 38.3553 56.8434C38.4754 56.6203 38.4961 56.3827 38.4657 56.1171C38.4437 55.9183 38.3918 55.705 38.3323 55.4711V55.4712Z" fill="#FF6E4A"/>
<path d="M44.1013 22.5055H44.1461V22.4897C44.1448 22.4909 44.1425 22.4921 44.1376 22.4921L44.1013 22.5055Z" fill="#FF6E4A"/>
<path d="M39.1454 16.5536C39.1541 16.5499 39.1628 16.5474 39.1716 16.5449L39.1454 16.5523V16.5536Z" fill="#FF6E4A"/>
<path d="M17.4661 47.1927C17.4975 47.1819 17.5291 47.1709 17.5619 47.1587L17.4648 47.1903V47.1915L17.4661 47.1927Z" fill="#FF6E4A"/>
<path d="M5.85035 31.0183C5.79091 30.8086 5.7352 30.5977 5.68424 30.3843C5.66367 30.3019 5.64412 30.2181 5.6248 30.1357C5.60785 30.2037 5.58491 30.2474 5.55327 30.2582C5.3302 30.3321 5.06837 30.2207 5.06837 30.2207C5.08046 30.3407 5.07922 30.4655 5.066 30.5892C5.03922 30.8511 4.96045 31.1129 4.84779 31.3504C4.77264 31.5092 4.6828 31.656 4.58472 31.7833C4.58472 31.7833 4.83434 31.8428 5.18962 31.9275C5.48535 31.998 5.85521 32.0853 6.21524 32.17C6.15331 31.9968 6.09512 31.8222 6.03941 31.6465C5.97273 31.439 5.90968 31.2295 5.85024 31.0185L5.85035 31.0183Z" fill="#FF6E4A"/>
</g>
<defs>
<clipPath id="clip0_93_1012">
<rect width="47.1877" height="57.0111" fill="white" transform="translate(0.00012207 0.427246)"/>
</clipPath>
</defs>
</svg>
