<svg width="11" height="10" viewBox="0 0 11 10" fill="none" xmlns="http://www.w3.org/2000/svg">
<path fill-rule="evenodd" clip-rule="evenodd" d="M0 9.99994C0.00510757 9.99998 0.0102196 10 0.015336 10C1.14299 10 2.05713 9.08586 2.05713 7.95821V2.04179C2.05713 0.914142 1.14299 0 0.015336 0C0.0102196 0 0.00510757 1.88191e-05 0 5.63918e-05V9.99994Z" fill="white"/>
<path d="M8 2.21539C8 0.991862 8.99186 0 10.2154 0V0V4.78462C10.2154 6.00814 9.22352 7 8 7V7V2.21539Z" fill="white"/>
<path d="M5.16919 7.45136C5.16919 8.67489 6.16105 9.66675 7.38457 9.66675V9.66675V6.5488C7.38457 5.32528 6.39271 4.33341 5.16919 4.33341V4.33341V7.45136Z" fill="white"/>
<path fill-rule="evenodd" clip-rule="evenodd" d="M4.56006 9.99994C4.55495 9.99998 4.54984 10 4.54472 10C3.41707 10 2.50293 9.08586 2.50293 7.95821V2.04179C2.50293 0.914142 3.41707 0 4.54472 0C4.54984 0 4.55495 1.88191e-05 4.56006 5.63918e-05V9.99994Z" fill="white"/>
</svg>
