<svg width="18" height="18" viewBox="0 0 18 18" fill="none" xmlns="http://www.w3.org/2000/svg">
<path fill-rule="evenodd" clip-rule="evenodd" d="M0 17.9999C0.00959935 18 0.0192071 18 0.0288231 18C2.14317 18 3.85718 16.286 3.85718 14.1716V3.82836C3.85718 1.71402 2.14317 0 0.0288231 0C0.0192071 0 0.00959935 3.54532e-05 0 0.000106236V17.9999Z" fill="white"/>
<path d="M14.0784 2.82857C14.0784 1.26639 15.3448 0 16.9069 0H17.9998V9.94959C17.9998 11.5118 16.7334 12.7782 15.1712 12.7782H14.0784V2.82857Z" fill="white"/>
<path d="M9.38574 13.8352C9.38574 15.9655 11.1126 17.6924 13.2429 17.6924V17.6924V11.5359C13.2429 9.40563 11.516 7.67873 9.38574 7.67873V7.67873V13.8352Z" fill="white"/>
<path fill-rule="evenodd" clip-rule="evenodd" d="M8.5498 17.9999C8.54021 18 8.5306 18 8.52098 18C6.40664 18 4.69262 16.286 4.69262 14.1716V3.82836C4.69262 1.71402 6.40664 0 8.52098 0C8.5306 0 8.54021 3.54538e-05 8.5498 0.000106238V17.9999Z" fill="white"/>
</svg>
