<svg width="320" height="320" viewBox="0 0 320 320" fill="none" xmlns="http://www.w3.org/2000/svg">
<g clip-path="url(#clip0_47_1007)">
<rect width="320" height="320" rx="16" fill="black"/>
<line x1="23.5" y1="300.5" x2="283.5" y2="300.5" stroke="#E6E6E6" stroke-opacity="0.1"/>
<line x1="23.5" y1="266.214" x2="283.5" y2="266.214" stroke="#E6E6E6" stroke-opacity="0.1"/>
<line x1="23.5" y1="231.929" x2="283.5" y2="231.929" stroke="#E6E6E6" stroke-opacity="0.1"/>
<line x1="23.5" y1="197.643" x2="283.5" y2="197.643" stroke="#E6E6E6" stroke-opacity="0.1"/>
<line x1="23.5" y1="163.357" x2="283.5" y2="163.357" stroke="#E6E6E6" stroke-opacity="0.1"/>
<line x1="23.5" y1="129.071" x2="283.5" y2="129.071" stroke="#E6E6E6" stroke-opacity="0.1"/>
<line x1="23.5" y1="94.7856" x2="283.5" y2="94.7856" stroke="#E6E6E6" stroke-opacity="0.1"/>
<line x1="23.5" y1="60.5" x2="283.5" y2="60.5" stroke="#E6E6E6" stroke-opacity="0.1"/>
<circle cx="23.5" cy="194.714" r="4" fill="#8EA26A"/>
<path d="M25.0497 214.139C24.3073 214.139 23.6461 214.012 23.0661 213.756C22.4893 213.498 22.0336 213.143 21.6989 212.692C21.3674 212.238 21.1967 211.715 21.1868 211.121H23.3544C23.3677 211.37 23.4489 211.589 23.598 211.778C23.7505 211.963 23.9527 212.107 24.2045 212.21C24.4564 212.313 24.7398 212.364 25.0547 212.364C25.3828 212.364 25.6728 212.306 25.9247 212.19C26.1766 212.074 26.3738 211.914 26.5163 211.708C26.6589 211.503 26.7301 211.266 26.7301 210.997C26.7301 210.725 26.6539 210.485 26.5014 210.276C26.3523 210.064 26.1368 209.898 25.8551 209.779C25.5767 209.66 25.2453 209.6 24.8608 209.6H23.9112V208.019H24.8608C25.1856 208.019 25.4723 207.963 25.7209 207.85C25.9728 207.737 26.1683 207.582 26.3075 207.383C26.4467 207.181 26.5163 206.945 26.5163 206.677C26.5163 206.422 26.455 206.198 26.3324 206.006C26.2131 205.81 26.044 205.658 25.8253 205.548C25.6098 205.439 25.358 205.384 25.0696 205.384C24.7779 205.384 24.5111 205.437 24.2692 205.543C24.0272 205.646 23.8333 205.794 23.6875 205.986C23.5417 206.178 23.4638 206.403 23.4538 206.662H21.3906C21.4006 206.075 21.5679 205.558 21.8928 205.111C22.2176 204.663 22.6551 204.314 23.2053 204.062C23.7588 203.807 24.3835 203.679 25.0795 203.679C25.7822 203.679 26.397 203.807 26.924 204.062C27.451 204.317 27.8603 204.662 28.152 205.096C28.447 205.527 28.5928 206.011 28.5895 206.548C28.5928 207.118 28.4155 207.593 28.0575 207.974C27.7029 208.356 27.2405 208.598 26.6705 208.7V208.78C27.4195 208.876 27.9896 209.136 28.3807 209.56C28.7751 209.981 28.9706 210.508 28.9673 211.141C28.9706 211.721 28.8033 212.237 28.4652 212.688C28.1304 213.138 27.6681 213.493 27.0781 213.751C26.4882 214.01 25.812 214.139 25.0497 214.139ZM34.9444 203.818V214H32.7917V205.862H32.7321L30.4004 207.323V205.414L32.921 203.818H34.9444Z" fill="#323232"/>
<path d="M16.2763 220.273V229H15.2195V221.381H15.1683L13.0376 222.795V221.722L15.2195 220.273H16.2763ZM21.6839 229.119C21.326 229.114 20.968 229.045 20.6101 228.915C20.2521 228.784 19.9254 228.564 19.63 228.254C19.3345 227.942 19.0973 227.52 18.9183 226.989C18.7393 226.455 18.6499 225.784 18.6499 224.977C18.6499 224.205 18.7223 223.52 18.8672 222.923C19.0121 222.324 19.2223 221.82 19.4979 221.411C19.7734 220.999 20.1058 220.686 20.495 220.473C20.8871 220.26 21.3288 220.153 21.8203 220.153C22.3089 220.153 22.7436 220.251 23.1243 220.447C23.5078 220.641 23.8203 220.911 24.0618 221.257C24.3033 221.604 24.4595 222.003 24.5305 222.455H23.4908C23.3942 222.062 23.2067 221.737 22.9283 221.479C22.6499 221.22 22.2805 221.091 21.8203 221.091C21.1442 221.091 20.6115 221.385 20.2223 221.973C19.8359 222.561 19.6413 223.386 19.6385 224.449H19.7067C19.8658 224.207 20.0547 224.001 20.2734 223.831C20.495 223.658 20.7393 223.524 21.0064 223.43C21.2734 223.337 21.5561 223.29 21.8544 223.29C22.3544 223.29 22.8118 223.415 23.2266 223.665C23.6413 223.912 23.9737 224.254 24.2237 224.692C24.4737 225.126 24.5987 225.625 24.5987 226.188C24.5987 226.727 24.478 227.222 24.2365 227.67C23.995 228.116 23.6555 228.472 23.218 228.736C22.7834 228.997 22.272 229.125 21.6839 229.119ZM21.6839 228.182C22.0419 228.182 22.3629 228.092 22.647 227.913C22.9339 227.734 23.1598 227.494 23.3246 227.193C23.4922 226.892 23.576 226.557 23.576 226.188C23.576 225.827 23.495 225.499 23.3331 225.203C23.174 224.905 22.9538 224.668 22.6726 224.491C22.3942 224.315 22.076 224.227 21.718 224.227C21.4482 224.227 21.1967 224.281 20.9638 224.389C20.7308 224.494 20.5263 224.639 20.3501 224.824C20.1768 225.009 20.0405 225.22 19.9411 225.459C19.8416 225.695 19.7919 225.943 19.7919 226.205C19.7919 226.551 19.8729 226.875 20.0348 227.176C20.1996 227.477 20.424 227.72 20.7081 227.905C20.995 228.089 21.3203 228.182 21.6839 228.182ZM26.6143 229.068C26.4041 229.068 26.2237 228.993 26.0732 228.842C25.9226 228.692 25.8473 228.511 25.8473 228.301C25.8473 228.091 25.9226 227.911 26.0732 227.76C26.2237 227.609 26.4041 227.534 26.6143 227.534C26.8246 227.534 27.005 227.609 27.1555 227.76C27.3061 227.911 27.3814 228.091 27.3814 228.301C27.3814 228.44 27.3459 228.568 27.2749 228.685C27.2067 228.801 27.1143 228.895 26.9979 228.966C26.8842 229.034 26.7564 229.068 26.6143 229.068ZM29.266 229L33.1694 221.278V221.21H28.6694V220.273H34.2603V221.261L30.3739 229H29.266ZM40.2976 227.364V226.903C40.2976 226.585 40.3629 226.294 40.4936 226.03C40.6271 225.763 40.8203 225.55 41.0732 225.391C41.3288 225.229 41.6385 225.148 42.0021 225.148C42.3714 225.148 42.6811 225.229 42.9311 225.391C43.1811 225.55 43.37 225.763 43.4979 226.03C43.6257 226.294 43.6896 226.585 43.6896 226.903V227.364C43.6896 227.682 43.6243 227.974 43.4936 228.241C43.3658 228.506 43.1754 228.719 42.9226 228.881C42.6726 229.04 42.3658 229.119 42.0021 229.119C41.6328 229.119 41.3217 229.04 41.0689 228.881C40.8161 228.719 40.6243 228.506 40.4936 228.241C40.3629 227.974 40.2976 227.682 40.2976 227.364ZM41.1669 226.903V227.364C41.1669 227.628 41.2294 227.865 41.3544 228.075C41.4794 228.283 41.6953 228.386 42.0021 228.386C42.3004 228.386 42.5107 228.283 42.6328 228.075C42.7578 227.865 42.8203 227.628 42.8203 227.364V226.903C42.8203 226.639 42.7607 226.403 42.6413 226.196C42.522 225.986 42.3089 225.881 42.0021 225.881C41.7038 225.881 41.4893 225.986 41.3587 226.196C41.2308 226.403 41.1669 226.639 41.1669 226.903ZM35.951 222.369V221.909C35.951 221.591 36.0163 221.3 36.147 221.036C36.2805 220.768 36.4737 220.555 36.7266 220.396C36.9822 220.234 37.2919 220.153 37.6555 220.153C38.0249 220.153 38.3345 220.234 38.5845 220.396C38.8345 220.555 39.0234 220.768 39.1513 221.036C39.2791 221.3 39.343 221.591 39.343 221.909V222.369C39.343 222.687 39.2777 222.98 39.147 223.247C39.0192 223.511 38.8288 223.724 38.576 223.886C38.326 224.045 38.0192 224.125 37.6555 224.125C37.2862 224.125 36.9751 224.045 36.7223 223.886C36.4695 223.724 36.2777 223.511 36.147 223.247C36.0163 222.98 35.951 222.687 35.951 222.369ZM36.8203 221.909V222.369C36.8203 222.634 36.8828 222.871 37.0078 223.081C37.1328 223.288 37.3487 223.392 37.6555 223.392C37.9538 223.392 38.1641 223.288 38.2862 223.081C38.4112 222.871 38.4737 222.634 38.4737 222.369V221.909C38.4737 221.645 38.4141 221.409 38.2947 221.202C38.1754 220.991 37.9624 220.886 37.6555 220.886C37.3572 220.886 37.1428 220.991 37.0121 221.202C36.8842 221.409 36.8203 221.645 36.8203 221.909ZM36.2749 229L42.2749 220.273H43.2464L37.2464 229H36.2749Z" fill="#767676"/>
<circle cx="110.167" cy="174.143" r="4" fill="#8EA26A"/>
<path d="M105.978 148.282C105.236 148.282 104.575 148.155 103.995 147.899C103.418 147.641 102.962 147.286 102.627 146.836C102.296 146.381 102.125 145.858 102.115 145.265H104.283C104.296 145.513 104.377 145.732 104.526 145.921C104.679 146.106 104.881 146.251 105.133 146.353C105.385 146.456 105.668 146.507 105.983 146.507C106.311 146.507 106.601 146.449 106.853 146.333C107.105 146.217 107.302 146.057 107.445 145.851C107.587 145.646 107.659 145.409 107.659 145.14C107.659 144.868 107.582 144.628 107.43 144.419C107.281 144.207 107.065 144.042 106.784 143.922C106.505 143.803 106.174 143.743 105.789 143.743H104.84V142.162H105.789C106.114 142.162 106.401 142.106 106.649 141.993C106.901 141.881 107.097 141.725 107.236 141.526C107.375 141.324 107.445 141.088 107.445 140.82C107.445 140.565 107.383 140.341 107.261 140.149C107.142 139.953 106.973 139.801 106.754 139.691C106.538 139.582 106.286 139.527 105.998 139.527C105.706 139.527 105.44 139.58 105.198 139.686C104.956 139.789 104.762 139.937 104.616 140.129C104.47 140.321 104.392 140.546 104.382 140.805H102.319C102.329 140.218 102.496 139.701 102.821 139.254C103.146 138.806 103.584 138.457 104.134 138.205C104.687 137.95 105.312 137.822 106.008 137.822C106.711 137.822 107.325 137.95 107.852 138.205C108.379 138.46 108.789 138.805 109.08 139.239C109.375 139.67 109.521 140.154 109.518 140.691C109.521 141.261 109.344 141.736 108.986 142.117C108.631 142.499 108.169 142.741 107.599 142.843V142.923C108.348 143.019 108.918 143.279 109.309 143.703C109.704 144.124 109.899 144.651 109.896 145.284C109.899 145.864 109.732 146.38 109.394 146.831C109.059 147.281 108.597 147.636 108.007 147.894C107.417 148.153 106.74 148.282 105.978 148.282ZM111.846 148.143L116.067 139.791V139.721H111.15V137.961H118.294V139.746L114.068 148.143H111.846Z" fill="#323232"/>
<path d="M97.527 154.416V163.143H96.4702V155.524H96.4191L94.2884 156.939V155.865L96.4702 154.416H97.527ZM102.815 154.296C103.173 154.299 103.531 154.367 103.889 154.501C104.247 154.635 104.574 154.856 104.869 155.166C105.165 155.473 105.402 155.892 105.581 156.423C105.76 156.954 105.849 157.62 105.849 158.421C105.849 159.197 105.776 159.886 105.628 160.488C105.483 161.088 105.273 161.593 104.997 162.005C104.724 162.417 104.392 162.73 104 162.943C103.611 163.156 103.17 163.262 102.679 163.262C102.19 163.262 101.754 163.166 101.371 162.973C100.99 162.777 100.678 162.505 100.433 162.159C100.192 161.809 100.037 161.404 99.9688 160.944H101.009C101.102 161.345 101.288 161.676 101.567 161.937C101.848 162.196 102.219 162.325 102.679 162.325C103.352 162.325 103.884 162.031 104.273 161.443C104.665 160.855 104.861 160.024 104.861 158.95H104.793C104.634 159.189 104.445 159.394 104.226 159.568C104.007 159.741 103.764 159.875 103.497 159.968C103.23 160.062 102.946 160.109 102.645 160.109C102.145 160.109 101.686 159.985 101.268 159.738C100.854 159.488 100.521 159.146 100.271 158.711C100.024 158.274 99.9006 157.774 99.9006 157.211C99.9006 156.677 100.02 156.189 100.259 155.745C100.5 155.299 100.838 154.944 101.273 154.68C101.71 154.416 102.224 154.288 102.815 154.296ZM102.815 155.234C102.457 155.234 102.135 155.323 101.848 155.502C101.564 155.679 101.338 155.917 101.17 156.218C101.006 156.517 100.923 156.848 100.923 157.211C100.923 157.575 101.003 157.906 101.162 158.204C101.324 158.5 101.544 158.735 101.822 158.912C102.104 159.085 102.423 159.171 102.781 159.171C103.051 159.171 103.303 159.119 103.536 159.014C103.768 158.906 103.972 158.76 104.145 158.575C104.321 158.387 104.459 158.176 104.558 157.94C104.658 157.701 104.707 157.453 104.707 157.194C104.707 156.853 104.625 156.534 104.46 156.235C104.298 155.937 104.074 155.696 103.787 155.511C103.503 155.326 103.179 155.234 102.815 155.234ZM107.971 163.211C107.76 163.211 107.58 163.136 107.429 162.985C107.279 162.835 107.204 162.654 107.204 162.444C107.204 162.234 107.279 162.054 107.429 161.903C107.58 161.752 107.76 161.677 107.971 161.677C108.181 161.677 108.361 161.752 108.512 161.903C108.662 162.054 108.738 162.234 108.738 162.444C108.738 162.583 108.702 162.711 108.631 162.828C108.563 162.944 108.471 163.038 108.354 163.109C108.24 163.177 108.113 163.211 107.971 163.211ZM113.222 154.296C113.58 154.299 113.938 154.367 114.295 154.501C114.653 154.635 114.98 154.856 115.276 155.166C115.571 155.473 115.808 155.892 115.987 156.423C116.166 156.954 116.256 157.62 116.256 158.421C116.256 159.197 116.182 159.886 116.034 160.488C115.889 161.088 115.679 161.593 115.403 162.005C115.131 162.417 114.798 162.73 114.406 162.943C114.017 163.156 113.577 163.262 113.085 163.262C112.597 163.262 112.161 163.166 111.777 162.973C111.396 162.777 111.084 162.505 110.84 162.159C110.598 161.809 110.443 161.404 110.375 160.944H111.415C111.509 161.345 111.695 161.676 111.973 161.937C112.254 162.196 112.625 162.325 113.085 162.325C113.759 162.325 114.29 162.031 114.679 161.443C115.071 160.855 115.267 160.024 115.267 158.95H115.199C115.04 159.189 114.851 159.394 114.632 159.568C114.413 159.741 114.17 159.875 113.903 159.968C113.636 160.062 113.352 160.109 113.051 160.109C112.551 160.109 112.092 159.985 111.675 159.738C111.26 159.488 110.928 159.146 110.678 158.711C110.43 158.274 110.307 157.774 110.307 157.211C110.307 156.677 110.426 156.189 110.665 155.745C110.906 155.299 111.244 154.944 111.679 154.68C112.116 154.416 112.631 154.288 113.222 154.296ZM113.222 155.234C112.864 155.234 112.541 155.323 112.254 155.502C111.97 155.679 111.744 155.917 111.577 156.218C111.412 156.517 111.33 156.848 111.33 157.211C111.33 157.575 111.409 157.906 111.568 158.204C111.73 158.5 111.95 158.735 112.229 158.912C112.51 159.085 112.83 159.171 113.188 159.171C113.457 159.171 113.709 159.119 113.942 159.014C114.175 158.906 114.378 158.76 114.551 158.575C114.727 158.387 114.865 158.176 114.965 157.94C115.064 157.701 115.114 157.453 115.114 157.194C115.114 156.853 115.031 156.534 114.866 156.235C114.705 155.937 114.48 155.696 114.193 155.511C113.909 155.326 113.585 155.234 113.222 155.234ZM122.38 161.507V161.046C122.38 160.728 122.446 160.437 122.576 160.173C122.71 159.906 122.903 159.693 123.156 159.534C123.412 159.372 123.721 159.291 124.085 159.291C124.454 159.291 124.764 159.372 125.014 159.534C125.264 159.693 125.453 159.906 125.581 160.173C125.708 160.437 125.772 160.728 125.772 161.046V161.507C125.772 161.825 125.707 162.117 125.576 162.385C125.449 162.649 125.258 162.862 125.005 163.024C124.755 163.183 124.449 163.262 124.085 163.262C123.716 163.262 123.404 163.183 123.152 163.024C122.899 162.862 122.707 162.649 122.576 162.385C122.446 162.117 122.38 161.825 122.38 161.507ZM123.25 161.046V161.507C123.25 161.771 123.312 162.008 123.437 162.218C123.562 162.426 123.778 162.529 124.085 162.529C124.383 162.529 124.593 162.426 124.716 162.218C124.841 162.008 124.903 161.771 124.903 161.507V161.046C124.903 160.782 124.843 160.546 124.724 160.339C124.605 160.129 124.392 160.024 124.085 160.024C123.787 160.024 123.572 160.129 123.441 160.339C123.314 160.546 123.25 160.782 123.25 161.046ZM118.034 156.512V156.052C118.034 155.734 118.099 155.443 118.23 155.179C118.363 154.912 118.556 154.698 118.809 154.539C119.065 154.377 119.375 154.296 119.738 154.296C120.108 154.296 120.417 154.377 120.667 154.539C120.917 154.698 121.106 154.912 121.234 155.179C121.362 155.443 121.426 155.734 121.426 156.052V156.512C121.426 156.831 121.36 157.123 121.23 157.39C121.102 157.654 120.912 157.867 120.659 158.029C120.409 158.189 120.102 158.268 119.738 158.268C119.369 158.268 119.058 158.189 118.805 158.029C118.552 157.867 118.36 157.654 118.23 157.39C118.099 157.123 118.034 156.831 118.034 156.512ZM118.903 156.052V156.512C118.903 156.777 118.966 157.014 119.091 157.224C119.216 157.431 119.431 157.535 119.738 157.535C120.037 157.535 120.247 157.431 120.369 157.224C120.494 157.014 120.556 156.777 120.556 156.512V156.052C120.556 155.788 120.497 155.552 120.378 155.345C120.258 155.135 120.045 155.029 119.738 155.029C119.44 155.029 119.226 155.135 119.095 155.345C118.967 155.552 118.903 155.788 118.903 156.052ZM118.358 163.143L124.358 154.416H125.329L119.329 163.143H118.358Z" fill="#767676"/>
<circle cx="196.833" cy="115.857" r="4" fill="#8EA26A"/>
<path d="M192.121 89.9961C191.419 89.9961 190.792 89.8669 190.242 89.6084C189.695 89.3498 189.261 88.9935 188.94 88.5395C188.618 88.0854 188.451 87.565 188.437 86.9784H190.526C190.549 87.3728 190.714 87.6926 191.023 87.9379C191.331 88.1832 191.697 88.3058 192.121 88.3058C192.459 88.3058 192.758 88.2312 193.016 88.0821C193.278 87.9296 193.482 87.7191 193.628 87.4507C193.777 87.1789 193.852 86.8674 193.852 86.516C193.852 86.1581 193.775 85.8432 193.623 85.5714C193.474 85.2996 193.267 85.0875 193.001 84.9351C192.736 84.7826 192.433 84.7047 192.092 84.7014C191.793 84.7014 191.503 84.7627 191.222 84.8853C190.943 85.008 190.726 85.1754 190.57 85.3875L188.656 85.0444L189.138 79.6751H195.363V81.4351H190.913L190.65 83.9855H190.709C190.888 83.7336 191.159 83.5248 191.52 83.3591C191.881 83.1933 192.285 83.1105 192.733 83.1105C193.346 83.1105 193.893 83.2547 194.374 83.543C194.854 83.8314 195.234 84.2274 195.512 84.7312C195.79 85.2317 195.928 85.8084 195.925 86.4613C195.928 87.1474 195.769 87.7573 195.447 88.2909C195.129 88.8212 194.683 89.2388 194.11 89.5437C193.54 89.8453 192.877 89.9961 192.121 89.9961ZM197.272 88.0672V86.3718L201.523 79.6751H202.984V82.0217H202.119L199.44 86.2625V86.342H205.48V88.0672H197.272ZM202.159 89.8569V87.5501L202.199 86.7994V79.6751H204.217V89.8569H202.159Z" fill="#323232"/>
<path d="M180.387 104.857V104.09L183.268 100.936C183.606 100.567 183.884 100.246 184.103 99.9734C184.322 99.6978 184.484 99.4393 184.589 99.1978C184.697 98.9535 184.751 98.6978 184.751 98.4308C184.751 98.124 184.677 97.8584 184.529 97.6339C184.384 97.4095 184.185 97.2362 183.933 97.114C183.68 96.9919 183.396 96.9308 183.08 96.9308C182.745 96.9308 182.452 97.0004 182.202 97.1396C181.955 97.276 181.763 97.4677 181.627 97.7149C181.494 97.962 181.427 98.2518 181.427 98.5842H180.421C180.421 98.0728 180.539 97.624 180.775 97.2376C181.011 96.8513 181.332 96.5501 181.738 96.3342C182.147 96.1183 182.606 96.0103 183.114 96.0103C183.626 96.0103 184.079 96.1183 184.474 96.3342C184.869 96.5501 185.178 96.8413 185.403 97.2078C185.627 97.5743 185.739 97.9819 185.739 98.4308C185.739 98.7518 185.681 99.0657 185.565 99.3726C185.451 99.6765 185.252 100.016 184.968 100.391C184.687 100.763 184.296 101.218 183.796 101.755L181.836 103.851V103.919H185.893V104.857H180.387ZM190.431 96.0103C190.789 96.0132 191.147 96.0814 191.505 96.2149C191.863 96.3484 192.19 96.57 192.485 96.8797C192.781 97.1865 193.018 97.6055 193.197 98.1368C193.376 98.668 193.465 99.3342 193.465 100.135C193.465 100.911 193.391 101.6 193.244 102.202C193.099 102.802 192.888 103.307 192.613 103.719C192.34 104.131 192.008 104.444 191.616 104.657C191.227 104.87 190.786 104.976 190.295 104.976C189.806 104.976 189.37 104.88 188.986 104.686C188.606 104.49 188.293 104.219 188.049 103.873C187.808 103.523 187.653 103.118 187.584 102.658H188.624C188.718 103.059 188.904 103.39 189.183 103.651C189.464 103.909 189.834 104.039 190.295 104.039C190.968 104.039 191.499 103.745 191.888 103.157C192.281 102.569 192.477 101.738 192.477 100.664H192.408C192.249 100.902 192.06 101.108 191.842 101.282C191.623 101.455 191.38 101.588 191.113 101.682C190.846 101.776 190.562 101.823 190.261 101.823C189.761 101.823 189.302 101.699 188.884 101.452C188.469 101.202 188.137 100.86 187.887 100.425C187.64 99.9876 187.516 99.4876 187.516 98.9251C187.516 98.391 187.636 97.9024 187.874 97.4592C188.116 97.0132 188.454 96.6581 188.888 96.3939C189.326 96.1297 189.84 96.0018 190.431 96.0103ZM190.431 96.9478C190.073 96.9478 189.751 97.0373 189.464 97.2163C189.18 97.3924 188.954 97.6311 188.786 97.9322C188.621 98.2305 188.539 98.5615 188.539 98.9251C188.539 99.2888 188.619 99.6197 188.778 99.918C188.94 100.213 189.16 100.449 189.438 100.625C189.719 100.799 190.039 100.885 190.397 100.885C190.667 100.885 190.918 100.833 191.151 100.728C191.384 100.62 191.587 100.473 191.761 100.289C191.937 100.101 192.075 99.8896 192.174 99.6538C192.273 99.4152 192.323 99.1666 192.323 98.9081C192.323 98.5672 192.241 98.2476 192.076 97.9493C191.914 97.651 191.69 97.4095 191.403 97.2248C191.119 97.0402 190.795 96.9478 190.431 96.9478ZM195.586 104.925C195.376 104.925 195.196 104.85 195.045 104.699C194.895 104.549 194.819 104.368 194.819 104.158C194.819 103.948 194.895 103.767 195.045 103.617C195.196 103.466 195.376 103.391 195.586 103.391C195.796 103.391 195.977 103.466 196.127 103.617C196.278 103.767 196.353 103.948 196.353 104.158C196.353 104.297 196.318 104.425 196.247 104.542C196.179 104.658 196.086 104.752 195.97 104.823C195.856 104.891 195.728 104.925 195.586 104.925ZM200.683 104.976C200.041 104.976 199.494 104.802 199.042 104.452C198.591 104.1 198.245 103.59 198.007 102.922C197.768 102.252 197.649 101.442 197.649 100.493C197.649 99.5501 197.768 98.7447 198.007 98.0771C198.248 97.4066 198.595 96.8953 199.046 96.543C199.501 96.1879 200.046 96.0103 200.683 96.0103C201.319 96.0103 201.863 96.1879 202.315 96.543C202.77 96.8953 203.116 97.4066 203.355 98.0771C203.596 98.7447 203.717 99.5501 203.717 100.493C203.717 101.442 203.598 102.252 203.359 102.922C203.12 103.59 202.775 104.1 202.323 104.452C201.872 104.802 201.325 104.976 200.683 104.976ZM200.683 104.039C201.319 104.039 201.814 103.732 202.166 103.118C202.518 102.505 202.694 101.63 202.694 100.493C202.694 99.7376 202.613 99.0941 202.451 98.5629C202.292 98.0316 202.062 97.6268 201.761 97.3484C201.463 97.07 201.103 96.9308 200.683 96.9308C200.052 96.9308 199.559 97.2419 199.204 97.864C198.849 98.4834 198.671 99.3598 198.671 100.493C198.671 101.249 198.751 101.891 198.91 102.419C199.069 102.948 199.298 103.35 199.596 103.625C199.897 103.901 200.26 104.039 200.683 104.039ZM209.785 103.221V102.76C209.785 102.442 209.85 102.151 209.981 101.887C210.115 101.62 210.308 101.407 210.561 101.248C210.816 101.086 211.126 101.005 211.49 101.005C211.859 101.005 212.169 101.086 212.419 101.248C212.669 101.407 212.858 101.62 212.985 101.887C213.113 102.151 213.177 102.442 213.177 102.76V103.221C213.177 103.539 213.112 103.831 212.981 104.098C212.853 104.363 212.663 104.576 212.41 104.738C212.16 104.897 211.853 104.976 211.49 104.976C211.12 104.976 210.809 104.897 210.556 104.738C210.304 104.576 210.112 104.363 209.981 104.098C209.85 103.831 209.785 103.539 209.785 103.221ZM210.654 102.76V103.221C210.654 103.485 210.717 103.722 210.842 103.932C210.967 104.14 211.183 104.243 211.49 104.243C211.788 104.243 211.998 104.14 212.12 103.932C212.245 103.722 212.308 103.485 212.308 103.221V102.76C212.308 102.496 212.248 102.26 212.129 102.053C212.01 101.843 211.796 101.738 211.49 101.738C211.191 101.738 210.977 101.843 210.846 102.053C210.718 102.26 210.654 102.496 210.654 102.76ZM205.439 98.2263V97.766C205.439 97.4478 205.504 97.1566 205.635 96.8924C205.768 96.6254 205.961 96.4123 206.214 96.2532C206.47 96.0913 206.779 96.0103 207.143 96.0103C207.512 96.0103 207.822 96.0913 208.072 96.2532C208.322 96.4123 208.511 96.6254 208.639 96.8924C208.767 97.1566 208.831 97.4478 208.831 97.766V98.2263C208.831 98.5444 208.765 98.837 208.635 99.1041C208.507 99.3683 208.316 99.5814 208.064 99.7433C207.814 99.9024 207.507 99.9819 207.143 99.9819C206.774 99.9819 206.463 99.9024 206.21 99.7433C205.957 99.5814 205.765 99.3683 205.635 99.1041C205.504 98.837 205.439 98.5444 205.439 98.2263ZM206.308 97.766V98.2263C206.308 98.4905 206.37 98.7277 206.495 98.9379C206.62 99.1453 206.836 99.249 207.143 99.249C207.441 99.249 207.652 99.1453 207.774 98.9379C207.899 98.7277 207.961 98.4905 207.961 98.2263V97.766C207.961 97.5018 207.902 97.266 207.782 97.0586C207.663 96.8484 207.45 96.7433 207.143 96.7433C206.845 96.7433 206.63 96.8484 206.5 97.0586C206.372 97.266 206.308 97.5018 206.308 97.766ZM205.762 104.857L211.762 96.1297H212.734L206.734 104.857H205.762Z" fill="#767676"/>
<circle cx="283.5" cy="81.5713" r="4" fill="#8EA26A"/>
<path d="M288.868 58.1392C288.344 58.1359 287.839 58.0481 287.351 57.8757C286.867 57.7034 286.433 57.4233 286.049 57.0355C285.664 56.6477 285.359 56.134 285.134 55.4943C284.912 54.8546 284.801 54.0691 284.801 53.1378C284.804 52.2827 284.902 51.5187 285.094 50.8459C285.29 50.1697 285.568 49.5964 285.93 49.1257C286.294 48.6551 286.73 48.2971 287.237 48.0518C287.744 47.8033 288.313 47.679 288.942 47.679C289.622 47.679 290.222 47.8116 290.742 48.0767C291.262 48.3385 291.68 48.6948 291.995 49.1456C292.313 49.5964 292.505 50.1018 292.572 50.6619H290.449C290.366 50.3073 290.192 50.0289 289.927 49.8267C289.662 49.6245 289.333 49.5234 288.942 49.5234C288.279 49.5234 287.776 49.8118 287.431 50.3885C287.09 50.9652 286.916 51.7491 286.909 52.7401H286.979C287.131 52.4384 287.336 52.1816 287.595 51.9695C287.857 51.754 288.153 51.59 288.485 51.4773C288.82 51.3613 289.173 51.3033 289.544 51.3033C290.147 51.3033 290.684 51.4458 291.155 51.7308C291.625 52.0125 291.997 52.4003 292.268 52.8942C292.54 53.388 292.676 53.9531 292.676 54.5895C292.676 55.2789 292.515 55.892 292.194 56.429C291.876 56.9659 291.43 57.3868 290.856 57.6918C290.286 57.9934 289.623 58.1425 288.868 58.1392ZM288.858 56.4489C289.189 56.4489 289.486 56.3693 289.748 56.2102C290.01 56.0511 290.215 55.8357 290.364 55.5639C290.513 55.2921 290.588 54.9872 290.588 54.6491C290.588 54.3111 290.513 54.0078 290.364 53.7393C290.218 53.4709 290.016 53.2571 289.758 53.098C289.499 52.9389 289.204 52.8594 288.873 52.8594C288.624 52.8594 288.394 52.9058 288.182 52.9986C287.973 53.0914 287.789 53.2206 287.63 53.3864C287.474 53.5521 287.351 53.7443 287.262 53.9631C287.172 54.1785 287.128 54.4089 287.128 54.6541C287.128 54.9822 287.202 55.2822 287.351 55.554C287.504 55.8258 287.709 56.0429 287.968 56.2053C288.23 56.3677 288.526 56.4489 288.858 56.4489ZM294.048 56.2102V54.5149L298.299 47.8182H299.76V50.1648H298.895L296.216 54.4055V54.4851H302.256V56.2102H294.048ZM298.935 58V55.6932L298.975 54.9425V47.8182H300.993V58H298.935Z" fill="#323232"/>
<path d="M279.51 73.1193C278.948 73.1193 278.447 73.0227 278.006 72.8295C277.569 72.6364 277.221 72.3679 276.962 72.0241C276.706 71.6776 276.567 71.2756 276.545 70.8182H277.618C277.641 71.0994 277.738 71.3423 277.908 71.5469C278.079 71.7486 278.302 71.9048 278.577 72.0156C278.853 72.1264 279.158 72.1818 279.493 72.1818C279.868 72.1818 280.201 72.1165 280.491 71.9858C280.78 71.8551 281.008 71.6733 281.172 71.4403C281.337 71.2074 281.42 70.9375 281.42 70.6307C281.42 70.3097 281.34 70.027 281.181 69.7827C281.022 69.5355 280.789 69.3423 280.482 69.2031C280.175 69.0639 279.8 68.9943 279.357 68.9943H278.658V68.0568H279.357C279.704 68.0568 280.008 67.9943 280.269 67.8693C280.533 67.7443 280.739 67.5682 280.887 67.3409C281.037 67.1136 281.113 66.8466 281.113 66.5398C281.113 66.2443 281.047 65.9872 280.917 65.7685C280.786 65.5497 280.601 65.3793 280.363 65.2571C280.127 65.1349 279.849 65.0739 279.528 65.0739C279.226 65.0739 278.942 65.1293 278.675 65.2401C278.411 65.348 278.195 65.5057 278.028 65.7131C277.86 65.9176 277.769 66.1648 277.755 66.4545H276.732C276.749 65.9972 276.887 65.5966 277.145 65.2528C277.404 64.9062 277.742 64.6364 278.16 64.4432C278.58 64.25 279.042 64.1534 279.545 64.1534C280.084 64.1534 280.547 64.2628 280.934 64.4815C281.32 64.6974 281.617 64.983 281.824 65.3381C282.032 65.6932 282.135 66.0767 282.135 66.4886C282.135 66.9801 282.006 67.3991 281.748 67.7457C281.492 68.0923 281.144 68.3324 280.704 68.4659V68.5341C281.255 68.625 281.685 68.8594 281.995 69.2372C282.305 69.6122 282.459 70.0767 282.459 70.6307C282.459 71.1051 282.33 71.5312 282.072 71.9091C281.816 72.2841 281.466 72.5795 281.023 72.7955C280.58 73.0114 280.076 73.1193 279.51 73.1193ZM283.998 71.2102V70.3409L287.833 64.2727H288.464V65.6193H288.037L285.14 70.2045V70.2727H290.305V71.2102H283.998ZM288.106 73V70.946V70.5412V64.2727H289.111V73H288.106ZM292.241 73.0682C292.031 73.0682 291.851 72.9929 291.7 72.8423C291.55 72.6918 291.474 72.5114 291.474 72.3011C291.474 72.0909 291.55 71.9105 291.7 71.7599C291.851 71.6094 292.031 71.5341 292.241 71.5341C292.452 71.5341 292.632 71.6094 292.782 71.7599C292.933 71.9105 293.008 72.0909 293.008 72.3011C293.008 72.4403 292.973 72.5682 292.902 72.6847C292.834 72.8011 292.741 72.8949 292.625 72.9659C292.511 73.0341 292.383 73.0682 292.241 73.0682ZM294.591 71.2102V70.3409L298.427 64.2727H299.057V65.6193H298.631L295.733 70.2045V70.2727H300.898V71.2102H294.591ZM298.699 73V70.946V70.5412V64.2727H299.705V73H298.699ZM306.944 71.3636V70.9034C306.944 70.5852 307.009 70.294 307.14 70.0298C307.274 69.7628 307.467 69.5497 307.72 69.3906C307.975 69.2287 308.285 69.1477 308.649 69.1477C309.018 69.1477 309.328 69.2287 309.578 69.3906C309.828 69.5497 310.017 69.7628 310.144 70.0298C310.272 70.294 310.336 70.5852 310.336 70.9034V71.3636C310.336 71.6818 310.271 71.9744 310.14 72.2415C310.012 72.5057 309.822 72.7187 309.569 72.8807C309.319 73.0398 309.012 73.1193 308.649 73.1193C308.279 73.1193 307.968 73.0398 307.715 72.8807C307.463 72.7187 307.271 72.5057 307.14 72.2415C307.009 71.9744 306.944 71.6818 306.944 71.3636ZM307.813 70.9034V71.3636C307.813 71.6278 307.876 71.8651 308.001 72.0753C308.126 72.2827 308.342 72.3864 308.649 72.3864C308.947 72.3864 309.157 72.2827 309.279 72.0753C309.404 71.8651 309.467 71.6278 309.467 71.3636V70.9034C309.467 70.6392 309.407 70.4034 309.288 70.196C309.169 69.9858 308.955 69.8807 308.649 69.8807C308.35 69.8807 308.136 69.9858 308.005 70.196C307.877 70.4034 307.813 70.6392 307.813 70.9034ZM302.597 66.3693V65.9091C302.597 65.5909 302.663 65.2997 302.794 65.0355C302.927 64.7685 303.12 64.5554 303.373 64.3963C303.629 64.2344 303.938 64.1534 304.302 64.1534C304.671 64.1534 304.981 64.2344 305.231 64.3963C305.481 64.5554 305.67 64.7685 305.798 65.0355C305.926 65.2997 305.99 65.5909 305.99 65.9091V66.3693C305.99 66.6875 305.924 66.9801 305.794 67.2472C305.666 67.5114 305.475 67.7244 305.222 67.8864C304.972 68.0455 304.666 68.125 304.302 68.125C303.933 68.125 303.622 68.0455 303.369 67.8864C303.116 67.7244 302.924 67.5114 302.794 67.2472C302.663 66.9801 302.597 66.6875 302.597 66.3693ZM303.467 65.9091V66.3693C303.467 66.6335 303.529 66.8707 303.654 67.081C303.779 67.2884 303.995 67.392 304.302 67.392C304.6 67.392 304.811 67.2884 304.933 67.081C305.058 66.8707 305.12 66.6335 305.12 66.3693V65.9091C305.12 65.6449 305.061 65.4091 304.941 65.2017C304.822 64.9915 304.609 64.8864 304.302 64.8864C304.004 64.8864 303.789 64.9915 303.659 65.2017C303.531 65.4091 303.467 65.6449 303.467 65.9091ZM302.921 73L308.921 64.2727H309.893L303.893 73H302.921Z" fill="#767676"/>
<path d="M23.5 194.714L110.167 174.143L196.833 115.857L283.5 81.5713" stroke="#8EA26A" stroke-width="2" stroke-linecap="round"/>
</g>
<defs>
<clipPath id="clip0_47_1007">
<rect width="320" height="320" rx="16" fill="white"/>
</clipPath>
</defs>
</svg>
