<svg width="31" height="31" viewBox="0 0 31 31" fill="none" xmlns="http://www.w3.org/2000/svg">
<path d="M14.2083 19.3747V16.7913H16.7916V19.3747H14.2083ZM12.9166 7.74967H18.0833V5.16634H12.9166V7.74967ZM5.16659 27.1247C4.45617 27.1247 3.84822 26.8719 3.34275 26.3665C2.83728 25.861 2.58411 25.2526 2.58325 24.5413V19.3747H11.6249V20.6663C11.6249 21.0323 11.7489 21.3393 11.9969 21.5873C12.2449 21.8353 12.5515 21.9589 12.9166 21.958H18.0833C18.4492 21.958 18.7562 21.834 19.0042 21.586C19.2522 21.338 19.3758 21.0315 19.3749 20.6663V19.3747H28.4166V24.5413C28.4166 25.2518 28.1638 25.8601 27.6584 26.3665C27.1529 26.8728 26.5445 27.1255 25.8333 27.1247H5.16659ZM2.58325 16.7913V10.333C2.58325 9.62259 2.83642 9.01465 3.34275 8.50917C3.84909 8.0037 4.45703 7.75054 5.16659 7.74967H10.3333V5.16634C10.3333 4.45592 10.5864 3.84798 11.0928 3.34251C11.5991 2.83704 12.207 2.58387 12.9166 2.58301H18.0833C18.7937 2.58301 19.402 2.83617 19.9084 3.34251C20.4147 3.84884 20.6674 4.45679 20.6666 5.16634V7.74967H25.8333C26.5437 7.74967 27.152 8.00284 27.6584 8.50917C28.1647 9.01551 28.4174 9.62345 28.4166 10.333V16.7913H19.3749V15.4997C19.3749 15.1337 19.2509 14.8271 19.0029 14.58C18.7549 14.3329 18.4484 14.2089 18.0833 14.208H12.9166C12.5506 14.208 12.2441 14.332 11.9969 14.58C11.7498 14.828 11.6258 15.1346 11.6249 15.4997V16.7913H2.58325Z" fill="black"/>
</svg>
