<svg width="31" height="31" viewBox="0 0 31 31" fill="none" xmlns="http://www.w3.org/2000/svg">
<path d="M15.4999 9.04167V3.875H2.58325V27.125H28.4166V9.04167H15.4999ZM7.74992 24.5417H5.16659V21.9583H7.74992V24.5417ZM7.74992 19.375H5.16659V16.7917H7.74992V19.375ZM7.74992 14.2083H5.16659V11.625H7.74992V14.2083ZM7.74992 9.04167H5.16659V6.45833H7.74992V9.04167ZM12.9166 24.5417H10.3333V21.9583H12.9166V24.5417ZM12.9166 19.375H10.3333V16.7917H12.9166V19.375ZM12.9166 14.2083H10.3333V11.625H12.9166V14.2083ZM12.9166 9.04167H10.3333V6.45833H12.9166V9.04167ZM25.8333 24.5417H15.4999V21.9583H18.0833V19.375H15.4999V16.7917H18.0833V14.2083H15.4999V11.625H25.8333V24.5417ZM23.2499 14.2083H20.6666V16.7917H23.2499V14.2083ZM23.2499 19.375H20.6666V21.9583H23.2499V19.375Z" fill="black"/>
</svg>
