<svg width="31" height="31" viewBox="0 0 31 31" fill="none" xmlns="http://www.w3.org/2000/svg">
<path d="M12 8.1832C12.0471 8.21656 12.1038 8.23366 12.1614 8.23192C12.2191 8.23017 12.2747 8.20967 12.3197 8.17352C12.7479 7.89014 13.263 7.76856 13.7728 7.83058C13.8072 7.83502 13.8422 7.83248 13.8757 7.82311C13.9091 7.81374 13.9403 7.79772 13.9675 7.77602C13.9946 7.75433 14.017 7.72739 14.0335 7.69682C14.05 7.66624 14.0602 7.63266 14.0634 7.59808C14.0705 7.52883 14.0501 7.45955 14.0066 7.40519C13.9631 7.35083 13.9 7.31573 13.8309 7.30745C13.1826 7.22227 12.526 7.38299 11.9903 7.75792C11.9578 7.78338 11.9316 7.81608 11.914 7.85342C11.8963 7.89075 11.8876 7.9317 11.8885 7.97299C11.8895 8.01429 11.9 8.05479 11.9194 8.09128C11.9387 8.12778 11.9663 8.15925 12 8.1832ZM18.7822 8.17836C18.8275 8.21297 18.8828 8.23212 18.9398 8.23299C18.9968 8.23386 19.0526 8.21641 19.099 8.1832C19.1326 8.15936 19.1602 8.12797 19.1796 8.09156C19.1989 8.05514 19.2095 8.01471 19.2104 7.97348C19.2114 7.93226 19.2027 7.89138 19.185 7.85412C19.1673 7.81686 19.1412 7.78425 19.1087 7.75889C18.572 7.3862 17.9163 7.22539 17.268 7.30745C17.2001 7.31784 17.1388 7.35418 17.0971 7.40881C17.0555 7.46344 17.0366 7.53211 17.0445 7.60038C17.0524 7.66864 17.0865 7.73118 17.1395 7.77484C17.1926 7.8185 17.2606 7.83987 17.3291 7.83445C17.839 7.77185 18.3544 7.89385 18.7822 8.17836ZM11.7287 9.95892C11.874 9.3583 12.4165 8.91267 13.0656 8.91267C13.734 8.91267 14.2959 9.38736 14.4218 10.0267C14.4292 10.0598 14.429 10.094 14.4211 10.1269C14.4133 10.1598 14.398 10.1905 14.3765 10.2167C14.3551 10.2428 14.3279 10.2637 14.2972 10.2778C14.2664 10.2919 14.2329 10.2988 14.199 10.298H14.1215C14.1409 10.2205 14.1506 10.143 14.1506 10.0655C14.1506 9.58111 13.7534 9.18392 13.269 9.18392C13.1334 9.18418 12.9997 9.2156 12.8782 9.27576C12.7567 9.33592 12.6507 9.42322 12.5683 9.53089C12.4859 9.63857 12.4293 9.76375 12.403 9.89676C12.3767 10.0298 12.3813 10.167 12.4165 10.298H11.9903C11.8159 10.298 11.69 10.1333 11.7287 9.95892ZM19.13 9.95892C18.9847 9.3583 18.4422 8.91267 17.7931 8.91267C17.1247 8.91267 16.5628 9.38736 16.4368 10.0267C16.4078 10.172 16.5143 10.298 16.6597 10.298H16.7372C16.702 10.167 16.6973 10.0298 16.7237 9.89676C16.75 9.76375 16.8065 9.63857 16.8889 9.53089C16.9713 9.42322 17.0773 9.33592 17.1988 9.27576C17.3204 9.2156 17.4541 9.18418 17.5897 9.18392C17.7252 9.18418 17.859 9.2156 17.9805 9.27576C18.102 9.33592 18.208 9.42322 18.2904 9.53089C18.3728 9.63857 18.4294 9.76375 18.4557 9.89676C18.482 10.0298 18.4774 10.167 18.4422 10.298H18.8684C19.0428 10.298 19.1687 10.1333 19.13 9.95892Z" fill="black"/>
<path d="M13.7727 10.0558C13.7727 9.77484 13.5499 9.55203 13.2689 9.55203C13.1989 9.55104 13.1295 9.56526 13.0655 9.59368C13.079 9.60895 13.0893 9.62672 13.0959 9.64599C13.1025 9.66525 13.1053 9.68563 13.104 9.70596C13.1028 9.72629 13.0975 9.74618 13.0886 9.76448C13.0796 9.78278 13.0672 9.79914 13.0519 9.81262C13.0367 9.82611 13.0189 9.83645 12.9996 9.84307C12.9803 9.84969 12.96 9.85244 12.9396 9.85118C12.9193 9.84993 12.8994 9.84467 12.8811 9.83573C12.8628 9.82679 12.8465 9.81433 12.833 9.79906C12.7899 9.87306 12.7664 9.95682 12.7647 10.0424C12.7631 10.128 12.7832 10.2126 12.8233 10.2883H13.7145C13.7533 10.2205 13.7727 10.143 13.7727 10.0558ZM17.4113 9.584C17.5068 9.54613 17.6117 9.53863 17.7117 9.56253C17.8117 9.58642 17.9018 9.64055 17.9699 9.71753C18.038 9.79452 18.0807 9.89062 18.0922 9.99275C18.1037 10.0949 18.0835 10.1981 18.0342 10.2883H17.1429C17.1 10.2069 17.0802 10.1152 17.0857 10.0234C17.0911 9.93147 17.1217 9.84284 17.1739 9.76709C17.1834 9.78876 17.1976 9.80799 17.2156 9.82332C17.2335 9.83865 17.2548 9.84967 17.2777 9.85553C17.3005 9.86139 17.3245 9.86195 17.3476 9.85715C17.3707 9.85236 17.3925 9.84234 17.4111 9.82786C17.4298 9.81339 17.4449 9.79484 17.4553 9.77363C17.4657 9.75242 17.4711 9.72911 17.4711 9.70549C17.4712 9.68187 17.4658 9.65855 17.4554 9.63733C17.445 9.6161 17.4299 9.5985 17.4113 9.584ZM14.6058 11.6445L15.1192 9.98797C15.2355 9.61984 15.7489 9.61984 15.8555 9.98797L16.3689 11.6445C16.4755 11.9836 16.2236 12.3323 15.8652 12.3323H15.1095C14.7511 12.3323 14.4992 11.9836 14.6058 11.6445ZM15.4292 13.2527C14.9061 13.2527 14.412 13.1267 13.9955 12.9039C13.8502 12.8264 13.7049 12.9911 13.792 13.1267C14.1408 13.6595 14.7414 14.018 15.4292 14.018C16.117 14.018 16.7177 13.6595 17.0664 13.1267C17.1536 12.9911 16.9986 12.8361 16.863 12.9039C16.4464 13.1267 15.9524 13.2527 15.4292 13.2527Z" fill="black"/>
<path d="M8.6025 9.98201V10.5361C8.67613 11.097 8.97062 11.5882 9.39687 11.9195V12.4775C9.39746 12.9629 9.5341 13.4384 9.7913 13.8501C10.0485 14.2617 10.4159 14.593 10.8519 14.8064C10.9197 14.9246 10.994 15.0389 11.0747 15.1493H10.7231L10.7367 15.1668H5.425C4.89219 15.1668 4.45044 15.6085 4.45044 16.1636V25.2466C3.82042 25.3597 3.2281 25.6266 2.72615 26.0238C2.22419 26.421 1.82816 26.936 1.57325 27.5232L1.57131 27.527C1.16734 28.4764 1.84547 29.5469 2.8985 29.5469H28.1054C29.1177 29.5469 29.8423 28.5181 29.4442 27.559L29.4422 27.5542C29.1894 26.9607 28.793 26.4393 28.2888 26.0368C27.7846 25.6344 27.1883 25.3635 26.5534 25.2485V16.1636C26.5534 15.6085 26.1117 15.1668 25.5789 15.1668H19.9311C19.9973 15.0747 20.0603 14.9804 20.12 14.8839C20.5934 14.687 20.998 14.3543 21.2827 13.9278C21.5673 13.5013 21.7193 13 21.7194 12.4872V11.6802C22.0734 11.2963 22.271 10.7939 22.2735 10.2717V10.2591C22.2744 9.73264 22.0769 9.22519 21.7203 8.83792V8.44752C21.7203 8.25086 21.7843 8.04645 21.9044 7.87208C22.1747 7.48748 22.3433 7.04186 22.3975 6.5817V5.93942C22.3335 5.41977 22.1246 4.92861 21.7947 4.52209C21.4647 4.11557 21.0271 3.81009 20.5317 3.64058L20.5268 3.63864C20.0806 3.49416 19.6996 3.19713 19.4506 2.7997C19.2011 2.38892 18.8501 2.04926 18.4314 1.81343C18.0127 1.57759 17.5403 1.45351 17.0597 1.45314C16.6722 1.45314 16.2982 1.53452 15.9689 1.67595L15.966 1.67789C15.8408 1.73285 15.7055 1.76123 15.5688 1.76123C15.432 1.76123 15.2968 1.73285 15.1716 1.67789L15.1619 1.67402C14.8185 1.52914 14.4496 1.45406 14.0769 1.45314C13.6057 1.45158 13.1418 1.57024 12.7292 1.7979C12.3166 2.02555 11.9689 2.35469 11.719 2.75417C11.4574 3.16686 11.0602 3.48267 10.6049 3.63961C9.93699 3.86847 9.38068 4.34204 9.04813 4.96486C8.54244 5.90745 8.65094 7.0283 9.21862 7.85464C9.33487 8.03386 9.39784 8.24117 9.39784 8.43783V8.59864L9.35134 8.63739C8.95028 8.96677 8.67419 9.44145 8.6025 9.98201ZM19.2423 14.4615C19.1105 14.663 18.9597 14.8477 18.7899 15.0156H12.2305L12.1288 14.911C11.6605 14.4066 11.3594 13.7698 11.2666 13.0878L11.1552 11.3906L10.6872 11.3925C10.399 11.3921 10.1217 11.2818 9.91184 11.0841C9.702 10.8864 9.57536 10.6162 9.55771 10.3285C9.54006 10.0407 9.63272 9.75708 9.81682 9.53524C10.0009 9.3134 10.2627 9.17004 10.5487 9.13436L11.004 9.07817L10.9207 7.81298C10.9332 7.07322 11.2355 6.36791 11.7628 5.84884C12.29 5.32977 12.9999 5.03843 13.7398 5.03752H14.9992C15.0354 5.03848 15.0705 5.05012 15.1002 5.07097C15.1298 5.09182 15.1526 5.12096 15.1658 5.15473L15.1677 5.15861C15.3966 5.66409 15.7667 6.09261 16.2335 6.39254C16.7004 6.69247 17.244 6.85102 17.7988 6.84908H19.1706C19.4172 6.8643 19.6483 6.97457 19.8152 7.15669C19.9822 7.33882 20.072 7.57859 20.0657 7.82558L20.0541 8.31576L20.0076 9.06267L20.4145 9.1518C20.6024 9.19248 20.7729 9.27967 20.9134 9.40173L20.9172 9.40561C20.947 9.4308 20.9751 9.45792 21.0015 9.48698C21.1053 9.59796 21.1856 9.72872 21.2377 9.87145C21.2899 10.0142 21.3127 10.1659 21.3048 10.3177C21.2969 10.4694 21.2585 10.618 21.192 10.7546C21.1254 10.8911 21.0319 11.0129 20.9172 11.1125L20.9134 11.1164C20.7345 11.2719 20.5111 11.3668 20.275 11.3877L19.8603 11.4255L19.7577 13.0878C19.6882 13.5778 19.5123 14.0467 19.2423 14.4615ZM2.46353 27.9078C2.63683 27.5085 2.89731 27.1531 3.22587 26.8676C3.55443 26.5821 3.94273 26.3738 4.36228 26.258V28.5781H2.89947C2.81997 28.578 2.74175 28.5581 2.6719 28.5201C2.60206 28.4821 2.5428 28.4273 2.49951 28.3606C2.45621 28.294 2.43024 28.2175 2.42396 28.1383C2.41768 28.059 2.43128 27.9795 2.46353 27.9068M26.6435 26.2599C27.0665 26.3781 27.4575 26.5897 27.7877 26.8791C28.118 27.1685 28.3792 27.5283 28.552 27.932C28.5797 28.0041 28.5895 28.0819 28.5803 28.1586C28.5712 28.2353 28.5435 28.3087 28.4995 28.3723C28.4556 28.4358 28.3969 28.4877 28.3283 28.5234C28.2598 28.5592 28.1836 28.5776 28.1063 28.5772H26.6435V26.2599ZM14.3888 20.6315H16.6131C16.7416 20.6315 16.8648 20.6825 16.9556 20.7734C17.0464 20.8642 17.0975 20.9874 17.0975 21.1159V23.3924C17.0975 23.5209 17.0464 23.6441 16.9556 23.7349C16.8648 23.8258 16.7416 23.8768 16.6131 23.8768H14.3888C14.2604 23.8768 14.1372 23.8258 14.0463 23.7349C13.9555 23.6441 13.9045 23.5209 13.9045 23.3924V21.1159C13.9045 20.9874 13.9555 20.8642 14.0463 20.7734C14.1372 20.6825 14.2604 20.6315 14.3888 20.6315Z" fill="black"/>
</svg>
