<svg width="226" height="226" viewBox="0 0 226 226" fill="none" xmlns="http://www.w3.org/2000/svg">
<rect width="226" height="71" rx="10" fill="#333F48"/>
<path d="M20.5 38.25C25.3125 38.25 29.25 34.3125 29.25 29.5C29.25 24.6875 25.3125 20.75 20.5 20.75C15.6875 20.75 11.75 24.6875 11.75 29.5C11.75 34.3125 15.6875 38.25 20.5 38.25Z" stroke="#9EB7E2" stroke-width="1.3125" stroke-linecap="round" stroke-linejoin="round"/>
<path d="M16.7812 29.4997L19.2575 31.9759L24.2188 27.0234" stroke="#9EB7E2" stroke-width="1.3125" stroke-linecap="round" stroke-linejoin="round"/>
<path d="M41.4134 34V24.2H44.3254C45.744 24.2 46.9154 24.634 47.8394 25.502C48.7727 26.37 49.2394 27.5693 49.2394 29.1C49.2394 30.6307 48.7727 31.83 47.8394 32.698C46.9154 33.566 45.744 34 44.3254 34H41.4134ZM42.6734 32.852H44.2834C45.3194 32.852 46.1827 32.5393 46.8734 31.914C47.5734 31.2887 47.9234 30.3507 47.9234 29.1C47.9234 28.2507 47.746 27.5367 47.3914 26.958C47.046 26.37 46.6074 25.9547 46.0754 25.712C45.5434 25.46 44.946 25.334 44.2834 25.334H42.6734V32.852ZM56.8813 30.15C56.8813 30.346 56.8719 30.528 56.8533 30.696H51.2813C51.3186 31.4053 51.5426 31.9793 51.9533 32.418C52.3733 32.8473 52.9006 33.062 53.5353 33.062C54.0766 33.062 54.5246 32.9407 54.8793 32.698C55.2339 32.4553 55.4626 32.1147 55.5653 31.676L56.6853 31.942C56.5079 32.6233 56.1393 33.1553 55.5793 33.538C55.0286 33.9207 54.3473 34.112 53.5353 34.112C52.4993 34.112 51.6639 33.762 51.0293 33.062C50.4039 32.362 50.0913 31.4987 50.0913 30.472C50.0913 29.436 50.3993 28.5727 51.0153 27.882C51.6406 27.182 52.4713 26.832 53.5073 26.832C54.5246 26.832 55.3413 27.154 55.9573 27.798C56.5733 28.4327 56.8813 29.2167 56.8813 30.15ZM51.3513 29.702H55.6213C55.5653 29.142 55.3506 28.6893 54.9773 28.344C54.6039 27.9987 54.1139 27.826 53.5073 27.826C52.9566 27.826 52.4899 27.994 52.1073 28.33C51.7246 28.6567 51.4726 29.114 51.3513 29.702ZM60.4309 34.112C59.6469 34.112 59.0029 33.9113 58.4989 33.51C58.0043 33.1087 57.6683 32.6233 57.4909 32.054L58.5129 31.606C58.8303 32.6047 59.4696 33.104 60.4309 33.104C60.8509 33.104 61.1916 33.0013 61.4529 32.796C61.7236 32.5813 61.8589 32.3247 61.8589 32.026C61.8589 31.6993 61.7189 31.4427 61.4389 31.256C61.1589 31.0693 60.8183 30.9293 60.4169 30.836C60.0249 30.7427 59.6283 30.64 59.2269 30.528C58.8349 30.4067 58.4989 30.1967 58.2189 29.898C57.9389 29.5993 57.7989 29.2027 57.7989 28.708C57.7989 28.148 58.0229 27.6953 58.4709 27.35C58.9189 27.0047 59.5209 26.832 60.2769 26.832C60.9023 26.832 61.4576 26.9953 61.9429 27.322C62.4283 27.6393 62.7456 28.0547 62.8949 28.568L61.9009 29.002C61.8076 28.6473 61.6023 28.3627 61.2849 28.148C60.9769 27.924 60.6316 27.812 60.2489 27.812C59.8476 27.812 59.5303 27.8913 59.2969 28.05C59.0636 28.1993 58.9469 28.414 58.9469 28.694C58.9469 28.9273 59.0449 29.1187 59.2409 29.268C59.4463 29.4173 59.6983 29.5247 59.9969 29.59C60.3049 29.646 60.6363 29.73 60.9909 29.842C61.3456 29.9447 61.6723 30.0613 61.9709 30.192C62.2696 30.3227 62.5169 30.5467 62.7129 30.864C62.9183 31.172 63.0209 31.5547 63.0209 32.012C63.0209 32.628 62.7829 33.132 62.3069 33.524C61.8309 33.916 61.2056 34.112 60.4309 34.112ZM64.1677 24.088H65.5397V25.6H64.1677V24.088ZM64.2517 34V26.944H65.4417V34H64.2517ZM72.2969 26.944H73.4729V33.664C73.4729 34.5507 73.1649 35.2693 72.5489 35.82C71.9423 36.38 71.1536 36.66 70.1829 36.66C69.3616 36.66 68.6616 36.4593 68.0829 36.058C67.5043 35.666 67.1636 35.1527 67.0609 34.518L68.2089 34.322C68.2463 34.714 68.4469 35.0313 68.8109 35.274C69.1843 35.526 69.6416 35.652 70.1829 35.652C70.8083 35.652 71.3169 35.4793 71.7089 35.134C72.1009 34.7887 72.2969 34.3407 72.2969 33.79V32.81C72.1383 33.1087 71.8489 33.3513 71.4289 33.538C71.0089 33.7247 70.5469 33.818 70.0429 33.818C68.9883 33.818 68.1623 33.496 67.5649 32.852C66.9769 32.1987 66.6829 31.3587 66.6829 30.332C66.6829 29.296 66.9769 28.456 67.5649 27.812C68.1529 27.1587 68.9696 26.832 70.0149 26.832C70.4816 26.832 70.9249 26.9347 71.3449 27.14C71.7649 27.336 72.0823 27.588 72.2969 27.896V26.944ZM68.5169 32.096C68.9276 32.5347 69.4736 32.754 70.1549 32.754C70.8363 32.754 71.3776 32.5347 71.7789 32.096C72.1896 31.6573 72.3949 31.0693 72.3949 30.332C72.3949 29.5947 72.1896 29.0067 71.7789 28.568C71.3776 28.12 70.8363 27.896 70.1549 27.896C69.4643 27.896 68.9136 28.12 68.5029 28.568C68.1016 29.0067 67.9009 29.5947 67.9009 30.332C67.9009 31.0693 68.1063 31.6573 68.5169 32.096ZM75.1214 34V26.944H76.3114V28.274C76.5634 27.8353 76.8994 27.4853 77.3194 27.224C77.7394 26.9627 78.2108 26.832 78.7334 26.832C79.4708 26.832 80.0728 27.0607 80.5394 27.518C81.0154 27.9753 81.2534 28.5773 81.2534 29.324V34H80.0634V29.548C80.0634 29.0627 79.9188 28.6707 79.6294 28.372C79.3401 28.064 78.9528 27.91 78.4674 27.91C77.8048 27.91 77.2774 28.1807 76.8854 28.722C76.5028 29.254 76.3114 29.982 76.3114 30.906V34H75.1214ZM88.4128 34V25.334H85.2908V24.2H92.7948V25.334H89.6868V34H88.4128ZM93.7502 34V24.088H94.9402V28.33C95.4535 27.3313 96.2562 26.832 97.3482 26.832C98.1508 26.832 98.7902 27.0607 99.2662 27.518C99.7515 27.9753 99.9942 28.5867 99.9942 29.352V34H98.8042V29.576C98.8042 29.0533 98.6502 28.6473 98.3422 28.358C98.0435 28.0593 97.6235 27.91 97.0822 27.91C96.4288 27.91 95.9062 28.1853 95.5142 28.736C95.1315 29.2867 94.9402 30.0333 94.9402 30.976V34H93.7502ZM104.278 26.832C105.146 26.832 105.846 27.07 106.378 27.546C106.91 28.022 107.176 28.666 107.176 29.478V34H106V32.796C105.795 33.1973 105.477 33.5193 105.048 33.762C104.628 33.9953 104.161 34.112 103.648 34.112C102.948 34.112 102.374 33.9207 101.926 33.538C101.487 33.146 101.268 32.642 101.268 32.026C101.268 30.7007 102.388 29.926 104.628 29.702L106 29.548V29.408C106 28.9227 105.841 28.54 105.524 28.26C105.216 27.9707 104.801 27.826 104.278 27.826C103.793 27.826 103.391 27.9613 103.074 28.232C102.757 28.5027 102.575 28.876 102.528 29.352L101.422 29.142C101.525 28.442 101.837 27.882 102.36 27.462C102.892 27.042 103.531 26.832 104.278 26.832ZM103.83 33.132C104.511 33.132 105.043 32.922 105.426 32.502C105.809 32.082 106 31.5173 106 30.808V30.472L104.628 30.626C103.181 30.7847 102.458 31.2467 102.458 32.012C102.458 32.3387 102.584 32.6093 102.836 32.824C103.097 33.0293 103.429 33.132 103.83 33.132ZM112.542 33.944C112.234 34.056 111.865 34.112 111.436 34.112C110.801 34.112 110.292 33.93 109.91 33.566C109.536 33.1927 109.35 32.6327 109.35 31.886V27.994H108.034V26.944H109.35V24.802H110.54V26.944H112.43V27.994H110.54V31.928C110.54 32.292 110.633 32.5673 110.82 32.754C111.006 32.9407 111.258 33.034 111.576 33.034C111.921 33.034 112.215 32.9733 112.458 32.852L112.542 33.944ZM119.911 34.112C118.969 34.112 118.152 33.8367 117.461 33.286C116.771 32.726 116.346 31.998 116.187 31.102L117.391 30.71C117.485 31.3913 117.769 31.942 118.245 32.362C118.721 32.7727 119.286 32.978 119.939 32.978C120.611 32.978 121.148 32.8333 121.549 32.544C121.951 32.2453 122.151 31.8533 122.151 31.368C122.151 30.9667 122.011 30.6307 121.731 30.36C121.461 30.08 121.12 29.8793 120.709 29.758C120.299 29.6273 119.851 29.4827 119.365 29.324C118.88 29.1653 118.432 29.002 118.021 28.834C117.611 28.666 117.265 28.3953 116.985 28.022C116.715 27.6487 116.579 27.1913 116.579 26.65C116.579 25.894 116.887 25.278 117.503 24.802C118.119 24.326 118.913 24.088 119.883 24.088C120.779 24.088 121.545 24.312 122.179 24.76C122.814 25.1987 123.192 25.782 123.313 26.51L122.151 26.958C122.049 26.426 121.797 26.006 121.395 25.698C121.003 25.3807 120.499 25.222 119.883 25.222C119.258 25.222 118.763 25.3527 118.399 25.614C118.045 25.866 117.867 26.2113 117.867 26.65C117.867 26.9487 117.97 27.2007 118.175 27.406C118.381 27.6113 118.647 27.77 118.973 27.882C119.309 27.994 119.673 28.1013 120.065 28.204C120.467 28.3067 120.863 28.428 121.255 28.568C121.657 28.708 122.021 28.8853 122.347 29.1C122.683 29.3053 122.954 29.5993 123.159 29.982C123.365 30.3647 123.467 30.822 123.467 31.354C123.467 32.1847 123.141 32.852 122.487 33.356C121.843 33.86 120.985 34.112 119.911 34.112ZM124.67 36.548V26.944H125.86V27.966C126.056 27.6393 126.364 27.3687 126.784 27.154C127.214 26.9393 127.68 26.832 128.184 26.832C129.239 26.832 130.065 27.1727 130.662 27.854C131.26 28.526 131.558 29.3987 131.558 30.472C131.558 31.536 131.255 32.4087 130.648 33.09C130.042 33.7713 129.211 34.112 128.156 34.112C127.708 34.112 127.274 34.014 126.854 33.818C126.434 33.6127 126.103 33.3467 125.86 33.02V36.548H124.67ZM128.044 33.048C128.744 33.048 129.304 32.8147 129.724 32.348C130.144 31.872 130.354 31.2467 130.354 30.472C130.354 29.6973 130.144 29.0767 129.724 28.61C129.304 28.134 128.744 27.896 128.044 27.896C127.354 27.896 126.798 28.134 126.378 28.61C125.968 29.0767 125.762 29.6973 125.762 30.472C125.762 31.2467 125.968 31.872 126.378 32.348C126.798 32.8147 127.354 33.048 128.044 33.048ZM139.183 30.15C139.183 30.346 139.173 30.528 139.155 30.696H133.583C133.62 31.4053 133.844 31.9793 134.255 32.418C134.675 32.8473 135.202 33.062 135.837 33.062C136.378 33.062 136.826 32.9407 137.181 32.698C137.535 32.4553 137.764 32.1147 137.867 31.676L138.987 31.942C138.809 32.6233 138.441 33.1553 137.881 33.538C137.33 33.9207 136.649 34.112 135.837 34.112C134.801 34.112 133.965 33.762 133.331 33.062C132.705 32.362 132.393 31.4987 132.393 30.472C132.393 29.436 132.701 28.5727 133.317 27.882C133.942 27.182 134.773 26.832 135.809 26.832C136.826 26.832 137.643 27.154 138.259 27.798C138.875 28.4327 139.183 29.2167 139.183 30.15ZM133.653 29.702H137.923C137.867 29.142 137.652 28.6893 137.279 28.344C136.905 27.9987 136.415 27.826 135.809 27.826C135.258 27.826 134.791 27.994 134.409 28.33C134.026 28.6567 133.774 29.114 133.653 29.702ZM142.998 26.832C143.866 26.832 144.566 27.07 145.098 27.546C145.63 28.022 145.896 28.666 145.896 29.478V34H144.72V32.796C144.515 33.1973 144.198 33.5193 143.768 33.762C143.348 33.9953 142.882 34.112 142.368 34.112C141.668 34.112 141.094 33.9207 140.646 33.538C140.208 33.146 139.988 32.642 139.988 32.026C139.988 30.7007 141.108 29.926 143.348 29.702L144.72 29.548V29.408C144.72 28.9227 144.562 28.54 144.244 28.26C143.936 27.9707 143.521 27.826 142.998 27.826C142.513 27.826 142.112 27.9613 141.794 28.232C141.477 28.5027 141.295 28.876 141.248 29.352L140.142 29.142C140.245 28.442 140.558 27.882 141.08 27.462C141.612 27.042 142.252 26.832 142.998 26.832ZM142.55 33.132C143.232 33.132 143.764 32.922 144.146 32.502C144.529 32.082 144.72 31.5173 144.72 30.808V30.472L143.348 30.626C141.902 30.7847 141.178 31.2467 141.178 32.012C141.178 32.3387 141.304 32.6093 141.556 32.824C141.818 33.0293 142.149 33.132 142.55 33.132ZM152.353 34L149.693 30.528L148.755 31.382V34H147.551V24.088H148.755V29.814L152.017 26.944H153.599L150.575 29.73L153.837 34H152.353ZM156.911 34.112C156.127 34.112 155.483 33.9113 154.979 33.51C154.484 33.1087 154.148 32.6233 153.971 32.054L154.993 31.606C155.31 32.6047 155.949 33.104 156.911 33.104C157.331 33.104 157.671 33.0013 157.933 32.796C158.203 32.5813 158.339 32.3247 158.339 32.026C158.339 31.6993 158.199 31.4427 157.919 31.256C157.639 31.0693 157.298 30.9293 156.897 30.836C156.505 30.7427 156.108 30.64 155.707 30.528C155.315 30.4067 154.979 30.1967 154.699 29.898C154.419 29.5993 154.279 29.2027 154.279 28.708C154.279 28.148 154.503 27.6953 154.951 27.35C155.399 27.0047 156.001 26.832 156.757 26.832C157.382 26.832 157.937 26.9953 158.423 27.322C158.908 27.6393 159.225 28.0547 159.375 28.568L158.381 29.002C158.287 28.6473 158.082 28.3627 157.765 28.148C157.457 27.924 157.111 27.812 156.729 27.812C156.327 27.812 156.01 27.8913 155.777 28.05C155.543 28.1993 155.427 28.414 155.427 28.694C155.427 28.9273 155.525 29.1187 155.721 29.268C155.926 29.4173 156.178 29.5247 156.477 29.59C156.785 29.646 157.116 29.73 157.471 29.842C157.825 29.9447 158.152 30.0613 158.451 30.192C158.749 30.3227 158.997 30.5467 159.193 30.864C159.398 31.172 159.501 31.5547 159.501 32.012C159.501 32.628 159.263 33.132 158.787 33.524C158.311 33.916 157.685 34.112 156.911 34.112ZM166.67 34L162.988 24.2H164.29L167.314 32.53L170.352 24.2H171.654L167.972 34H166.67ZM177.218 33.09C176.546 33.7713 175.688 34.112 174.642 34.112C173.597 34.112 172.738 33.7713 172.066 33.09C171.394 32.3993 171.058 31.5267 171.058 30.472C171.058 29.4173 171.394 28.5493 172.066 27.868C172.738 27.1773 173.597 26.832 174.642 26.832C175.688 26.832 176.546 27.1773 177.218 27.868C177.9 28.5493 178.24 29.4173 178.24 30.472C178.24 31.5267 177.9 32.3993 177.218 33.09ZM172.934 32.334C173.373 32.81 173.942 33.048 174.642 33.048C175.342 33.048 175.912 32.81 176.35 32.334C176.789 31.8487 177.008 31.228 177.008 30.472C177.008 29.716 176.789 29.1 176.35 28.624C175.912 28.1387 175.342 27.896 174.642 27.896C173.942 27.896 173.373 28.1387 172.934 28.624C172.496 29.1 172.276 29.716 172.276 30.472C172.276 31.228 172.496 31.8487 172.934 32.334ZM179.483 34V24.088H180.673V34H179.483ZM188.452 26.944V34H187.262V32.67C187.01 33.1087 186.674 33.4587 186.254 33.72C185.834 33.9813 185.363 34.112 184.84 34.112C184.103 34.112 183.496 33.8833 183.02 33.426C182.554 32.9687 182.32 32.3667 182.32 31.62V26.944H183.51V31.396C183.51 31.8813 183.655 32.278 183.944 32.586C184.234 32.8847 184.621 33.034 185.106 33.034C185.769 33.034 186.292 32.768 186.674 32.236C187.066 31.6947 187.262 30.962 187.262 30.038V26.944H188.452ZM190.107 34V26.944H191.297V28.274C191.698 27.3127 192.407 26.832 193.425 26.832C194.003 26.832 194.498 26.9627 194.909 27.224C195.329 27.4853 195.599 27.8493 195.721 28.316C195.917 27.8773 196.215 27.5227 196.617 27.252C197.027 26.972 197.489 26.832 198.003 26.832C198.759 26.832 199.356 27.0513 199.795 27.49C200.243 27.9287 200.467 28.5213 200.467 29.268V34H199.277V29.506C199.277 29.0113 199.141 28.6193 198.871 28.33C198.6 28.0313 198.222 27.882 197.737 27.882C197.149 27.882 196.691 28.12 196.365 28.596C196.038 29.072 195.875 29.6927 195.875 30.458V34H194.685V29.506C194.685 29.0113 194.549 28.6193 194.279 28.33C194.017 28.0313 193.644 27.882 193.159 27.882C192.571 27.882 192.113 28.12 191.787 28.596C191.46 29.072 191.297 29.6927 191.297 30.458V34H190.107ZM208.502 30.15C208.502 30.346 208.492 30.528 208.474 30.696H202.902C202.939 31.4053 203.163 31.9793 203.574 32.418C203.994 32.8473 204.521 33.062 205.156 33.062C205.697 33.062 206.145 32.9407 206.5 32.698C206.854 32.4553 207.083 32.1147 207.186 31.676L208.306 31.942C208.128 32.6233 207.76 33.1553 207.2 33.538C206.649 33.9207 205.968 34.112 205.156 34.112C204.12 34.112 203.284 33.762 202.65 33.062C202.024 32.362 201.712 31.4987 201.712 30.472C201.712 29.436 202.02 28.5727 202.636 27.882C203.261 27.182 204.092 26.832 205.128 26.832C206.145 26.832 206.962 27.154 207.578 27.798C208.194 28.4327 208.502 29.2167 208.502 30.15ZM202.972 29.702H207.242C207.186 29.142 206.971 28.6893 206.598 28.344C206.224 27.9987 205.734 27.826 205.128 27.826C204.577 27.826 204.11 27.994 203.728 28.33C203.345 28.6567 203.093 29.114 202.972 29.702ZM212.051 34.112C211.267 34.112 210.623 33.9113 210.119 33.51C209.625 33.1087 209.289 32.6233 209.111 32.054L210.133 31.606C210.451 32.6047 211.09 33.104 212.051 33.104C212.471 33.104 212.812 33.0013 213.073 32.796C213.344 32.5813 213.479 32.3247 213.479 32.026C213.479 31.6993 213.339 31.4427 213.059 31.256C212.779 31.0693 212.439 30.9293 212.037 30.836C211.645 30.7427 211.249 30.64 210.847 30.528C210.455 30.4067 210.119 30.1967 209.839 29.898C209.559 29.5993 209.419 29.2027 209.419 28.708C209.419 28.148 209.643 27.6953 210.091 27.35C210.539 27.0047 211.141 26.832 211.897 26.832C212.523 26.832 213.078 26.9953 213.563 27.322C214.049 27.6393 214.366 28.0547 214.515 28.568L213.521 29.002C213.428 28.6473 213.223 28.3627 212.905 28.148C212.597 27.924 212.252 27.812 211.869 27.812C211.468 27.812 211.151 27.8913 210.917 28.05C210.684 28.1993 210.567 28.414 210.567 28.694C210.567 28.9273 210.665 29.1187 210.861 29.268C211.067 29.4173 211.319 29.5247 211.617 29.59C211.925 29.646 212.257 29.73 212.611 29.842C212.966 29.9447 213.293 30.0613 213.591 30.192C213.89 30.3227 214.137 30.5467 214.333 30.864C214.539 31.172 214.641 31.5547 214.641 32.012C214.641 32.628 214.403 33.132 213.927 33.524C213.451 33.916 212.826 34.112 212.051 34.112Z" fill="#D7D7F9"/>
<path opacity="0.5" d="M41.1214 51V44H42.2214L44.5814 49.68L46.9414 44H48.0414V51H47.1414V45.72L44.9614 51H44.2014L42.0114 45.72V51H41.1214ZM50.9305 45.88C51.5505 45.88 52.0505 46.05 52.4305 46.39C52.8105 46.73 53.0005 47.19 53.0005 47.77V51H52.1605V50.14C52.0138 50.4267 51.7872 50.6567 51.4805 50.83C51.1805 50.9967 50.8472 51.08 50.4805 51.08C49.9805 51.08 49.5705 50.9433 49.2505 50.67C48.9372 50.39 48.7805 50.03 48.7805 49.59C48.7805 48.6433 49.5805 48.09 51.1805 47.93L52.1605 47.82V47.72C52.1605 47.3733 52.0472 47.1 51.8205 46.9C51.6005 46.6933 51.3038 46.59 50.9305 46.59C50.5838 46.59 50.2972 46.6867 50.0705 46.88C49.8438 47.0733 49.7138 47.34 49.6805 47.68L48.8905 47.53C48.9638 47.03 49.1872 46.63 49.5605 46.33C49.9405 46.03 50.3972 45.88 50.9305 45.88ZM50.6105 50.38C51.0972 50.38 51.4772 50.23 51.7505 49.93C52.0238 49.63 52.1605 49.2267 52.1605 48.72V48.48L51.1805 48.59C50.1472 48.7033 49.6305 49.0333 49.6305 49.58C49.6305 49.8133 49.7205 50.0067 49.9005 50.16C50.0872 50.3067 50.3238 50.38 50.6105 50.38ZM57.4125 51L55.5125 48.52L54.8425 49.13V51H53.9825V43.92H54.8425V48.01L57.1725 45.96H58.3025L56.1425 47.95L58.4725 51H57.4125ZM63.2207 48.25C63.2207 48.39 63.214 48.52 63.2007 48.64H59.2207C59.2473 49.1467 59.4073 49.5567 59.7007 49.87C60.0007 50.1767 60.3773 50.33 60.8307 50.33C61.2173 50.33 61.5373 50.2433 61.7907 50.07C62.044 49.8967 62.2073 49.6533 62.2807 49.34L63.0807 49.53C62.954 50.0167 62.6907 50.3967 62.2907 50.67C61.8973 50.9433 61.4107 51.08 60.8307 51.08C60.0907 51.08 59.494 50.83 59.0407 50.33C58.594 49.83 58.3707 49.2133 58.3707 48.48C58.3707 47.74 58.5907 47.1233 59.0307 46.63C59.4773 46.13 60.0707 45.88 60.8107 45.88C61.5373 45.88 62.1207 46.11 62.5607 46.57C63.0007 47.0233 63.2207 47.5833 63.2207 48.25ZM59.2707 47.93H62.3207C62.2807 47.53 62.1273 47.2067 61.8607 46.96C61.594 46.7133 61.244 46.59 60.8107 46.59C60.4173 46.59 60.084 46.71 59.8107 46.95C59.5373 47.1833 59.3573 47.51 59.2707 47.93ZM67.8071 45.88C68.4271 45.88 68.9271 46.05 69.3071 46.39C69.6871 46.73 69.8771 47.19 69.8771 47.77V51H69.0371V50.14C68.8904 50.4267 68.6637 50.6567 68.3571 50.83C68.0571 50.9967 67.7237 51.08 67.3571 51.08C66.8571 51.08 66.4471 50.9433 66.1271 50.67C65.8137 50.39 65.6571 50.03 65.6571 49.59C65.6571 48.6433 66.4571 48.09 68.0571 47.93L69.0371 47.82V47.72C69.0371 47.3733 68.9237 47.1 68.6971 46.9C68.4771 46.6933 68.1804 46.59 67.8071 46.59C67.4604 46.59 67.1737 46.6867 66.9471 46.88C66.7204 47.0733 66.5904 47.34 66.5571 47.68L65.7671 47.53C65.8404 47.03 66.0637 46.63 66.4371 46.33C66.8171 46.03 67.2737 45.88 67.8071 45.88ZM67.4871 50.38C67.9737 50.38 68.3537 50.23 68.6271 49.93C68.9004 49.63 69.0371 49.2267 69.0371 48.72V48.48L68.0571 48.59C67.0237 48.7033 66.5071 49.0333 66.5071 49.58C66.5071 49.8133 66.5971 50.0067 66.7771 50.16C66.9637 50.3067 67.2004 50.38 67.4871 50.38ZM76.5912 45.96H77.4312V50.76C77.4312 51.3933 77.2112 51.9067 76.7712 52.3C76.3379 52.7 75.7745 52.9 75.0812 52.9C74.4945 52.9 73.9945 52.7567 73.5812 52.47C73.1679 52.19 72.9245 51.8233 72.8512 51.37L73.6712 51.23C73.6979 51.51 73.8412 51.7367 74.1012 51.91C74.3679 52.09 74.6945 52.18 75.0812 52.18C75.5279 52.18 75.8912 52.0567 76.1712 51.81C76.4512 51.5633 76.5912 51.2433 76.5912 50.85V50.15C76.4779 50.3633 76.2712 50.5367 75.9712 50.67C75.6712 50.8033 75.3412 50.87 74.9812 50.87C74.2279 50.87 73.6379 50.64 73.2112 50.18C72.7912 49.7133 72.5812 49.1133 72.5812 48.38C72.5812 47.64 72.7912 47.04 73.2112 46.58C73.6312 46.1133 74.2145 45.88 74.9612 45.88C75.2945 45.88 75.6112 45.9533 75.9112 46.1C76.2112 46.24 76.4379 46.42 76.5912 46.64V45.96ZM73.8912 49.64C74.1845 49.9533 74.5745 50.11 75.0612 50.11C75.5479 50.11 75.9345 49.9533 76.2212 49.64C76.5145 49.3267 76.6612 48.9067 76.6612 48.38C76.6612 47.8533 76.5145 47.4333 76.2212 47.12C75.9345 46.8 75.5479 46.64 75.0612 46.64C74.5679 46.64 74.1745 46.8 73.8812 47.12C73.5945 47.4333 73.4512 47.8533 73.4512 48.38C73.4512 48.9067 73.5979 49.3267 73.8912 49.64ZM81.3587 46.79C81.172 46.71 80.9554 46.67 80.7087 46.67C80.282 46.67 79.932 46.8767 79.6587 47.29C79.392 47.6967 79.2587 48.2933 79.2587 49.08V51H78.4087V45.96H79.2587V46.98C79.4054 46.66 79.6254 46.3967 79.9187 46.19C80.212 45.9833 80.5154 45.88 80.8287 45.88C81.0487 45.88 81.242 45.91 81.4087 45.97L81.3587 46.79ZM86.1625 48.25C86.1625 48.39 86.1558 48.52 86.1425 48.64H82.1625C82.1891 49.1467 82.3491 49.5567 82.6425 49.87C82.9425 50.1767 83.3191 50.33 83.7725 50.33C84.1591 50.33 84.4791 50.2433 84.7325 50.07C84.9858 49.8967 85.1491 49.6533 85.2225 49.34L86.0225 49.53C85.8958 50.0167 85.6325 50.3967 85.2325 50.67C84.8391 50.9433 84.3525 51.08 83.7725 51.08C83.0325 51.08 82.4358 50.83 81.9825 50.33C81.5358 49.83 81.3125 49.2133 81.3125 48.48C81.3125 47.74 81.5325 47.1233 81.9725 46.63C82.4191 46.13 83.0125 45.88 83.7525 45.88C84.4791 45.88 85.0625 46.11 85.5025 46.57C85.9425 47.0233 86.1625 47.5833 86.1625 48.25ZM82.2125 47.93H85.2625C85.2225 47.53 85.0691 47.2067 84.8025 46.96C84.5358 46.7133 84.1858 46.59 83.7525 46.59C83.3591 46.59 83.0258 46.71 82.7525 46.95C82.4791 47.1833 82.2991 47.51 82.2125 47.93ZM88.6879 45.88C89.3079 45.88 89.8079 46.05 90.1879 46.39C90.5679 46.73 90.7579 47.19 90.7579 47.77V51H89.9179V50.14C89.7713 50.4267 89.5446 50.6567 89.2379 50.83C88.9379 50.9967 88.6046 51.08 88.2379 51.08C87.7379 51.08 87.3279 50.9433 87.0079 50.67C86.6946 50.39 86.5379 50.03 86.5379 49.59C86.5379 48.6433 87.3379 48.09 88.9379 47.93L89.9179 47.82V47.72C89.9179 47.3733 89.8046 47.1 89.5779 46.9C89.3579 46.6933 89.0613 46.59 88.6879 46.59C88.3413 46.59 88.0546 46.6867 87.8279 46.88C87.6013 47.0733 87.4713 47.34 87.4379 47.68L86.6479 47.53C86.7213 47.03 86.9446 46.63 87.3179 46.33C87.6979 46.03 88.1546 45.88 88.6879 45.88ZM88.3679 50.38C88.8546 50.38 89.2346 50.23 89.5079 49.93C89.7813 49.63 89.9179 49.2267 89.9179 48.72V48.48L88.9379 48.59C87.9046 48.7033 87.3879 49.0333 87.3879 49.58C87.3879 49.8133 87.4779 50.0067 87.6579 50.16C87.8446 50.3067 88.0813 50.38 88.3679 50.38ZM94.3907 50.96C94.1707 51.04 93.9073 51.08 93.6007 51.08C93.1473 51.08 92.784 50.95 92.5107 50.69C92.244 50.4233 92.1107 50.0233 92.1107 49.49V46.71H91.1707V45.96H92.1107V44.43H92.9607V45.96H94.3107V46.71H92.9607V49.52C92.9607 49.78 93.0273 49.9767 93.1607 50.11C93.294 50.2433 93.474 50.31 93.7007 50.31C93.9473 50.31 94.1573 50.2667 94.3307 50.18L94.3907 50.96ZM97.4946 51V46.71H96.6346V45.96H97.4946V45.49C97.4946 44.95 97.6313 44.5333 97.9046 44.24C98.178 43.94 98.538 43.79 98.9846 43.79C99.2513 43.79 99.478 43.8167 99.6646 43.87L99.6246 44.63C99.4513 44.5633 99.2746 44.53 99.0946 44.53C98.868 44.53 98.6846 44.6133 98.5446 44.78C98.4113 44.94 98.3446 45.1533 98.3446 45.42V45.96H99.6346V46.71H98.3446V51H97.4946ZM100.197 43.92H101.177V45H100.197V43.92ZM100.257 51V45.96H101.107V51H100.257ZM105.033 46.79C104.847 46.71 104.63 46.67 104.383 46.67C103.957 46.67 103.607 46.8767 103.333 47.29C103.067 47.6967 102.933 48.2933 102.933 49.08V51H102.083V45.96H102.933V46.98C103.08 46.66 103.3 46.3967 103.593 46.19C103.887 45.9833 104.19 45.88 104.503 45.88C104.723 45.88 104.917 45.91 105.083 45.97L105.033 46.79ZM107.065 51.08C106.505 51.08 106.045 50.9367 105.685 50.65C105.331 50.3633 105.091 50.0167 104.965 49.61L105.695 49.29C105.921 50.0033 106.378 50.36 107.065 50.36C107.365 50.36 107.608 50.2867 107.795 50.14C107.988 49.9867 108.085 49.8033 108.085 49.59C108.085 49.3567 107.985 49.1733 107.785 49.04C107.585 48.9067 107.341 48.8067 107.055 48.74C106.775 48.6733 106.491 48.6 106.205 48.52C105.925 48.4333 105.685 48.2833 105.485 48.07C105.285 47.8567 105.185 47.5733 105.185 47.22C105.185 46.82 105.345 46.4967 105.665 46.25C105.985 46.0033 106.415 45.88 106.955 45.88C107.401 45.88 107.798 45.9967 108.145 46.23C108.491 46.4567 108.718 46.7533 108.825 47.12L108.115 47.43C108.048 47.1767 107.901 46.9733 107.675 46.82C107.455 46.66 107.208 46.58 106.935 46.58C106.648 46.58 106.421 46.6367 106.255 46.75C106.088 46.8567 106.005 47.01 106.005 47.21C106.005 47.3767 106.075 47.5133 106.215 47.62C106.361 47.7267 106.541 47.8033 106.755 47.85C106.975 47.89 107.211 47.95 107.465 48.03C107.718 48.1033 107.951 48.1867 108.165 48.28C108.378 48.3733 108.555 48.5333 108.695 48.76C108.841 48.98 108.915 49.2533 108.915 49.58C108.915 50.02 108.745 50.38 108.405 50.66C108.065 50.94 107.618 51.08 107.065 51.08ZM112.205 50.96C111.985 51.04 111.722 51.08 111.415 51.08C110.962 51.08 110.599 50.95 110.325 50.69C110.059 50.4233 109.925 50.0233 109.925 49.49V46.71H108.985V45.96H109.925V44.43H110.775V45.96H112.125V46.71H110.775V49.52C110.775 49.78 110.842 49.9767 110.975 50.11C111.109 50.2433 111.289 50.31 111.515 50.31C111.762 50.31 111.972 50.2667 112.145 50.18L112.205 50.96ZM114.749 43.92H115.729V45H114.749V43.92ZM114.809 51V45.96H115.659V51H114.809ZM116.636 51V45.96H117.486V46.91C117.773 46.2233 118.279 45.88 119.006 45.88C119.419 45.88 119.773 45.9733 120.066 46.16C120.366 46.3467 120.559 46.6067 120.646 46.94C120.786 46.6267 120.999 46.3733 121.286 46.18C121.579 45.98 121.909 45.88 122.276 45.88C122.816 45.88 123.243 46.0367 123.556 46.35C123.876 46.6633 124.036 47.0867 124.036 47.62V51H123.186V47.79C123.186 47.4367 123.089 47.1567 122.896 46.95C122.703 46.7367 122.433 46.63 122.086 46.63C121.666 46.63 121.339 46.8 121.106 47.14C120.873 47.48 120.756 47.9233 120.756 48.47V51H119.906V47.79C119.906 47.4367 119.809 47.1567 119.616 46.95C119.429 46.7367 119.163 46.63 118.816 46.63C118.396 46.63 118.069 46.8 117.836 47.14C117.603 47.48 117.486 47.9233 117.486 48.47V51H116.636ZM125.015 52.82V45.96H125.865V46.69C126.005 46.4567 126.225 46.2633 126.525 46.11C126.832 45.9567 127.165 45.88 127.525 45.88C128.279 45.88 128.869 46.1233 129.295 46.61C129.722 47.09 129.935 47.7133 129.935 48.48C129.935 49.24 129.719 49.8633 129.285 50.35C128.852 50.8367 128.259 51.08 127.505 51.08C127.185 51.08 126.875 51.01 126.575 50.87C126.275 50.7233 126.039 50.5333 125.865 50.3V52.82H125.015ZM127.425 50.32C127.925 50.32 128.325 50.1533 128.625 49.82C128.925 49.48 129.075 49.0333 129.075 48.48C129.075 47.9267 128.925 47.4833 128.625 47.15C128.325 46.81 127.925 46.64 127.425 46.64C126.932 46.64 126.535 46.81 126.235 47.15C125.942 47.4833 125.795 47.9267 125.795 48.48C125.795 49.0333 125.942 49.48 126.235 49.82C126.535 50.1533 126.932 50.32 127.425 50.32ZM133.571 46.79C133.385 46.71 133.168 46.67 132.921 46.67C132.495 46.67 132.145 46.8767 131.871 47.29C131.605 47.6967 131.471 48.2933 131.471 49.08V51H130.621V45.96H131.471V46.98C131.618 46.66 131.838 46.3967 132.131 46.19C132.425 45.9833 132.728 45.88 133.041 45.88C133.261 45.88 133.455 45.91 133.621 45.97L133.571 46.79ZM138.375 48.25C138.375 48.39 138.368 48.52 138.355 48.64H134.375C134.402 49.1467 134.562 49.5567 134.855 49.87C135.155 50.1767 135.532 50.33 135.985 50.33C136.372 50.33 136.692 50.2433 136.945 50.07C137.198 49.8967 137.362 49.6533 137.435 49.34L138.235 49.53C138.108 50.0167 137.845 50.3967 137.445 50.67C137.052 50.9433 136.565 51.08 135.985 51.08C135.245 51.08 134.648 50.83 134.195 50.33C133.748 49.83 133.525 49.2133 133.525 48.48C133.525 47.74 133.745 47.1233 134.185 46.63C134.632 46.13 135.225 45.88 135.965 45.88C136.692 45.88 137.275 46.11 137.715 46.57C138.155 47.0233 138.375 47.5833 138.375 48.25ZM134.425 47.93H137.475C137.435 47.53 137.282 47.2067 137.015 46.96C136.748 46.7133 136.398 46.59 135.965 46.59C135.572 46.59 135.238 46.71 134.965 46.95C134.692 47.1833 134.512 47.51 134.425 47.93ZM140.71 51.08C140.15 51.08 139.69 50.9367 139.33 50.65C138.977 50.3633 138.737 50.0167 138.61 49.61L139.34 49.29C139.567 50.0033 140.024 50.36 140.71 50.36C141.01 50.36 141.254 50.2867 141.44 50.14C141.634 49.9867 141.73 49.8033 141.73 49.59C141.73 49.3567 141.63 49.1733 141.43 49.04C141.23 48.9067 140.987 48.8067 140.7 48.74C140.42 48.6733 140.137 48.6 139.85 48.52C139.57 48.4333 139.33 48.2833 139.13 48.07C138.93 47.8567 138.83 47.5733 138.83 47.22C138.83 46.82 138.99 46.4967 139.31 46.25C139.63 46.0033 140.06 45.88 140.6 45.88C141.047 45.88 141.444 45.9967 141.79 46.23C142.137 46.4567 142.364 46.7533 142.47 47.12L141.76 47.43C141.694 47.1767 141.547 46.9733 141.32 46.82C141.1 46.66 140.854 46.58 140.58 46.58C140.294 46.58 140.067 46.6367 139.9 46.75C139.734 46.8567 139.65 47.01 139.65 47.21C139.65 47.3767 139.72 47.5133 139.86 47.62C140.007 47.7267 140.187 47.8033 140.4 47.85C140.62 47.89 140.857 47.95 141.11 48.03C141.364 48.1033 141.597 48.1867 141.81 48.28C142.024 48.3733 142.2 48.5333 142.34 48.76C142.487 48.98 142.56 49.2533 142.56 49.58C142.56 50.02 142.39 50.38 142.05 50.66C141.71 50.94 141.264 51.08 140.71 51.08ZM144.93 51.08C144.37 51.08 143.91 50.9367 143.55 50.65C143.196 50.3633 142.956 50.0167 142.83 49.61L143.56 49.29C143.786 50.0033 144.243 50.36 144.93 50.36C145.23 50.36 145.473 50.2867 145.66 50.14C145.853 49.9867 145.95 49.8033 145.95 49.59C145.95 49.3567 145.85 49.1733 145.65 49.04C145.45 48.9067 145.206 48.8067 144.92 48.74C144.64 48.6733 144.356 48.6 144.07 48.52C143.79 48.4333 143.55 48.2833 143.35 48.07C143.15 47.8567 143.05 47.5733 143.05 47.22C143.05 46.82 143.21 46.4967 143.53 46.25C143.85 46.0033 144.28 45.88 144.82 45.88C145.266 45.88 145.663 45.9967 146.01 46.23C146.356 46.4567 146.583 46.7533 146.69 47.12L145.98 47.43C145.913 47.1767 145.766 46.9733 145.54 46.82C145.32 46.66 145.073 46.58 144.8 46.58C144.513 46.58 144.286 46.6367 144.12 46.75C143.953 46.8567 143.87 47.01 143.87 47.21C143.87 47.3767 143.94 47.5133 144.08 47.62C144.226 47.7267 144.406 47.8033 144.62 47.85C144.84 47.89 145.076 47.95 145.33 48.03C145.583 48.1033 145.816 48.1867 146.03 48.28C146.243 48.3733 146.42 48.5333 146.56 48.76C146.706 48.98 146.78 49.2533 146.78 49.58C146.78 50.02 146.61 50.38 146.27 50.66C145.93 50.94 145.483 51.08 144.93 51.08ZM147.399 43.92H148.379V45H147.399V43.92ZM147.459 51V45.96H148.309V51H147.459ZM153.395 50.35C152.915 50.8367 152.302 51.08 151.555 51.08C150.809 51.08 150.195 50.8367 149.715 50.35C149.235 49.8567 148.995 49.2333 148.995 48.48C148.995 47.7267 149.235 47.1067 149.715 46.62C150.195 46.1267 150.809 45.88 151.555 45.88C152.302 45.88 152.915 46.1267 153.395 46.62C153.882 47.1067 154.125 47.7267 154.125 48.48C154.125 49.2333 153.882 49.8567 153.395 50.35ZM150.335 49.81C150.649 50.15 151.055 50.32 151.555 50.32C152.055 50.32 152.462 50.15 152.775 49.81C153.089 49.4633 153.245 49.02 153.245 48.48C153.245 47.94 153.089 47.5 152.775 47.16C152.462 46.8133 152.055 46.64 151.555 46.64C151.055 46.64 150.649 46.8133 150.335 47.16C150.022 47.5 149.865 47.94 149.865 48.48C149.865 49.02 150.022 49.4633 150.335 49.81ZM154.813 51V45.96H155.663V46.91C155.843 46.5967 156.083 46.3467 156.383 46.16C156.683 45.9733 157.02 45.88 157.393 45.88C157.92 45.88 158.35 46.0433 158.683 46.37C159.023 46.6967 159.193 47.1267 159.193 47.66V51H158.343V47.82C158.343 47.4733 158.24 47.1933 158.033 46.98C157.826 46.76 157.55 46.65 157.203 46.65C156.73 46.65 156.353 46.8433 156.073 47.23C155.8 47.61 155.663 48.13 155.663 48.79V51H154.813Z" fill="#D7D7F9"/>
<rect y="80" width="226" height="146" rx="10" fill="#F0F0F0"/>
<g opacity="0.44">
<path d="M20.5 117.25C25.3125 117.25 29.25 113.312 29.25 108.5C29.25 103.688 25.3125 99.75 20.5 99.75C15.6875 99.75 11.75 103.688 11.75 108.5C11.75 113.312 15.6875 117.25 20.5 117.25Z" stroke="#333F48" stroke-width="1.3125" stroke-linecap="round" stroke-linejoin="round"/>
<path d="M16.7812 108.5L19.2575 110.976L24.2188 106.023" stroke="#333F48" stroke-width="1.3125" stroke-linecap="round" stroke-linejoin="round"/>
<path d="M41.4134 113V103.2H44.3254C45.744 103.2 46.9154 103.634 47.8394 104.502C48.7727 105.37 49.2394 106.569 49.2394 108.1C49.2394 109.631 48.7727 110.83 47.8394 111.698C46.9154 112.566 45.744 113 44.3254 113H41.4134ZM42.6734 111.852H44.2834C45.3194 111.852 46.1827 111.539 46.8734 110.914C47.5734 110.289 47.9234 109.351 47.9234 108.1C47.9234 107.251 47.746 106.537 47.3914 105.958C47.046 105.37 46.6074 104.955 46.0754 104.712C45.5434 104.46 44.946 104.334 44.2834 104.334H42.6734V111.852ZM56.8813 109.15C56.8813 109.346 56.8719 109.528 56.8533 109.696H51.2813C51.3186 110.405 51.5426 110.979 51.9533 111.418C52.3733 111.847 52.9006 112.062 53.5353 112.062C54.0766 112.062 54.5246 111.941 54.8793 111.698C55.2339 111.455 55.4626 111.115 55.5653 110.676L56.6853 110.942C56.5079 111.623 56.1393 112.155 55.5793 112.538C55.0286 112.921 54.3473 113.112 53.5353 113.112C52.4993 113.112 51.6639 112.762 51.0293 112.062C50.4039 111.362 50.0913 110.499 50.0913 109.472C50.0913 108.436 50.3993 107.573 51.0153 106.882C51.6406 106.182 52.4713 105.832 53.5073 105.832C54.5246 105.832 55.3413 106.154 55.9573 106.798C56.5733 107.433 56.8813 108.217 56.8813 109.15ZM51.3513 108.702H55.6213C55.5653 108.142 55.3506 107.689 54.9773 107.344C54.6039 106.999 54.1139 106.826 53.5073 106.826C52.9566 106.826 52.4899 106.994 52.1073 107.33C51.7246 107.657 51.4726 108.114 51.3513 108.702ZM60.4309 113.112C59.6469 113.112 59.0029 112.911 58.4989 112.51C58.0043 112.109 57.6683 111.623 57.4909 111.054L58.5129 110.606C58.8303 111.605 59.4696 112.104 60.4309 112.104C60.8509 112.104 61.1916 112.001 61.4529 111.796C61.7236 111.581 61.8589 111.325 61.8589 111.026C61.8589 110.699 61.7189 110.443 61.4389 110.256C61.1589 110.069 60.8183 109.929 60.4169 109.836C60.0249 109.743 59.6283 109.64 59.2269 109.528C58.8349 109.407 58.4989 109.197 58.2189 108.898C57.9389 108.599 57.7989 108.203 57.7989 107.708C57.7989 107.148 58.0229 106.695 58.4709 106.35C58.9189 106.005 59.5209 105.832 60.2769 105.832C60.9023 105.832 61.4576 105.995 61.9429 106.322C62.4283 106.639 62.7456 107.055 62.8949 107.568L61.9009 108.002C61.8076 107.647 61.6023 107.363 61.2849 107.148C60.9769 106.924 60.6316 106.812 60.2489 106.812C59.8476 106.812 59.5303 106.891 59.2969 107.05C59.0636 107.199 58.9469 107.414 58.9469 107.694C58.9469 107.927 59.0449 108.119 59.2409 108.268C59.4463 108.417 59.6983 108.525 59.9969 108.59C60.3049 108.646 60.6363 108.73 60.9909 108.842C61.3456 108.945 61.6723 109.061 61.9709 109.192C62.2696 109.323 62.5169 109.547 62.7129 109.864C62.9183 110.172 63.0209 110.555 63.0209 111.012C63.0209 111.628 62.7829 112.132 62.3069 112.524C61.8309 112.916 61.2056 113.112 60.4309 113.112ZM64.1677 103.088H65.5397V104.6H64.1677V103.088ZM64.2517 113V105.944H65.4417V113H64.2517ZM72.2969 105.944H73.4729V112.664C73.4729 113.551 73.1649 114.269 72.5489 114.82C71.9423 115.38 71.1536 115.66 70.1829 115.66C69.3616 115.66 68.6616 115.459 68.0829 115.058C67.5043 114.666 67.1636 114.153 67.0609 113.518L68.2089 113.322C68.2463 113.714 68.4469 114.031 68.8109 114.274C69.1843 114.526 69.6416 114.652 70.1829 114.652C70.8083 114.652 71.3169 114.479 71.7089 114.134C72.1009 113.789 72.2969 113.341 72.2969 112.79V111.81C72.1383 112.109 71.8489 112.351 71.4289 112.538C71.0089 112.725 70.5469 112.818 70.0429 112.818C68.9883 112.818 68.1623 112.496 67.5649 111.852C66.9769 111.199 66.6829 110.359 66.6829 109.332C66.6829 108.296 66.9769 107.456 67.5649 106.812C68.1529 106.159 68.9696 105.832 70.0149 105.832C70.4816 105.832 70.9249 105.935 71.3449 106.14C71.7649 106.336 72.0823 106.588 72.2969 106.896V105.944ZM68.5169 111.096C68.9276 111.535 69.4736 111.754 70.1549 111.754C70.8363 111.754 71.3776 111.535 71.7789 111.096C72.1896 110.657 72.3949 110.069 72.3949 109.332C72.3949 108.595 72.1896 108.007 71.7789 107.568C71.3776 107.12 70.8363 106.896 70.1549 106.896C69.4643 106.896 68.9136 107.12 68.5029 107.568C68.1016 108.007 67.9009 108.595 67.9009 109.332C67.9009 110.069 68.1063 110.657 68.5169 111.096ZM75.1214 113V105.944H76.3114V107.274C76.5634 106.835 76.8994 106.485 77.3194 106.224C77.7394 105.963 78.2108 105.832 78.7334 105.832C79.4708 105.832 80.0728 106.061 80.5394 106.518C81.0154 106.975 81.2534 107.577 81.2534 108.324V113H80.0634V108.548C80.0634 108.063 79.9188 107.671 79.6294 107.372C79.3401 107.064 78.9528 106.91 78.4674 106.91C77.8048 106.91 77.2774 107.181 76.8854 107.722C76.5028 108.254 76.3114 108.982 76.3114 109.906V113H75.1214ZM88.4128 113V104.334H85.2908V103.2H92.7948V104.334H89.6868V113H88.4128ZM93.7502 113V103.088H94.9402V107.33C95.4535 106.331 96.2562 105.832 97.3482 105.832C98.1508 105.832 98.7902 106.061 99.2662 106.518C99.7515 106.975 99.9942 107.587 99.9942 108.352V113H98.8042V108.576C98.8042 108.053 98.6502 107.647 98.3422 107.358C98.0435 107.059 97.6235 106.91 97.0822 106.91C96.4288 106.91 95.9062 107.185 95.5142 107.736C95.1315 108.287 94.9402 109.033 94.9402 109.976V113H93.7502ZM104.278 105.832C105.146 105.832 105.846 106.07 106.378 106.546C106.91 107.022 107.176 107.666 107.176 108.478V113H106V111.796C105.795 112.197 105.477 112.519 105.048 112.762C104.628 112.995 104.161 113.112 103.648 113.112C102.948 113.112 102.374 112.921 101.926 112.538C101.487 112.146 101.268 111.642 101.268 111.026C101.268 109.701 102.388 108.926 104.628 108.702L106 108.548V108.408C106 107.923 105.841 107.54 105.524 107.26C105.216 106.971 104.801 106.826 104.278 106.826C103.793 106.826 103.391 106.961 103.074 107.232C102.757 107.503 102.575 107.876 102.528 108.352L101.422 108.142C101.525 107.442 101.837 106.882 102.36 106.462C102.892 106.042 103.531 105.832 104.278 105.832ZM103.83 112.132C104.511 112.132 105.043 111.922 105.426 111.502C105.809 111.082 106 110.517 106 109.808V109.472L104.628 109.626C103.181 109.785 102.458 110.247 102.458 111.012C102.458 111.339 102.584 111.609 102.836 111.824C103.097 112.029 103.429 112.132 103.83 112.132ZM112.542 112.944C112.234 113.056 111.865 113.112 111.436 113.112C110.801 113.112 110.292 112.93 109.91 112.566C109.536 112.193 109.35 111.633 109.35 110.886V106.994H108.034V105.944H109.35V103.802H110.54V105.944H112.43V106.994H110.54V110.928C110.54 111.292 110.633 111.567 110.82 111.754C111.006 111.941 111.258 112.034 111.576 112.034C111.921 112.034 112.215 111.973 112.458 111.852L112.542 112.944ZM119.911 113.112C118.969 113.112 118.152 112.837 117.461 112.286C116.771 111.726 116.346 110.998 116.187 110.102L117.391 109.71C117.485 110.391 117.769 110.942 118.245 111.362C118.721 111.773 119.286 111.978 119.939 111.978C120.611 111.978 121.148 111.833 121.549 111.544C121.951 111.245 122.151 110.853 122.151 110.368C122.151 109.967 122.011 109.631 121.731 109.36C121.461 109.08 121.12 108.879 120.709 108.758C120.299 108.627 119.851 108.483 119.365 108.324C118.88 108.165 118.432 108.002 118.021 107.834C117.611 107.666 117.265 107.395 116.985 107.022C116.715 106.649 116.579 106.191 116.579 105.65C116.579 104.894 116.887 104.278 117.503 103.802C118.119 103.326 118.913 103.088 119.883 103.088C120.779 103.088 121.545 103.312 122.179 103.76C122.814 104.199 123.192 104.782 123.313 105.51L122.151 105.958C122.049 105.426 121.797 105.006 121.395 104.698C121.003 104.381 120.499 104.222 119.883 104.222C119.258 104.222 118.763 104.353 118.399 104.614C118.045 104.866 117.867 105.211 117.867 105.65C117.867 105.949 117.97 106.201 118.175 106.406C118.381 106.611 118.647 106.77 118.973 106.882C119.309 106.994 119.673 107.101 120.065 107.204C120.467 107.307 120.863 107.428 121.255 107.568C121.657 107.708 122.021 107.885 122.347 108.1C122.683 108.305 122.954 108.599 123.159 108.982C123.365 109.365 123.467 109.822 123.467 110.354C123.467 111.185 123.141 111.852 122.487 112.356C121.843 112.86 120.985 113.112 119.911 113.112ZM124.67 115.548V105.944H125.86V106.966C126.056 106.639 126.364 106.369 126.784 106.154C127.214 105.939 127.68 105.832 128.184 105.832C129.239 105.832 130.065 106.173 130.662 106.854C131.26 107.526 131.558 108.399 131.558 109.472C131.558 110.536 131.255 111.409 130.648 112.09C130.042 112.771 129.211 113.112 128.156 113.112C127.708 113.112 127.274 113.014 126.854 112.818C126.434 112.613 126.103 112.347 125.86 112.02V115.548H124.67ZM128.044 112.048C128.744 112.048 129.304 111.815 129.724 111.348C130.144 110.872 130.354 110.247 130.354 109.472C130.354 108.697 130.144 108.077 129.724 107.61C129.304 107.134 128.744 106.896 128.044 106.896C127.354 106.896 126.798 107.134 126.378 107.61C125.968 108.077 125.762 108.697 125.762 109.472C125.762 110.247 125.968 110.872 126.378 111.348C126.798 111.815 127.354 112.048 128.044 112.048ZM139.183 109.15C139.183 109.346 139.173 109.528 139.155 109.696H133.583C133.62 110.405 133.844 110.979 134.255 111.418C134.675 111.847 135.202 112.062 135.837 112.062C136.378 112.062 136.826 111.941 137.181 111.698C137.535 111.455 137.764 111.115 137.867 110.676L138.987 110.942C138.809 111.623 138.441 112.155 137.881 112.538C137.33 112.921 136.649 113.112 135.837 113.112C134.801 113.112 133.965 112.762 133.331 112.062C132.705 111.362 132.393 110.499 132.393 109.472C132.393 108.436 132.701 107.573 133.317 106.882C133.942 106.182 134.773 105.832 135.809 105.832C136.826 105.832 137.643 106.154 138.259 106.798C138.875 107.433 139.183 108.217 139.183 109.15ZM133.653 108.702H137.923C137.867 108.142 137.652 107.689 137.279 107.344C136.905 106.999 136.415 106.826 135.809 106.826C135.258 106.826 134.791 106.994 134.409 107.33C134.026 107.657 133.774 108.114 133.653 108.702ZM142.998 105.832C143.866 105.832 144.566 106.07 145.098 106.546C145.63 107.022 145.896 107.666 145.896 108.478V113H144.72V111.796C144.515 112.197 144.198 112.519 143.768 112.762C143.348 112.995 142.882 113.112 142.368 113.112C141.668 113.112 141.094 112.921 140.646 112.538C140.208 112.146 139.988 111.642 139.988 111.026C139.988 109.701 141.108 108.926 143.348 108.702L144.72 108.548V108.408C144.72 107.923 144.562 107.54 144.244 107.26C143.936 106.971 143.521 106.826 142.998 106.826C142.513 106.826 142.112 106.961 141.794 107.232C141.477 107.503 141.295 107.876 141.248 108.352L140.142 108.142C140.245 107.442 140.558 106.882 141.08 106.462C141.612 106.042 142.252 105.832 142.998 105.832ZM142.55 112.132C143.232 112.132 143.764 111.922 144.146 111.502C144.529 111.082 144.72 110.517 144.72 109.808V109.472L143.348 109.626C141.902 109.785 141.178 110.247 141.178 111.012C141.178 111.339 141.304 111.609 141.556 111.824C141.818 112.029 142.149 112.132 142.55 112.132ZM152.353 113L149.693 109.528L148.755 110.382V113H147.551V103.088H148.755V108.814L152.017 105.944H153.599L150.575 108.73L153.837 113H152.353ZM156.911 113.112C156.127 113.112 155.483 112.911 154.979 112.51C154.484 112.109 154.148 111.623 153.971 111.054L154.993 110.606C155.31 111.605 155.949 112.104 156.911 112.104C157.331 112.104 157.671 112.001 157.933 111.796C158.203 111.581 158.339 111.325 158.339 111.026C158.339 110.699 158.199 110.443 157.919 110.256C157.639 110.069 157.298 109.929 156.897 109.836C156.505 109.743 156.108 109.64 155.707 109.528C155.315 109.407 154.979 109.197 154.699 108.898C154.419 108.599 154.279 108.203 154.279 107.708C154.279 107.148 154.503 106.695 154.951 106.35C155.399 106.005 156.001 105.832 156.757 105.832C157.382 105.832 157.937 105.995 158.423 106.322C158.908 106.639 159.225 107.055 159.375 107.568L158.381 108.002C158.287 107.647 158.082 107.363 157.765 107.148C157.457 106.924 157.111 106.812 156.729 106.812C156.327 106.812 156.01 106.891 155.777 107.05C155.543 107.199 155.427 107.414 155.427 107.694C155.427 107.927 155.525 108.119 155.721 108.268C155.926 108.417 156.178 108.525 156.477 108.59C156.785 108.646 157.116 108.73 157.471 108.842C157.825 108.945 158.152 109.061 158.451 109.192C158.749 109.323 158.997 109.547 159.193 109.864C159.398 110.172 159.501 110.555 159.501 111.012C159.501 111.628 159.263 112.132 158.787 112.524C158.311 112.916 157.685 113.112 156.911 113.112ZM166.67 113L162.988 103.2H164.29L167.314 111.53L170.352 103.2H171.654L167.972 113H166.67ZM177.218 112.09C176.546 112.771 175.688 113.112 174.642 113.112C173.597 113.112 172.738 112.771 172.066 112.09C171.394 111.399 171.058 110.527 171.058 109.472C171.058 108.417 171.394 107.549 172.066 106.868C172.738 106.177 173.597 105.832 174.642 105.832C175.688 105.832 176.546 106.177 177.218 106.868C177.9 107.549 178.24 108.417 178.24 109.472C178.24 110.527 177.9 111.399 177.218 112.09ZM172.934 111.334C173.373 111.81 173.942 112.048 174.642 112.048C175.342 112.048 175.912 111.81 176.35 111.334C176.789 110.849 177.008 110.228 177.008 109.472C177.008 108.716 176.789 108.1 176.35 107.624C175.912 107.139 175.342 106.896 174.642 106.896C173.942 106.896 173.373 107.139 172.934 107.624C172.496 108.1 172.276 108.716 172.276 109.472C172.276 110.228 172.496 110.849 172.934 111.334ZM179.483 113V103.088H180.673V113H179.483ZM188.452 105.944V113H187.262V111.67C187.01 112.109 186.674 112.459 186.254 112.72C185.834 112.981 185.363 113.112 184.84 113.112C184.103 113.112 183.496 112.883 183.02 112.426C182.554 111.969 182.32 111.367 182.32 110.62V105.944H183.51V110.396C183.51 110.881 183.655 111.278 183.944 111.586C184.234 111.885 184.621 112.034 185.106 112.034C185.769 112.034 186.292 111.768 186.674 111.236C187.066 110.695 187.262 109.962 187.262 109.038V105.944H188.452ZM190.107 113V105.944H191.297V107.274C191.698 106.313 192.407 105.832 193.425 105.832C194.003 105.832 194.498 105.963 194.909 106.224C195.329 106.485 195.599 106.849 195.721 107.316C195.917 106.877 196.215 106.523 196.617 106.252C197.027 105.972 197.489 105.832 198.003 105.832C198.759 105.832 199.356 106.051 199.795 106.49C200.243 106.929 200.467 107.521 200.467 108.268V113H199.277V108.506C199.277 108.011 199.141 107.619 198.871 107.33C198.6 107.031 198.222 106.882 197.737 106.882C197.149 106.882 196.691 107.12 196.365 107.596C196.038 108.072 195.875 108.693 195.875 109.458V113H194.685V108.506C194.685 108.011 194.549 107.619 194.279 107.33C194.017 107.031 193.644 106.882 193.159 106.882C192.571 106.882 192.113 107.12 191.787 107.596C191.46 108.072 191.297 108.693 191.297 109.458V113H190.107ZM208.502 109.15C208.502 109.346 208.492 109.528 208.474 109.696H202.902C202.939 110.405 203.163 110.979 203.574 111.418C203.994 111.847 204.521 112.062 205.156 112.062C205.697 112.062 206.145 111.941 206.5 111.698C206.854 111.455 207.083 111.115 207.186 110.676L208.306 110.942C208.128 111.623 207.76 112.155 207.2 112.538C206.649 112.921 205.968 113.112 205.156 113.112C204.12 113.112 203.284 112.762 202.65 112.062C202.024 111.362 201.712 110.499 201.712 109.472C201.712 108.436 202.02 107.573 202.636 106.882C203.261 106.182 204.092 105.832 205.128 105.832C206.145 105.832 206.962 106.154 207.578 106.798C208.194 107.433 208.502 108.217 208.502 109.15ZM202.972 108.702H207.242C207.186 108.142 206.971 107.689 206.598 107.344C206.224 106.999 205.734 106.826 205.128 106.826C204.577 106.826 204.11 106.994 203.728 107.33C203.345 107.657 203.093 108.114 202.972 108.702ZM212.051 113.112C211.267 113.112 210.623 112.911 210.119 112.51C209.625 112.109 209.289 111.623 209.111 111.054L210.133 110.606C210.451 111.605 211.09 112.104 212.051 112.104C212.471 112.104 212.812 112.001 213.073 111.796C213.344 111.581 213.479 111.325 213.479 111.026C213.479 110.699 213.339 110.443 213.059 110.256C212.779 110.069 212.439 109.929 212.037 109.836C211.645 109.743 211.249 109.64 210.847 109.528C210.455 109.407 210.119 109.197 209.839 108.898C209.559 108.599 209.419 108.203 209.419 107.708C209.419 107.148 209.643 106.695 210.091 106.35C210.539 106.005 211.141 105.832 211.897 105.832C212.523 105.832 213.078 105.995 213.563 106.322C214.049 106.639 214.366 107.055 214.515 107.568L213.521 108.002C213.428 107.647 213.223 107.363 212.905 107.148C212.597 106.924 212.252 106.812 211.869 106.812C211.468 106.812 211.151 106.891 210.917 107.05C210.684 107.199 210.567 107.414 210.567 107.694C210.567 107.927 210.665 108.119 210.861 108.268C211.067 108.417 211.319 108.525 211.617 108.59C211.925 108.646 212.257 108.73 212.611 108.842C212.966 108.945 213.293 109.061 213.591 109.192C213.89 109.323 214.137 109.547 214.333 109.864C214.539 110.172 214.641 110.555 214.641 111.012C214.641 111.628 214.403 112.132 213.927 112.524C213.451 112.916 212.826 113.112 212.051 113.112Z" fill="#333F48"/>
<path d="M20.5 154.25C25.3125 154.25 29.25 150.312 29.25 145.5C29.25 140.688 25.3125 136.75 20.5 136.75C15.6875 136.75 11.75 140.688 11.75 145.5C11.75 150.312 15.6875 154.25 20.5 154.25Z" stroke="#333F48" stroke-width="1.3125" stroke-linecap="round" stroke-linejoin="round"/>
<path d="M16.7812 145.5L19.2575 147.976L24.2188 143.023" stroke="#333F48" stroke-width="1.3125" stroke-linecap="round" stroke-linejoin="round"/>
<path d="M41.4134 150V140.2H42.6874V148.852H47.5454V150H41.4134ZM54.1868 149.09C53.5148 149.771 52.6562 150.112 51.6108 150.112C50.5655 150.112 49.7068 149.771 49.0348 149.09C48.3628 148.399 48.0268 147.527 48.0268 146.472C48.0268 145.417 48.3628 144.549 49.0348 143.868C49.7068 143.177 50.5655 142.832 51.6108 142.832C52.6562 142.832 53.5148 143.177 54.1868 143.868C54.8682 144.549 55.2088 145.417 55.2088 146.472C55.2088 147.527 54.8682 148.399 54.1868 149.09ZM49.9028 148.334C50.3415 148.81 50.9108 149.048 51.6108 149.048C52.3108 149.048 52.8802 148.81 53.3188 148.334C53.7575 147.849 53.9768 147.228 53.9768 146.472C53.9768 145.716 53.7575 145.1 53.3188 144.624C52.8802 144.139 52.3108 143.896 51.6108 143.896C50.9108 143.896 50.3415 144.139 49.9028 144.624C49.4642 145.1 49.2448 145.716 49.2448 146.472C49.2448 147.228 49.4642 147.849 49.9028 148.334ZM62.2057 149.09C61.5337 149.771 60.675 150.112 59.6297 150.112C58.5843 150.112 57.7257 149.771 57.0537 149.09C56.3817 148.399 56.0457 147.527 56.0457 146.472C56.0457 145.417 56.3817 144.549 57.0537 143.868C57.7257 143.177 58.5843 142.832 59.6297 142.832C60.675 142.832 61.5337 143.177 62.2057 143.868C62.887 144.549 63.2277 145.417 63.2277 146.472C63.2277 147.527 62.887 148.399 62.2057 149.09ZM57.9217 148.334C58.3603 148.81 58.9297 149.048 59.6297 149.048C60.3297 149.048 60.899 148.81 61.3377 148.334C61.7763 147.849 61.9957 147.228 61.9957 146.472C61.9957 145.716 61.7763 145.1 61.3377 144.624C60.899 144.139 60.3297 143.896 59.6297 143.896C58.9297 143.896 58.3603 144.139 57.9217 144.624C57.483 145.1 57.2637 145.716 57.2637 146.472C57.2637 147.228 57.483 147.849 57.9217 148.334ZM69.2725 150L66.6125 146.528L65.6745 147.382V150H64.4705V140.088H65.6745V145.814L68.9365 142.944H70.5185L67.4945 145.73L70.7565 150H69.2725ZM74.7809 150V140.2H78.5049C79.4569 140.2 80.2176 140.461 80.7869 140.984C81.3563 141.497 81.6409 142.183 81.6409 143.042C81.6409 143.901 81.3563 144.591 80.7869 145.114C80.2176 145.627 79.4569 145.884 78.5049 145.884H76.0549V150H74.7809ZM76.0549 144.736H78.4629C79.0416 144.736 79.4943 144.587 79.8209 144.288C80.1569 143.989 80.3249 143.574 80.3249 143.042C80.3249 142.51 80.1569 142.095 79.8209 141.796C79.4943 141.488 79.0416 141.334 78.4629 141.334H76.0549V144.736ZM86.8054 144.106C86.5441 143.994 86.2407 143.938 85.8954 143.938C85.2981 143.938 84.8081 144.227 84.4254 144.806C84.0521 145.375 83.8654 146.211 83.8654 147.312V150H82.6754V142.944H83.8654V144.372C84.0707 143.924 84.3787 143.555 84.7894 143.266C85.2001 142.977 85.6247 142.832 86.0634 142.832C86.3714 142.832 86.6421 142.874 86.8754 142.958L86.8054 144.106ZM93.1807 149.09C92.5087 149.771 91.65 150.112 90.6047 150.112C89.5593 150.112 88.7007 149.771 88.0287 149.09C87.3567 148.399 87.0207 147.527 87.0207 146.472C87.0207 145.417 87.3567 144.549 88.0287 143.868C88.7007 143.177 89.5593 142.832 90.6047 142.832C91.65 142.832 92.5087 143.177 93.1807 143.868C93.862 144.549 94.2027 145.417 94.2027 146.472C94.2027 147.527 93.862 148.399 93.1807 149.09ZM88.8967 148.334C89.3353 148.81 89.9047 149.048 90.6047 149.048C91.3047 149.048 91.874 148.81 92.3127 148.334C92.7513 147.849 92.9707 147.228 92.9707 146.472C92.9707 145.716 92.7513 145.1 92.3127 144.624C91.874 144.139 91.3047 143.896 90.6047 143.896C89.9047 143.896 89.3353 144.139 88.8967 144.624C88.458 145.1 88.2387 145.716 88.2387 146.472C88.2387 147.228 88.458 147.849 88.8967 148.334ZM95.9541 150V143.994H94.7501V142.944H95.9541V142.286C95.9541 141.53 96.1454 140.947 96.5281 140.536C96.9107 140.116 97.4147 139.906 98.0401 139.906C98.4134 139.906 98.7307 139.943 98.9921 140.018L98.9361 141.082C98.6934 140.989 98.4461 140.942 98.1941 140.942C97.8767 140.942 97.6201 141.059 97.4241 141.292C97.2374 141.516 97.1441 141.815 97.1441 142.188V142.944H98.9501V143.994H97.1441V150H95.9541ZM106.02 146.15C106.02 146.346 106.011 146.528 105.992 146.696H100.42C100.458 147.405 100.682 147.979 101.092 148.418C101.512 148.847 102.04 149.062 102.674 149.062C103.216 149.062 103.664 148.941 104.018 148.698C104.373 148.455 104.602 148.115 104.704 147.676L105.824 147.942C105.647 148.623 105.278 149.155 104.718 149.538C104.168 149.921 103.486 150.112 102.674 150.112C101.638 150.112 100.803 149.762 100.168 149.062C99.5429 148.362 99.2302 147.499 99.2302 146.472C99.2302 145.436 99.5382 144.573 100.154 143.882C100.78 143.182 101.61 142.832 102.646 142.832C103.664 142.832 104.48 143.154 105.096 143.798C105.712 144.433 106.02 145.217 106.02 146.15ZM100.49 145.702H104.76C104.704 145.142 104.49 144.689 104.116 144.344C103.743 143.999 103.253 143.826 102.646 143.826C102.096 143.826 101.629 143.994 101.246 144.33C100.864 144.657 100.612 145.114 100.49 145.702ZM109.57 150.112C108.786 150.112 108.142 149.911 107.638 149.51C107.143 149.109 106.807 148.623 106.63 148.054L107.652 147.606C107.969 148.605 108.609 149.104 109.57 149.104C109.99 149.104 110.331 149.001 110.592 148.796C110.863 148.581 110.998 148.325 110.998 148.026C110.998 147.699 110.858 147.443 110.578 147.256C110.298 147.069 109.957 146.929 109.556 146.836C109.164 146.743 108.767 146.64 108.366 146.528C107.974 146.407 107.638 146.197 107.358 145.898C107.078 145.599 106.938 145.203 106.938 144.708C106.938 144.148 107.162 143.695 107.61 143.35C108.058 143.005 108.66 142.832 109.416 142.832C110.041 142.832 110.597 142.995 111.082 143.322C111.567 143.639 111.885 144.055 112.034 144.568L111.04 145.002C110.947 144.647 110.741 144.363 110.424 144.148C110.116 143.924 109.771 143.812 109.388 143.812C108.987 143.812 108.669 143.891 108.436 144.05C108.203 144.199 108.086 144.414 108.086 144.694C108.086 144.927 108.184 145.119 108.38 145.268C108.585 145.417 108.837 145.525 109.136 145.59C109.444 145.646 109.775 145.73 110.13 145.842C110.485 145.945 110.811 146.061 111.11 146.192C111.409 146.323 111.656 146.547 111.852 146.864C112.057 147.172 112.16 147.555 112.16 148.012C112.16 148.628 111.922 149.132 111.446 149.524C110.97 149.916 110.345 150.112 109.57 150.112ZM115.757 150.112C114.973 150.112 114.329 149.911 113.825 149.51C113.33 149.109 112.994 148.623 112.817 148.054L113.839 147.606C114.156 148.605 114.795 149.104 115.757 149.104C116.177 149.104 116.517 149.001 116.779 148.796C117.049 148.581 117.185 148.325 117.185 148.026C117.185 147.699 117.045 147.443 116.765 147.256C116.485 147.069 116.144 146.929 115.743 146.836C115.351 146.743 114.954 146.64 114.553 146.528C114.161 146.407 113.825 146.197 113.545 145.898C113.265 145.599 113.125 145.203 113.125 144.708C113.125 144.148 113.349 143.695 113.797 143.35C114.245 143.005 114.847 142.832 115.603 142.832C116.228 142.832 116.783 142.995 117.269 143.322C117.754 143.639 118.071 144.055 118.221 144.568L117.227 145.002C117.133 144.647 116.928 144.363 116.611 144.148C116.303 143.924 115.957 143.812 115.575 143.812C115.173 143.812 114.856 143.891 114.623 144.05C114.389 144.199 114.273 144.414 114.273 144.694C114.273 144.927 114.371 145.119 114.567 145.268C114.772 145.417 115.024 145.525 115.323 145.59C115.631 145.646 115.962 145.73 116.317 145.842C116.671 145.945 116.998 146.061 117.297 146.192C117.595 146.323 117.843 146.547 118.039 146.864C118.244 147.172 118.347 147.555 118.347 148.012C118.347 148.628 118.109 149.132 117.633 149.524C117.157 149.916 116.531 150.112 115.757 150.112ZM119.493 140.088H120.865V141.6H119.493V140.088ZM119.577 150V142.944H120.767V150H119.577ZM128.169 149.09C127.497 149.771 126.638 150.112 125.593 150.112C124.547 150.112 123.689 149.771 123.017 149.09C122.345 148.399 122.009 147.527 122.009 146.472C122.009 145.417 122.345 144.549 123.017 143.868C123.689 143.177 124.547 142.832 125.593 142.832C126.638 142.832 127.497 143.177 128.169 143.868C128.85 144.549 129.191 145.417 129.191 146.472C129.191 147.527 128.85 148.399 128.169 149.09ZM123.885 148.334C124.323 148.81 124.893 149.048 125.593 149.048C126.293 149.048 126.862 148.81 127.301 148.334C127.739 147.849 127.959 147.228 127.959 146.472C127.959 145.716 127.739 145.1 127.301 144.624C126.862 144.139 126.293 143.896 125.593 143.896C124.893 143.896 124.323 144.139 123.885 144.624C123.446 145.1 123.227 145.716 123.227 146.472C123.227 147.228 123.446 147.849 123.885 148.334ZM130.433 150V142.944H131.623V144.274C131.875 143.835 132.211 143.485 132.631 143.224C133.051 142.963 133.523 142.832 134.045 142.832C134.783 142.832 135.385 143.061 135.851 143.518C136.327 143.975 136.565 144.577 136.565 145.324V150H135.375V145.548C135.375 145.063 135.231 144.671 134.941 144.372C134.652 144.064 134.265 143.91 133.779 143.91C133.117 143.91 132.589 144.181 132.197 144.722C131.815 145.254 131.623 145.982 131.623 146.906V150H130.433ZM140.852 142.832C141.72 142.832 142.42 143.07 142.952 143.546C143.484 144.022 143.75 144.666 143.75 145.478V150H142.574V148.796C142.369 149.197 142.051 149.519 141.622 149.762C141.202 149.995 140.735 150.112 140.222 150.112C139.522 150.112 138.948 149.921 138.5 149.538C138.061 149.146 137.842 148.642 137.842 148.026C137.842 146.701 138.962 145.926 141.202 145.702L142.574 145.548V145.408C142.574 144.923 142.415 144.54 142.098 144.26C141.79 143.971 141.375 143.826 140.852 143.826C140.367 143.826 139.965 143.961 139.648 144.232C139.331 144.503 139.149 144.876 139.102 145.352L137.996 145.142C138.099 144.442 138.411 143.882 138.934 143.462C139.466 143.042 140.105 142.832 140.852 142.832ZM140.404 149.132C141.085 149.132 141.617 148.922 142 148.502C142.383 148.082 142.574 147.517 142.574 146.808V146.472L141.202 146.626C139.755 146.785 139.032 147.247 139.032 148.012C139.032 148.339 139.158 148.609 139.41 148.824C139.671 149.029 140.003 149.132 140.404 149.132ZM145.405 150V140.088H146.595V150H145.405ZM147.668 151.484L148.48 148.544H150.076L148.508 151.484H147.668ZM154.711 150V140.2H158.253C159.186 140.2 159.919 140.424 160.451 140.872C160.983 141.311 161.249 141.927 161.249 142.72C161.249 143.149 161.123 143.541 160.871 143.896C160.619 144.241 160.315 144.489 159.961 144.638C161.109 145.039 161.683 145.875 161.683 147.144C161.683 148.031 161.398 148.731 160.829 149.244C160.259 149.748 159.471 150 158.463 150H154.711ZM155.971 144.232H158.197C159.391 144.232 159.989 143.742 159.989 142.762C159.989 141.782 159.391 141.292 158.197 141.292H155.971V144.232ZM155.971 148.852H158.253C159.69 148.852 160.409 148.273 160.409 147.116C160.409 145.94 159.69 145.352 158.253 145.352H155.971V148.852ZM169.079 142.944V150H167.889V148.67C167.637 149.109 167.301 149.459 166.881 149.72C166.461 149.981 165.989 150.112 165.467 150.112C164.729 150.112 164.123 149.883 163.647 149.426C163.18 148.969 162.947 148.367 162.947 147.62V142.944H164.137V147.396C164.137 147.881 164.281 148.278 164.571 148.586C164.86 148.885 165.247 149.034 165.733 149.034C166.395 149.034 166.918 148.768 167.301 148.236C167.693 147.695 167.889 146.962 167.889 146.038V142.944H169.079ZM170.649 140.088H172.021V141.6H170.649V140.088ZM170.733 150V142.944H171.923V150H170.733ZM173.57 150V140.088H174.76V150H173.57ZM179.404 150.112C178.34 150.112 177.504 149.776 176.898 149.104C176.3 148.423 176.002 147.545 176.002 146.472C176.002 145.399 176.3 144.526 176.898 143.854C177.495 143.173 178.326 142.832 179.39 142.832C179.856 142.832 180.3 142.935 180.72 143.14C181.149 143.345 181.476 143.616 181.7 143.952V140.088H182.89V150H181.7V148.978C181.541 149.305 181.247 149.575 180.818 149.79C180.388 150.005 179.917 150.112 179.404 150.112ZM177.85 148.348C178.27 148.815 178.825 149.048 179.516 149.048C180.206 149.048 180.762 148.815 181.182 148.348C181.602 147.872 181.812 147.247 181.812 146.472C181.812 145.697 181.602 145.077 181.182 144.61C180.762 144.134 180.206 143.896 179.516 143.896C178.825 143.896 178.27 144.134 177.85 144.61C177.43 145.077 177.22 145.697 177.22 146.472C177.22 147.247 177.43 147.872 177.85 148.348ZM190.041 150V141.334H186.919V140.2H194.423V141.334H191.315V150H190.041ZM198.756 144.106C198.495 143.994 198.192 143.938 197.846 143.938C197.249 143.938 196.759 144.227 196.376 144.806C196.003 145.375 195.816 146.211 195.816 147.312V150H194.626V142.944H195.816V144.372C196.022 143.924 196.33 143.555 196.74 143.266C197.151 142.977 197.576 142.832 198.014 142.832C198.322 142.832 198.593 142.874 198.826 142.958L198.756 144.106ZM205.783 142.944V150H204.593V148.67C204.341 149.109 204.005 149.459 203.585 149.72C203.165 149.981 202.694 150.112 202.171 150.112C201.434 150.112 200.827 149.883 200.351 149.426C199.884 148.969 199.651 148.367 199.651 147.62V142.944H200.841V147.396C200.841 147.881 200.986 148.278 201.275 148.586C201.564 148.885 201.952 149.034 202.437 149.034C203.1 149.034 203.622 148.768 204.005 148.236C204.397 147.695 204.593 146.962 204.593 146.038V142.944H205.783ZM209.803 150.112C209.019 150.112 208.375 149.911 207.871 149.51C207.377 149.109 207.041 148.623 206.863 148.054L207.885 147.606C208.203 148.605 208.842 149.104 209.803 149.104C210.223 149.104 210.564 149.001 210.825 148.796C211.096 148.581 211.231 148.325 211.231 148.026C211.231 147.699 211.091 147.443 210.811 147.256C210.531 147.069 210.191 146.929 209.789 146.836C209.397 146.743 209.001 146.64 208.599 146.528C208.207 146.407 207.871 146.197 207.591 145.898C207.311 145.599 207.171 145.203 207.171 144.708C207.171 144.148 207.395 143.695 207.843 143.35C208.291 143.005 208.893 142.832 209.649 142.832C210.275 142.832 210.83 142.995 211.315 143.322C211.801 143.639 212.118 144.055 212.267 144.568L211.273 145.002C211.18 144.647 210.975 144.363 210.657 144.148C210.349 143.924 210.004 143.812 209.621 143.812C209.22 143.812 208.903 143.891 208.669 144.05C208.436 144.199 208.319 144.414 208.319 144.694C208.319 144.927 208.417 145.119 208.613 145.268C208.819 145.417 209.071 145.525 209.369 145.59C209.677 145.646 210.009 145.73 210.363 145.842C210.718 145.945 211.045 146.061 211.343 146.192C211.642 146.323 211.889 146.547 212.085 146.864C212.291 147.172 212.393 147.555 212.393 148.012C212.393 148.628 212.155 149.132 211.679 149.524C211.203 149.916 210.578 150.112 209.803 150.112ZM217.28 149.944C216.972 150.056 216.604 150.112 216.174 150.112C215.54 150.112 215.031 149.93 214.648 149.566C214.275 149.193 214.088 148.633 214.088 147.886V143.994H212.772V142.944H214.088V140.802H215.278V142.944H217.168V143.994H215.278V147.928C215.278 148.292 215.372 148.567 215.558 148.754C215.745 148.941 215.997 149.034 216.314 149.034C216.66 149.034 216.954 148.973 217.196 148.852L217.28 149.944Z" fill="#333F48"/>
<path d="M20.5 191.25C25.3125 191.25 29.25 187.312 29.25 182.5C29.25 177.688 25.3125 173.75 20.5 173.75C15.6875 173.75 11.75 177.688 11.75 182.5C11.75 187.312 15.6875 191.25 20.5 191.25Z" stroke="#333F48" stroke-width="1.3125" stroke-linecap="round" stroke-linejoin="round"/>
<path d="M16.7812 182.5L19.2575 184.976L24.2188 180.023" stroke="#333F48" stroke-width="1.3125" stroke-linecap="round" stroke-linejoin="round"/>
<path d="M41.4134 187V177.2H47.6854V178.334H42.6874V181.33H46.7754V182.478H42.6874V187H41.4134ZM48.759 177.088H50.131V178.6H48.759V177.088ZM48.843 187V179.944H50.033V187H48.843ZM55.8102 181.106C55.5488 180.994 55.2455 180.938 54.9002 180.938C54.3028 180.938 53.8128 181.227 53.4302 181.806C53.0568 182.375 52.8702 183.211 52.8702 184.312V187H51.6802V179.944H52.8702V181.372C53.0755 180.924 53.3835 180.555 53.7942 180.266C54.2048 179.977 54.6295 179.832 55.0682 179.832C55.3762 179.832 55.6468 179.874 55.8802 179.958L55.8102 181.106ZM58.9341 187.112C58.1501 187.112 57.5061 186.911 57.0021 186.51C56.5075 186.109 56.1715 185.623 55.9941 185.054L57.0161 184.606C57.3335 185.605 57.9728 186.104 58.9341 186.104C59.3541 186.104 59.6948 186.001 59.9561 185.796C60.2268 185.581 60.3621 185.325 60.3621 185.026C60.3621 184.699 60.2221 184.443 59.9421 184.256C59.6621 184.069 59.3215 183.929 58.9201 183.836C58.5281 183.743 58.1315 183.64 57.7301 183.528C57.3381 183.407 57.0021 183.197 56.7221 182.898C56.4421 182.599 56.3021 182.203 56.3021 181.708C56.3021 181.148 56.5261 180.695 56.9741 180.35C57.4221 180.005 58.0241 179.832 58.7801 179.832C59.4055 179.832 59.9608 179.995 60.4461 180.322C60.9315 180.639 61.2488 181.055 61.3981 181.568L60.4041 182.002C60.3108 181.647 60.1055 181.363 59.7881 181.148C59.4801 180.924 59.1348 180.812 58.7521 180.812C58.3508 180.812 58.0335 180.891 57.8001 181.05C57.5668 181.199 57.4501 181.414 57.4501 181.694C57.4501 181.927 57.5481 182.119 57.7441 182.268C57.9495 182.417 58.2015 182.525 58.5001 182.59C58.8081 182.646 59.1395 182.73 59.4941 182.842C59.8488 182.945 60.1755 183.061 60.4741 183.192C60.7728 183.323 61.0201 183.547 61.2161 183.864C61.4215 184.172 61.5241 184.555 61.5241 185.012C61.5241 185.628 61.2861 186.132 60.8101 186.524C60.3341 186.916 59.7088 187.112 58.9341 187.112ZM66.4112 186.944C66.1032 187.056 65.7346 187.112 65.3052 187.112C64.6706 187.112 64.1619 186.93 63.7792 186.566C63.4059 186.193 63.2192 185.633 63.2192 184.886V180.994H61.9032V179.944H63.2192V177.802H64.4092V179.944H66.2992V180.994H64.4092V184.928C64.4092 185.292 64.5026 185.567 64.6892 185.754C64.8759 185.941 65.1279 186.034 65.4452 186.034C65.7906 186.034 66.0846 185.973 66.3272 185.852L66.4112 186.944ZM70.6728 187V177.2H71.9468V185.852H76.8048V187H70.6728ZM83.4463 186.09C82.7743 186.771 81.9156 187.112 80.8703 187.112C79.8249 187.112 78.9663 186.771 78.2943 186.09C77.6223 185.399 77.2863 184.527 77.2863 183.472C77.2863 182.417 77.6223 181.549 78.2943 180.868C78.9663 180.177 79.8249 179.832 80.8703 179.832C81.9156 179.832 82.7743 180.177 83.4463 180.868C84.1276 181.549 84.4683 182.417 84.4683 183.472C84.4683 184.527 84.1276 185.399 83.4463 186.09ZM79.1623 185.334C79.6009 185.81 80.1703 186.048 80.8703 186.048C81.5703 186.048 82.1396 185.81 82.5783 185.334C83.0169 184.849 83.2363 184.228 83.2363 183.472C83.2363 182.716 83.0169 182.1 82.5783 181.624C82.1396 181.139 81.5703 180.896 80.8703 180.896C80.1703 180.896 79.6009 181.139 79.1623 181.624C78.7236 182.1 78.5043 182.716 78.5043 183.472C78.5043 184.228 78.7236 184.849 79.1623 185.334ZM91.4651 186.09C90.7931 186.771 89.9344 187.112 88.8891 187.112C87.8438 187.112 86.9851 186.771 86.3131 186.09C85.6411 185.399 85.3051 184.527 85.3051 183.472C85.3051 182.417 85.6411 181.549 86.3131 180.868C86.9851 180.177 87.8438 179.832 88.8891 179.832C89.9344 179.832 90.7931 180.177 91.4651 180.868C92.1464 181.549 92.4871 182.417 92.4871 183.472C92.4871 184.527 92.1464 185.399 91.4651 186.09ZM87.1811 185.334C87.6198 185.81 88.1891 186.048 88.8891 186.048C89.5891 186.048 90.1584 185.81 90.5971 185.334C91.0358 184.849 91.2551 184.228 91.2551 183.472C91.2551 182.716 91.0358 182.1 90.5971 181.624C90.1584 181.139 89.5891 180.896 88.8891 180.896C88.1891 180.896 87.6198 181.139 87.1811 181.624C86.7424 182.1 86.5231 182.716 86.5231 183.472C86.5231 184.228 86.7424 184.849 87.1811 185.334ZM98.5319 187L95.8719 183.528L94.9339 184.382V187H93.7299V177.088H94.9339V182.814L98.1959 179.944H99.7779L96.7539 182.73L100.016 187H98.5319ZM100.313 188.484L101.125 185.544H102.721L101.153 188.484H100.313ZM107.356 187V177.2H108.63V187H107.356ZM110.329 187V179.944H111.519V181.274C111.771 180.835 112.107 180.485 112.527 180.224C112.947 179.963 113.418 179.832 113.941 179.832C114.678 179.832 115.28 180.061 115.747 180.518C116.223 180.975 116.461 181.577 116.461 182.324V187H115.271V182.548C115.271 182.063 115.126 181.671 114.837 181.372C114.547 181.064 114.16 180.91 113.675 180.91C113.012 180.91 112.485 181.181 112.093 181.722C111.71 182.254 111.519 182.982 111.519 183.906V187H110.329ZM120.481 187.112C119.697 187.112 119.053 186.911 118.549 186.51C118.054 186.109 117.718 185.623 117.541 185.054L118.563 184.606C118.88 185.605 119.52 186.104 120.481 186.104C120.901 186.104 121.242 186.001 121.503 185.796C121.774 185.581 121.909 185.325 121.909 185.026C121.909 184.699 121.769 184.443 121.489 184.256C121.209 184.069 120.868 183.929 120.467 183.836C120.075 183.743 119.678 183.64 119.277 183.528C118.885 183.407 118.549 183.197 118.269 182.898C117.989 182.599 117.849 182.203 117.849 181.708C117.849 181.148 118.073 180.695 118.521 180.35C118.969 180.005 119.571 179.832 120.327 179.832C120.952 179.832 121.508 179.995 121.993 180.322C122.478 180.639 122.796 181.055 122.945 181.568L121.951 182.002C121.858 181.647 121.652 181.363 121.335 181.148C121.027 180.924 120.682 180.812 120.299 180.812C119.898 180.812 119.58 180.891 119.347 181.05C119.114 181.199 118.997 181.414 118.997 181.694C118.997 181.927 119.095 182.119 119.291 182.268C119.496 182.417 119.748 182.525 120.047 182.59C120.355 182.646 120.686 182.73 121.041 182.842C121.396 182.945 121.722 183.061 122.021 183.192C122.32 183.323 122.567 183.547 122.763 183.864C122.968 184.172 123.071 184.555 123.071 185.012C123.071 185.628 122.833 186.132 122.357 186.524C121.881 186.916 121.256 187.112 120.481 187.112ZM127.958 186.944C127.65 187.056 127.282 187.112 126.852 187.112C126.218 187.112 125.709 186.93 125.326 186.566C124.953 186.193 124.766 185.633 124.766 184.886V180.994H123.45V179.944H124.766V177.802H125.956V179.944H127.846V180.994H125.956V184.928C125.956 185.292 126.05 185.567 126.236 185.754C126.423 185.941 126.675 186.034 126.992 186.034C127.338 186.034 127.632 185.973 127.874 185.852L127.958 186.944ZM131.576 179.832C132.444 179.832 133.144 180.07 133.676 180.546C134.208 181.022 134.474 181.666 134.474 182.478V187H133.298V185.796C133.092 186.197 132.775 186.519 132.346 186.762C131.926 186.995 131.459 187.112 130.946 187.112C130.246 187.112 129.672 186.921 129.224 186.538C128.785 186.146 128.566 185.642 128.566 185.026C128.566 183.701 129.686 182.926 131.926 182.702L133.298 182.548V182.408C133.298 181.923 133.139 181.54 132.822 181.26C132.514 180.971 132.098 180.826 131.576 180.826C131.09 180.826 130.689 180.961 130.372 181.232C130.054 181.503 129.872 181.876 129.826 182.352L128.72 182.142C128.822 181.442 129.135 180.882 129.658 180.462C130.19 180.042 130.829 179.832 131.576 179.832ZM131.128 186.132C131.809 186.132 132.341 185.922 132.724 185.502C133.106 185.082 133.298 184.517 133.298 183.808V183.472L131.926 183.626C130.479 183.785 129.756 184.247 129.756 185.012C129.756 185.339 129.882 185.609 130.134 185.824C130.395 186.029 130.726 186.132 131.128 186.132ZM136.129 187V179.944H137.319V181.274C137.571 180.835 137.907 180.485 138.327 180.224C138.747 179.963 139.218 179.832 139.741 179.832C140.478 179.832 141.08 180.061 141.547 180.518C142.023 180.975 142.261 181.577 142.261 182.324V187H141.071V182.548C141.071 182.063 140.926 181.671 140.637 181.372C140.347 181.064 139.96 180.91 139.475 180.91C138.812 180.91 138.285 181.181 137.893 181.722C137.51 182.254 137.319 182.982 137.319 183.906V187H136.129ZM147.407 186.944C147.099 187.056 146.731 187.112 146.301 187.112C145.667 187.112 145.158 186.93 144.775 186.566C144.402 186.193 144.215 185.633 144.215 184.886V180.994H142.899V179.944H144.215V177.802H145.405V179.944H147.295V180.994H145.405V184.928C145.405 185.292 145.499 185.567 145.685 185.754C145.872 185.941 146.124 186.034 146.441 186.034C146.787 186.034 147.081 185.973 147.323 185.852L147.407 186.944ZM155.981 187.112C154.655 187.112 153.531 186.678 152.607 185.81C151.683 184.933 151.221 183.696 151.221 182.1C151.221 180.504 151.683 179.272 152.607 178.404C153.54 177.527 154.665 177.088 155.981 177.088C157.045 177.088 157.945 177.368 158.683 177.928C159.429 178.479 159.905 179.23 160.111 180.182L158.851 180.462C158.692 179.753 158.361 179.202 157.857 178.81C157.362 178.418 156.732 178.222 155.967 178.222C154.94 178.222 154.109 178.563 153.475 179.244C152.849 179.925 152.537 180.877 152.537 182.1C152.537 183.323 152.849 184.275 153.475 184.956C154.109 185.628 154.94 185.964 155.967 185.964C156.723 185.964 157.343 185.777 157.829 185.404C158.323 185.031 158.659 184.503 158.837 183.822L160.111 184.088C159.859 185.021 159.369 185.759 158.641 186.3C157.913 186.841 157.026 187.112 155.981 187.112ZM165.457 181.106C165.196 180.994 164.892 180.938 164.547 180.938C163.95 180.938 163.46 181.227 163.077 181.806C162.704 182.375 162.517 183.211 162.517 184.312V187H161.327V179.944H162.517V181.372C162.722 180.924 163.03 180.555 163.441 180.266C163.852 179.977 164.276 179.832 164.715 179.832C165.023 179.832 165.294 179.874 165.527 179.958L165.457 181.106ZM172.462 183.15C172.462 183.346 172.453 183.528 172.434 183.696H166.862C166.9 184.405 167.124 184.979 167.534 185.418C167.954 185.847 168.482 186.062 169.116 186.062C169.658 186.062 170.106 185.941 170.46 185.698C170.815 185.455 171.044 185.115 171.146 184.676L172.266 184.942C172.089 185.623 171.72 186.155 171.16 186.538C170.61 186.921 169.928 187.112 169.116 187.112C168.08 187.112 167.245 186.762 166.61 186.062C165.985 185.362 165.672 184.499 165.672 183.472C165.672 182.436 165.98 181.573 166.596 180.882C167.222 180.182 168.052 179.832 169.088 179.832C170.106 179.832 170.922 180.154 171.538 180.798C172.154 181.433 172.462 182.217 172.462 183.15ZM166.932 182.702H171.202C171.146 182.142 170.932 181.689 170.558 181.344C170.185 180.999 169.695 180.826 169.088 180.826C168.538 180.826 168.071 180.994 167.688 181.33C167.306 181.657 167.054 182.114 166.932 182.702ZM176.71 187.112C175.646 187.112 174.811 186.776 174.204 186.104C173.607 185.423 173.308 184.545 173.308 183.472C173.308 182.399 173.607 181.526 174.204 180.854C174.802 180.173 175.632 179.832 176.696 179.832C177.163 179.832 177.606 179.935 178.026 180.14C178.456 180.345 178.782 180.616 179.006 180.952V177.088H180.196V187H179.006V185.978C178.848 186.305 178.554 186.575 178.124 186.79C177.695 187.005 177.224 187.112 176.71 187.112ZM175.156 185.348C175.576 185.815 176.132 186.048 176.822 186.048C177.513 186.048 178.068 185.815 178.488 185.348C178.908 184.872 179.118 184.247 179.118 183.472C179.118 182.697 178.908 182.077 178.488 181.61C178.068 181.134 177.513 180.896 176.822 180.896C176.132 180.896 175.576 181.134 175.156 181.61C174.736 182.077 174.526 182.697 174.526 183.472C174.526 184.247 174.736 184.872 175.156 185.348ZM181.758 177.088H183.13V178.6H181.758V177.088ZM181.842 187V179.944H183.032V187H181.842ZM188.166 187.112C187.652 187.112 187.181 187.005 186.752 186.79C186.322 186.575 186.028 186.305 185.87 185.978V187H184.68V177.088H185.87V180.952C186.094 180.616 186.416 180.345 186.836 180.14C187.265 179.935 187.713 179.832 188.18 179.832C189.244 179.832 190.074 180.173 190.672 180.854C191.269 181.526 191.568 182.399 191.568 183.472C191.568 184.545 191.264 185.423 190.658 186.104C190.06 186.776 189.23 187.112 188.166 187.112ZM186.388 185.348C186.808 185.815 187.363 186.048 188.054 186.048C188.744 186.048 189.3 185.815 189.72 185.348C190.14 184.872 190.35 184.247 190.35 183.472C190.35 182.697 190.14 182.077 189.72 181.61C189.3 181.134 188.744 180.896 188.054 180.896C187.363 180.896 186.808 181.134 186.388 181.61C185.977 182.077 185.772 182.697 185.772 183.472C185.772 184.247 185.977 184.872 186.388 185.348ZM192.724 177.088H194.096V178.6H192.724V177.088ZM192.808 187V179.944H193.998V187H192.808ZM195.645 187V177.088H196.835V187H195.645ZM198.398 177.088H199.77V178.6H198.398V177.088ZM198.482 187V179.944H199.672V187H198.482ZM205.071 186.944C204.763 187.056 204.395 187.112 203.965 187.112C203.331 187.112 202.822 186.93 202.439 186.566C202.066 186.193 201.879 185.633 201.879 184.886V180.994H200.563V179.944H201.879V177.802H203.069V179.944H204.959V180.994H203.069V184.928C203.069 185.292 203.163 185.567 203.349 185.754C203.536 185.941 203.788 186.034 204.105 186.034C204.451 186.034 204.745 185.973 204.987 185.852L205.071 186.944ZM210.828 179.944H212.046L208.35 189.548H207.132L208.154 186.902L205.396 179.944H206.684L208.756 185.348L210.828 179.944Z" fill="#333F48"/>
</g>
</svg>
