<svg width="214" height="214" viewBox="0 0 214 214" fill="none" xmlns="http://www.w3.org/2000/svg">
<path d="M126.153 212.272C107.568 215.653 88.4206 214.054 70.6546 207.638C52.8886 201.222 37.1377 190.217 25.0025 175.742L43.042 160.618C52.5074 171.909 64.7931 180.493 78.6506 185.498C92.5081 190.502 107.443 191.749 121.939 189.112L126.153 212.272Z" fill="#FDB702"/>
<path d="M126.153 212.272C143.73 209.074 160.227 201.526 174.138 190.315C188.05 179.105 198.933 164.59 205.794 148.094L184.059 139.053C178.707 151.92 170.219 163.242 159.368 171.986C148.517 180.73 135.649 186.618 121.939 189.112L126.153 212.272Z" fill="#FC6008"/>
<path d="M25.0085 175.749C12.805 161.195 4.69549 143.654 1.51286 124.929C-1.66976 106.205 0.189194 86.97 6.89881 69.2012C13.6084 51.4324 24.9269 35.7698 39.6917 23.822C54.4565 11.8742 72.1355 4.0718 90.913 1.21622L94.4521 24.4887C79.8057 26.716 66.0161 32.8018 54.4995 42.1211C42.9829 51.4404 34.1546 63.6572 28.9211 77.5169C23.6876 91.3766 22.2376 106.38 24.72 120.985C27.2025 135.59 33.5279 149.272 43.0466 160.624L25.0085 175.749Z" fill="#D6FEB0"/>
<path d="M90.5834 1.26687C109.352 -1.64722 128.558 0.487056 146.229 7.45049C163.9 14.4139 179.399 25.9555 191.134 40.89C202.869 55.8244 210.417 73.6133 213.003 92.4298C215.59 111.246 213.121 130.412 205.85 147.959L184.103 138.948C189.774 125.261 191.7 110.312 189.683 95.6353C187.665 80.9584 181.778 67.083 172.624 55.4342C163.471 43.7853 151.382 34.7829 137.598 29.3514C123.815 23.9199 108.834 22.2552 94.195 24.5282L90.5834 1.26687Z" fill="#204E4C"/>
<path d="M75.88 93H78.652V97.732H83.132V100.28H78.652V105.012H75.88V100.28H71.428V97.732H75.88V93ZM93.4229 93.784C94.6549 93.784 95.7562 94.064 96.7269 94.624C97.7162 95.184 98.4909 95.968 99.0509 96.976C99.6109 97.984 99.8909 99.132 99.8909 100.42C99.8909 101.839 99.5735 103.052 98.9389 104.06C98.3042 105.068 97.4455 105.833 96.3629 106.356C95.2802 106.879 94.0855 107.14 92.7789 107.14C91.3415 107.14 90.0815 106.86 88.9989 106.3C87.9349 105.74 87.1042 104.984 86.5069 104.032C85.9095 103.061 85.5735 101.988 85.4989 100.812H88.5789C88.6909 101.876 89.1295 102.763 89.8949 103.472C90.6602 104.181 91.6215 104.536 92.7789 104.536C93.4695 104.536 94.1135 104.377 94.7109 104.06C95.3269 103.743 95.8215 103.276 96.1949 102.66C96.5682 102.044 96.7549 101.297 96.7549 100.42C96.7549 99.2253 96.3909 98.2453 95.6629 97.48C94.9535 96.7147 94.0015 96.332 92.8069 96.332C92.0229 96.332 91.2482 96.5093 90.4829 96.864C89.7175 97.2187 89.1762 97.844 88.8589 98.74L85.8629 98.684L86.4509 87.4H98.6589V90.116H89.3069L88.9429 95.576C89.5029 94.96 90.1749 94.512 90.9589 94.232C91.7429 93.9333 92.5642 93.784 93.4229 93.784ZM101.733 96.752C101.733 94.8853 102.051 93.2333 102.685 91.796C103.339 90.34 104.253 89.22 105.429 88.436C106.605 87.6333 107.949 87.232 109.461 87.232C110.955 87.232 112.28 87.6333 113.437 88.436C114.613 89.22 115.528 90.34 116.181 91.796C116.835 93.2333 117.161 94.8853 117.161 96.752V97.648C117.161 99.5893 116.835 101.279 116.181 102.716C115.547 104.153 114.641 105.255 113.465 106.02C112.308 106.785 110.973 107.168 109.461 107.168C107.931 107.168 106.577 106.785 105.401 106.02C104.244 105.255 103.339 104.153 102.685 102.716C102.051 101.279 101.733 99.5893 101.733 97.648V96.752ZM114.053 96.864C114.053 94.6987 113.633 93.0093 112.793 91.796C111.972 90.564 110.861 89.948 109.461 89.948C108.061 89.948 106.941 90.564 106.101 91.796C105.261 93.0093 104.841 94.6987 104.841 96.864V97.536C104.841 99.7013 105.261 101.4 106.101 102.632C106.941 103.845 108.061 104.452 109.461 104.452C110.861 104.452 111.972 103.845 112.793 102.632C113.633 101.4 114.053 99.7013 114.053 97.536V96.864ZM119.451 92.02C119.451 91.1053 119.665 90.284 120.095 89.556C120.524 88.828 121.121 88.2587 121.887 87.848C122.652 87.4373 123.511 87.232 124.463 87.232C125.415 87.232 126.273 87.4373 127.039 87.848C127.804 88.2587 128.401 88.828 128.831 89.556C129.26 90.284 129.475 91.1053 129.475 92.02C129.475 92.9347 129.26 93.756 128.831 94.484C128.401 95.1933 127.804 95.7533 127.039 96.164C126.273 96.5747 125.415 96.78 124.463 96.78C123.511 96.78 122.652 96.5747 121.887 96.164C121.121 95.7533 120.524 95.1933 120.095 94.484C119.665 93.756 119.451 92.9347 119.451 92.02ZM122.699 107L136.083 87.4H139.079L125.667 107H122.699ZM126.927 92.02C126.927 91.3107 126.693 90.7227 126.227 90.256C125.76 89.7707 125.172 89.528 124.463 89.528C123.772 89.528 123.193 89.7707 122.727 90.256C122.26 90.7227 122.027 91.3107 122.027 92.02C122.027 92.7293 122.26 93.3267 122.727 93.812C123.193 94.2787 123.772 94.512 124.463 94.512C125.172 94.512 125.76 94.2787 126.227 93.812C126.693 93.3267 126.927 92.7293 126.927 92.02ZM132.247 102.408C132.247 101.493 132.461 100.672 132.891 99.944C133.32 99.216 133.917 98.6467 134.683 98.236C135.448 97.8253 136.307 97.62 137.259 97.62C138.211 97.62 139.069 97.8253 139.835 98.236C140.6 98.6467 141.197 99.216 141.627 99.944C142.056 100.672 142.271 101.493 142.271 102.408C142.271 103.304 142.056 104.116 141.627 104.844C141.197 105.572 140.6 106.141 139.835 106.552C139.069 106.963 138.211 107.168 137.259 107.168C136.307 107.168 135.448 106.963 134.683 106.552C133.917 106.141 133.32 105.572 132.891 104.844C132.461 104.116 132.247 103.304 132.247 102.408ZM139.695 102.408C139.695 101.699 139.461 101.101 138.995 100.616C138.528 100.131 137.949 99.888 137.259 99.888C136.568 99.888 135.98 100.131 135.495 100.616C135.028 101.101 134.795 101.699 134.795 102.408C134.795 103.117 135.028 103.705 135.495 104.172C135.961 104.639 136.549 104.872 137.259 104.872C137.968 104.872 138.547 104.639 138.995 104.172C139.461 103.705 139.695 103.117 139.695 102.408Z" fill="#9E9E9E"/>
<path d="M53.518 125.1C53.518 124.111 53.7093 123.243 54.092 122.496C54.484 121.74 55.0393 121.157 55.758 120.746C56.4767 120.326 57.3167 120.116 58.278 120.116C59.4073 120.116 60.3453 120.424 61.092 121.04C61.8387 121.656 62.296 122.487 62.464 123.532H60.868C60.7093 122.907 60.3967 122.417 59.93 122.062C59.4727 121.707 58.908 121.53 58.236 121.53C57.62 121.53 57.0787 121.684 56.612 121.992C56.1547 122.291 55.8 122.711 55.548 123.252C55.296 123.784 55.17 124.4 55.17 125.1C55.17 125.8 55.2913 126.421 55.534 126.962C55.786 127.494 56.1407 127.914 56.598 128.222C57.0647 128.521 57.606 128.67 58.222 128.67C59.006 128.67 59.6593 128.455 60.182 128.026C60.714 127.597 60.9987 126.999 61.036 126.234V125.996H58.32V124.638H62.576V130H61.358L61.19 128.6C60.91 129.011 60.5087 129.361 59.986 129.65C59.4727 129.939 58.8613 130.084 58.152 130.084C57.2467 130.084 56.444 129.879 55.744 129.468C55.044 129.048 54.498 128.46 54.106 127.704C53.714 126.948 53.518 126.08 53.518 125.1ZM63.8087 126.43C63.8087 125.693 63.9533 125.049 64.2427 124.498C64.5413 123.938 64.952 123.509 65.4747 123.21C66.0067 122.902 66.6133 122.748 67.2947 122.748C67.9853 122.748 68.592 122.888 69.1147 123.168C69.6467 123.448 70.062 123.845 70.3607 124.358C70.6687 124.871 70.8273 125.473 70.8367 126.164C70.8367 126.351 70.8227 126.542 70.7947 126.738H65.3907V126.822C65.428 127.447 65.624 127.942 65.9787 128.306C66.3333 128.67 66.8047 128.852 67.3927 128.852C67.8593 128.852 68.2513 128.745 68.5687 128.53C68.886 128.306 69.096 127.993 69.1987 127.592H70.7107C70.58 128.32 70.2253 128.917 69.6467 129.384C69.0773 129.851 68.3633 130.084 67.5047 130.084C66.758 130.084 66.1047 129.935 65.5447 129.636C64.994 129.328 64.5647 128.899 64.2567 128.348C63.958 127.797 63.8087 127.158 63.8087 126.43ZM69.2967 125.632C69.2313 125.109 69.0213 124.703 68.6667 124.414C68.3213 124.115 67.8827 123.966 67.3507 123.966C66.856 123.966 66.4267 124.12 66.0627 124.428C65.708 124.727 65.5027 125.128 65.4467 125.632H69.2967ZM75.699 122.748C76.5484 122.748 77.239 123.009 77.771 123.532C78.3124 124.055 78.583 124.895 78.583 126.052V130H77.057V126.136C77.057 125.455 76.9124 124.937 76.623 124.582C76.3337 124.227 75.909 124.05 75.349 124.05C74.7517 124.05 74.2804 124.26 73.935 124.68C73.599 125.091 73.431 125.66 73.431 126.388V130H71.919V122.832H73.235L73.403 123.77C73.9444 123.089 74.7097 122.748 75.699 122.748ZM79.5521 126.43C79.5521 125.693 79.6968 125.049 79.9861 124.498C80.2848 123.938 80.6954 123.509 81.2181 123.21C81.7501 122.902 82.3568 122.748 83.0381 122.748C83.7288 122.748 84.3354 122.888 84.8581 123.168C85.3901 123.448 85.8054 123.845 86.1041 124.358C86.4121 124.871 86.5708 125.473 86.5801 126.164C86.5801 126.351 86.5661 126.542 86.5381 126.738H81.1341V126.822C81.1714 127.447 81.3674 127.942 81.7221 128.306C82.0768 128.67 82.5481 128.852 83.1361 128.852C83.6028 128.852 83.9948 128.745 84.3121 128.53C84.6294 128.306 84.8394 127.993 84.9421 127.592H86.4541C86.3234 128.32 85.9688 128.917 85.3901 129.384C84.8208 129.851 84.1068 130.084 83.2481 130.084C82.5014 130.084 81.8481 129.935 81.2881 129.636C80.7374 129.328 80.3081 128.899 80.0001 128.348C79.7014 127.797 79.5521 127.158 79.5521 126.43ZM85.0401 125.632C84.9748 125.109 84.7648 124.703 84.4101 124.414C84.0648 124.115 83.6261 123.966 83.0941 123.966C82.5994 123.966 82.1701 124.12 81.8061 124.428C81.4514 124.727 81.2461 125.128 81.1901 125.632H85.0401ZM91.6245 122.832V124.246H90.9525C90.3271 124.246 89.8745 124.451 89.5945 124.862C89.3145 125.263 89.1745 125.777 89.1745 126.402V130H87.6625V122.832H89.0065L89.1745 123.91C89.3798 123.574 89.6458 123.313 89.9725 123.126C90.2991 122.93 90.7378 122.832 91.2885 122.832H91.6245ZM99.0309 128.684V130H98.2329C97.7662 130 97.4302 129.902 97.2249 129.706C97.0196 129.51 96.9169 129.225 96.9169 128.852C96.3756 129.673 95.5869 130.084 94.5509 130.084C93.7482 130.084 93.1042 129.897 92.6189 129.524C92.1336 129.151 91.8909 128.637 91.8909 127.984C91.8909 127.247 92.1522 126.682 92.6749 126.29C93.1976 125.889 93.9582 125.688 94.9569 125.688H96.7629V125.254C96.7629 124.853 96.6229 124.54 96.3429 124.316C96.0629 124.083 95.6756 123.966 95.1809 123.966C94.7422 123.966 94.3782 124.064 94.0889 124.26C93.8089 124.447 93.6409 124.699 93.5849 125.016H92.1009C92.1756 124.297 92.4929 123.742 93.0529 123.35C93.6129 122.949 94.3456 122.748 95.2509 122.748C96.2122 122.748 96.9542 122.972 97.4769 123.42C97.9996 123.868 98.2609 124.512 98.2609 125.352V128.18C98.2609 128.516 98.4196 128.684 98.7369 128.684H99.0309ZM96.7629 126.808H94.8869C94.4202 126.808 94.0609 126.901 93.8089 127.088C93.5569 127.265 93.4309 127.531 93.4309 127.886C93.4309 128.194 93.5476 128.441 93.7809 128.628C94.0236 128.815 94.3502 128.908 94.7609 128.908C95.3862 128.908 95.8716 128.74 96.2169 128.404C96.5716 128.068 96.7536 127.62 96.7629 127.06V126.808ZM100.176 124.162H98.9305V122.832H100.176V120.83H101.702V122.832H103.425V124.162H101.702V127.9C101.702 128.18 101.758 128.381 101.871 128.502C101.983 128.614 102.174 128.67 102.444 128.67H103.593V130H102.137C101.455 130 100.956 129.841 100.638 129.524C100.33 129.207 100.176 128.717 100.176 128.054V124.162ZM103.848 126.43C103.848 125.693 103.992 125.049 104.282 124.498C104.58 123.938 104.991 123.509 105.514 123.21C106.046 122.902 106.652 122.748 107.334 122.748C108.024 122.748 108.631 122.888 109.154 123.168C109.686 123.448 110.101 123.845 110.4 124.358C110.708 124.871 110.866 125.473 110.876 126.164C110.876 126.351 110.862 126.542 110.834 126.738H105.43V126.822C105.467 127.447 105.663 127.942 106.018 128.306C106.372 128.67 106.844 128.852 107.432 128.852C107.898 128.852 108.29 128.745 108.608 128.53C108.925 128.306 109.135 127.993 109.238 127.592H110.75C110.619 128.32 110.264 128.917 109.686 129.384C109.116 129.851 108.402 130.084 107.544 130.084C106.797 130.084 106.144 129.935 105.584 129.636C105.033 129.328 104.604 128.899 104.296 128.348C103.997 127.797 103.848 127.158 103.848 126.43ZM109.336 125.632C109.27 125.109 109.06 124.703 108.706 124.414C108.36 124.115 107.922 123.966 107.39 123.966C106.895 123.966 106.466 124.12 106.102 124.428C105.747 124.727 105.542 125.128 105.486 125.632H109.336ZM118.916 120.2V130H117.6L117.418 128.922C116.849 129.697 116.069 130.084 115.08 130.084C114.427 130.084 113.843 129.939 113.33 129.65C112.817 129.351 112.415 128.927 112.126 128.376C111.837 127.816 111.692 127.163 111.692 126.416C111.692 125.688 111.837 125.049 112.126 124.498C112.425 123.938 112.831 123.509 113.344 123.21C113.857 122.902 114.436 122.748 115.08 122.748C115.603 122.748 116.06 122.846 116.452 123.042C116.844 123.229 117.161 123.49 117.404 123.826V120.2H118.916ZM115.332 128.81C115.957 128.81 116.461 128.591 116.844 128.152C117.227 127.713 117.418 127.144 117.418 126.444C117.418 125.725 117.227 125.147 116.844 124.708C116.461 124.26 115.957 124.036 115.332 124.036C114.707 124.036 114.203 124.26 113.82 124.708C113.437 125.147 113.246 125.716 113.246 126.416C113.246 127.125 113.437 127.704 113.82 128.152C114.203 128.591 114.707 128.81 115.332 128.81ZM123.85 130V120.2H125.46V128.572H129.674V130H123.85ZM130.03 126.43C130.03 125.693 130.174 125.049 130.464 124.498C130.762 123.938 131.173 123.509 131.696 123.21C132.228 122.902 132.834 122.748 133.516 122.748C134.206 122.748 134.813 122.888 135.336 123.168C135.868 123.448 136.283 123.845 136.582 124.358C136.89 124.871 137.048 125.473 137.058 126.164C137.058 126.351 137.044 126.542 137.016 126.738H131.612V126.822C131.649 127.447 131.845 127.942 132.2 128.306C132.554 128.67 133.026 128.852 133.614 128.852C134.08 128.852 134.472 128.745 134.79 128.53C135.107 128.306 135.317 127.993 135.42 127.592H136.932C136.801 128.32 136.446 128.917 135.868 129.384C135.298 129.851 134.584 130.084 133.726 130.084C132.979 130.084 132.326 129.935 131.766 129.636C131.215 129.328 130.786 128.899 130.478 128.348C130.179 127.797 130.03 127.158 130.03 126.43ZM135.518 125.632C135.452 125.109 135.242 124.703 134.888 124.414C134.542 124.115 134.104 123.966 133.572 123.966C133.077 123.966 132.648 124.12 132.284 124.428C131.929 124.727 131.724 125.128 131.668 125.632H135.518ZM145 128.684V130H144.202C143.735 130 143.399 129.902 143.194 129.706C142.989 129.51 142.886 129.225 142.886 128.852C142.345 129.673 141.556 130.084 140.52 130.084C139.717 130.084 139.073 129.897 138.588 129.524C138.103 129.151 137.86 128.637 137.86 127.984C137.86 127.247 138.121 126.682 138.644 126.29C139.167 125.889 139.927 125.688 140.926 125.688H142.732V125.254C142.732 124.853 142.592 124.54 142.312 124.316C142.032 124.083 141.645 123.966 141.15 123.966C140.711 123.966 140.347 124.064 140.058 124.26C139.778 124.447 139.61 124.699 139.554 125.016H138.07C138.145 124.297 138.462 123.742 139.022 123.35C139.582 122.949 140.315 122.748 141.22 122.748C142.181 122.748 142.923 122.972 143.446 123.42C143.969 123.868 144.23 124.512 144.23 125.352V128.18C144.23 128.516 144.389 128.684 144.706 128.684H145ZM142.732 126.808H140.856C140.389 126.808 140.03 126.901 139.778 127.088C139.526 127.265 139.4 127.531 139.4 127.886C139.4 128.194 139.517 128.441 139.75 128.628C139.993 128.815 140.319 128.908 140.73 128.908C141.355 128.908 141.841 128.74 142.186 128.404C142.541 128.068 142.723 127.62 142.732 127.06V126.808ZM152.642 120.2V130H151.326L151.144 128.922C150.574 129.697 149.795 130.084 148.806 130.084C148.152 130.084 147.569 129.939 147.056 129.65C146.542 129.351 146.141 128.927 145.852 128.376C145.562 127.816 145.418 127.163 145.418 126.416C145.418 125.688 145.562 125.049 145.852 124.498C146.15 123.938 146.556 123.509 147.07 123.21C147.583 122.902 148.162 122.748 148.806 122.748C149.328 122.748 149.786 122.846 150.178 123.042C150.57 123.229 150.887 123.49 151.13 123.826V120.2H152.642ZM149.058 128.81C149.683 128.81 150.187 128.591 150.57 128.152C150.952 127.713 151.144 127.144 151.144 126.444C151.144 125.725 150.952 125.147 150.57 124.708C150.187 124.26 149.683 124.036 149.058 124.036C148.432 124.036 147.928 124.26 147.546 124.708C147.163 125.147 146.972 125.716 146.972 126.416C146.972 127.125 147.163 127.704 147.546 128.152C147.928 128.591 148.432 128.81 149.058 128.81ZM155.183 127.634C155.211 128.007 155.384 128.315 155.701 128.558C156.028 128.791 156.448 128.908 156.961 128.908C157.419 128.908 157.787 128.824 158.067 128.656C158.357 128.479 158.501 128.245 158.501 127.956C158.501 127.713 158.436 127.531 158.305 127.41C158.175 127.289 157.997 127.205 157.773 127.158C157.559 127.102 157.223 127.046 156.765 126.99C156.14 126.915 155.622 126.817 155.211 126.696C154.81 126.565 154.483 126.365 154.231 126.094C153.989 125.814 153.867 125.441 153.867 124.974C153.867 124.535 153.989 124.148 154.231 123.812C154.483 123.467 154.824 123.201 155.253 123.014C155.692 122.827 156.187 122.734 156.737 122.734C157.643 122.734 158.375 122.935 158.935 123.336C159.505 123.737 159.813 124.302 159.859 125.03H158.389C158.352 124.703 158.189 124.437 157.899 124.232C157.61 124.017 157.246 123.91 156.807 123.91C156.369 123.91 156.014 123.994 155.743 124.162C155.473 124.33 155.337 124.559 155.337 124.848C155.337 125.063 155.403 125.226 155.533 125.338C155.673 125.441 155.846 125.515 156.051 125.562C156.257 125.599 156.588 125.646 157.045 125.702C157.661 125.767 158.179 125.87 158.599 126.01C159.019 126.141 159.355 126.355 159.607 126.654C159.859 126.943 159.985 127.34 159.985 127.844C159.985 128.292 159.855 128.689 159.593 129.034C159.332 129.37 158.973 129.631 158.515 129.818C158.058 129.995 157.545 130.084 156.975 130.084C156.014 130.084 155.235 129.869 154.637 129.44C154.049 129.001 153.746 128.399 153.727 127.634H155.183Z" fill="#9E9E9E"/>
</svg>
