<svg width="221" height="221" viewBox="0 0 221 221" fill="none" xmlns="http://www.w3.org/2000/svg">
<g clip-path="url(#clip0_53_1193)">
<rect width="221" height="221" rx="11.05" fill="black"/>
<line x1="16.2297" y1="207.533" x2="195.792" y2="207.533" stroke="#E6E6E6" stroke-opacity="0.1" stroke-width="0.690625"/>
<line x1="16.2297" y1="183.854" x2="195.792" y2="183.854" stroke="#E6E6E6" stroke-opacity="0.1" stroke-width="0.690625"/>
<line x1="16.2297" y1="160.176" x2="195.792" y2="160.176" stroke="#E6E6E6" stroke-opacity="0.1" stroke-width="0.690625"/>
<line x1="16.2297" y1="136.497" x2="195.792" y2="136.497" stroke="#E6E6E6" stroke-opacity="0.1" stroke-width="0.690625"/>
<line x1="16.2297" y1="112.818" x2="195.792" y2="112.818" stroke="#E6E6E6" stroke-opacity="0.1" stroke-width="0.690625"/>
<line x1="16.2297" y1="89.14" x2="195.792" y2="89.14" stroke="#E6E6E6" stroke-opacity="0.1" stroke-width="0.690625"/>
<line x1="16.2297" y1="65.4613" x2="195.792" y2="65.4613" stroke="#E6E6E6" stroke-opacity="0.1" stroke-width="0.690625"/>
<line x1="16.2297" y1="41.7826" x2="195.792" y2="41.7826" stroke="#E6E6E6" stroke-opacity="0.1" stroke-width="0.690625"/>
<circle cx="16.2298" cy="134.475" r="2.7625" fill="#8EA26A"/>
<path d="M17.4296 148.221C16.9169 148.221 16.4603 148.133 16.0597 147.957C15.6614 147.778 15.3467 147.533 15.1155 147.222C14.8866 146.908 14.7687 146.547 14.7618 146.137H16.2588C16.268 146.309 16.3241 146.46 16.4271 146.59C16.5324 146.718 16.672 146.818 16.846 146.889C17.0199 146.96 17.2156 146.995 17.4331 146.995C17.6597 146.995 17.86 146.955 18.0339 146.875C18.2079 146.795 18.3441 146.684 18.4425 146.542C18.541 146.4 18.5902 146.237 18.5902 146.051C18.5902 145.863 18.5375 145.698 18.4322 145.553C18.3292 145.407 18.1804 145.292 17.9859 145.21C17.7936 145.128 17.5647 145.086 17.2992 145.086H16.6434V143.994H17.2992C17.5235 143.994 17.7215 143.956 17.8932 143.878C18.0671 143.8 18.2022 143.692 18.2983 143.555C18.3945 143.415 18.4425 143.253 18.4425 143.067C18.4425 142.891 18.4002 142.737 18.3155 142.604C18.2331 142.469 18.1163 142.364 17.9653 142.288C17.8165 142.213 17.6425 142.175 17.4434 142.175C17.2419 142.175 17.0577 142.211 16.8906 142.285C16.7235 142.356 16.5896 142.457 16.4889 142.59C16.3882 142.723 16.3344 142.879 16.3275 143.057H14.9026C14.9095 142.652 15.025 142.295 15.2494 141.986C15.4737 141.677 15.7758 141.435 16.1558 141.261C16.5381 141.085 16.9696 140.997 17.4502 140.997C17.9355 140.997 18.3601 141.085 18.7241 141.261C19.088 141.438 19.3707 141.676 19.5722 141.976C19.7759 142.273 19.8766 142.607 19.8743 142.978C19.8766 143.372 19.7541 143.7 19.5069 143.964C19.262 144.227 18.9427 144.394 18.549 144.465V144.52C19.0663 144.586 19.46 144.766 19.7301 145.059C20.0025 145.35 20.1375 145.714 20.1352 146.151C20.1375 146.551 20.0219 146.907 19.7885 147.219C19.5573 147.53 19.238 147.775 18.8305 147.953C18.4231 148.132 17.9561 148.221 17.4296 148.221ZM24.2632 141.093V148.125H22.7765V142.504H22.7353L21.125 143.514V142.195L22.8657 141.093H24.2632Z" fill="#323232"/>
<path d="M11.3456 151.838V157.866H10.6157V152.604H10.5804L9.1089 153.581V152.839L10.6157 151.838H11.3456ZM15.0803 157.948C14.833 157.944 14.5858 157.897 14.3386 157.807C14.0914 157.717 13.8658 157.565 13.6617 157.351C13.4577 157.135 13.2939 156.844 13.1703 156.477C13.0466 156.108 12.9848 155.645 12.9848 155.088C12.9848 154.554 13.0349 154.081 13.1349 153.669C13.235 153.255 13.3802 152.907 13.5705 152.624C13.7608 152.34 13.9904 152.124 14.2592 151.977C14.5299 151.83 14.835 151.756 15.1744 151.756C15.5119 151.756 15.8121 151.824 16.075 151.959C16.3399 152.093 16.5557 152.279 16.7225 152.518C16.8892 152.758 16.9971 153.033 17.0462 153.345H16.3281C16.2614 153.075 16.1319 152.85 15.9396 152.671C15.7473 152.493 15.4923 152.404 15.1744 152.404C14.7075 152.404 14.3396 152.607 14.0708 153.013C13.804 153.419 13.6696 153.989 13.6676 154.723H13.7147C13.8246 154.556 13.9551 154.414 14.1061 154.296C14.2592 154.176 14.4279 154.084 14.6123 154.019C14.7968 153.954 14.992 153.922 15.198 153.922C15.5433 153.922 15.8592 154.008 16.1456 154.181C16.4321 154.352 16.6616 154.588 16.8343 154.89C17.0069 155.191 17.0933 155.535 17.0933 155.923C17.0933 156.296 17.0099 156.638 16.8431 156.948C16.6764 157.256 16.4419 157.501 16.1397 157.683C15.8396 157.864 15.4864 157.952 15.0803 157.948ZM15.0803 157.301C15.3275 157.301 15.5492 157.239 15.7454 157.115C15.9435 156.992 16.0995 156.826 16.2133 156.618C16.3291 156.41 16.387 156.178 16.387 155.923C16.387 155.674 16.331 155.448 16.2192 155.244C16.1093 155.037 15.9573 154.874 15.763 154.752C15.5708 154.63 15.351 154.57 15.1038 154.57C14.9174 154.57 14.7438 154.607 14.5829 154.681C14.422 154.754 14.2807 154.854 14.1591 154.982C14.0394 155.109 13.9452 155.255 13.8766 155.42C13.8079 155.583 13.7736 155.755 13.7736 155.935C13.7736 156.174 13.8295 156.398 13.9413 156.606C14.0551 156.814 14.2101 156.982 14.4063 157.109C14.6045 157.237 14.8291 157.301 15.0803 157.301ZM18.4853 157.913C18.3401 157.913 18.2155 157.861 18.1116 157.757C18.0076 157.653 17.9556 157.528 17.9556 157.383C17.9556 157.238 18.0076 157.113 18.1116 157.009C18.2155 156.905 18.3401 156.853 18.4853 156.853C18.6305 156.853 18.7551 156.905 18.8591 157.009C18.9631 157.113 19.0151 157.238 19.0151 157.383C19.0151 157.479 18.9905 157.567 18.9415 157.648C18.8944 157.728 18.8306 157.793 18.7502 157.842C18.6717 157.889 18.5834 157.913 18.4853 157.913ZM20.3166 157.866L23.0124 152.533V152.486H19.9046V151.838H23.7658V152.521L21.0818 157.866H20.3166ZM27.9353 156.736V156.418C27.9353 156.198 27.9804 155.997 28.0707 155.814C28.1629 155.63 28.2963 155.483 28.4709 155.373C28.6475 155.261 28.8614 155.205 29.1125 155.205C29.3676 155.205 29.5814 155.261 29.7541 155.373C29.9267 155.483 30.0572 155.63 30.1455 155.814C30.2338 155.997 30.2779 156.198 30.2779 156.418V156.736C30.2779 156.955 30.2328 157.157 30.1426 157.342C30.0543 157.524 29.9228 157.671 29.7482 157.783C29.5755 157.893 29.3636 157.948 29.1125 157.948C28.8574 157.948 28.6426 157.893 28.468 157.783C28.2934 157.671 28.1609 157.524 28.0707 157.342C27.9804 157.157 27.9353 156.955 27.9353 156.736ZM28.5357 156.418V156.736C28.5357 156.918 28.5788 157.082 28.6652 157.227C28.7515 157.37 28.9006 157.442 29.1125 157.442C29.3185 157.442 29.4637 157.37 29.5481 157.227C29.6344 157.082 29.6776 156.918 29.6776 156.736V156.418C29.6776 156.235 29.6364 156.072 29.554 155.929C29.4716 155.784 29.3244 155.711 29.1125 155.711C28.9065 155.711 28.7584 155.784 28.6681 155.929C28.5798 156.072 28.5357 156.235 28.5357 156.418ZM24.9334 153.286V152.969C24.9334 152.749 24.9786 152.548 25.0688 152.365C25.161 152.181 25.2945 152.034 25.4691 151.924C25.6456 151.812 25.8595 151.756 26.1106 151.756C26.3657 151.756 26.5796 151.812 26.7522 151.924C26.9249 152.034 27.0553 152.181 27.1436 152.365C27.2319 152.548 27.2761 152.749 27.2761 152.969V153.286C27.2761 153.506 27.2309 153.708 27.1407 153.893C27.0524 154.075 26.921 154.222 26.7463 154.334C26.5737 154.444 26.3618 154.499 26.1106 154.499C25.8556 154.499 25.6407 154.444 25.4661 154.334C25.2915 154.222 25.1591 154.075 25.0688 153.893C24.9786 153.708 24.9334 153.506 24.9334 153.286ZM25.5338 152.969V153.286C25.5338 153.469 25.577 153.633 25.6633 153.778C25.7496 153.921 25.8987 153.993 26.1106 153.993C26.3167 153.993 26.4618 153.921 26.5462 153.778C26.6325 153.633 26.6757 153.469 26.6757 153.286V152.969C26.6757 152.786 26.6345 152.623 26.5521 152.48C26.4697 152.335 26.3225 152.262 26.1106 152.262C25.9046 152.262 25.7565 152.335 25.6662 152.48C25.578 152.623 25.5338 152.786 25.5338 152.969ZM25.1571 157.866L29.3009 151.838H29.9719L25.8281 157.866H25.1571Z" fill="#767676"/>
<circle cx="76.0838" cy="120.267" r="2.7625" fill="#8EA26A"/>
<path d="M73.191 102.739C72.6783 102.739 72.2216 102.651 71.821 102.474C71.4228 102.296 71.108 102.051 70.8768 101.74C70.6479 101.426 70.53 101.064 70.5232 100.655H72.0202C72.0293 100.826 72.0854 100.977 72.1884 101.108C72.2937 101.236 72.4334 101.336 72.6073 101.407C72.7813 101.477 72.977 101.513 73.1944 101.513C73.4211 101.513 73.6213 101.473 73.7953 101.393C73.9693 101.313 74.1055 101.202 74.2039 101.06C74.3023 100.918 74.3515 100.754 74.3515 100.569C74.3515 100.381 74.2989 100.215 74.1936 100.071C74.0906 99.9244 73.9418 99.8099 73.7472 99.7275C73.555 99.6451 73.3261 99.6039 73.0605 99.6039H72.4047V98.5121H73.0605C73.2849 98.5121 73.4829 98.4732 73.6545 98.3953C73.8285 98.3175 73.9636 98.2099 74.0597 98.0726C74.1558 97.933 74.2039 97.7704 74.2039 97.585C74.2039 97.4088 74.1615 97.2543 74.0769 97.1215C73.9945 96.9865 73.8777 96.8812 73.7266 96.8056C73.5779 96.7301 73.4039 96.6923 73.2047 96.6923C73.0033 96.6923 72.819 96.7289 72.652 96.8022C72.4849 96.8731 72.3509 96.975 72.2502 97.1078C72.1495 97.2405 72.0957 97.3962 72.0889 97.5747H70.664C70.6708 97.1696 70.7864 96.8125 71.0107 96.5035C71.2351 96.1945 71.5372 95.953 71.9172 95.779C72.2994 95.6027 72.7309 95.5146 73.2116 95.5146C73.6969 95.5146 74.1215 95.6027 74.4854 95.779C74.8494 95.9553 75.1321 96.1933 75.3335 96.4932C75.5372 96.7907 75.638 97.1249 75.6357 97.4958C75.638 97.8895 75.5155 98.2179 75.2683 98.4812C75.0234 98.7444 74.704 98.9115 74.3103 98.9825V99.0374C74.8276 99.1038 75.2214 99.2835 75.4915 99.5765C75.7639 99.8672 75.8989 100.231 75.8966 100.668C75.8989 101.069 75.7833 101.425 75.5498 101.736C75.3186 102.047 74.9993 102.292 74.5919 102.471C74.1844 102.649 73.7175 102.739 73.191 102.739ZM77.2434 102.643L80.1585 96.8743V96.8262H76.7627V95.6108H81.6967V96.8434L78.7782 102.643H77.2434Z" fill="#323232"/>
<path d="M67.3544 106.615V112.643H66.6246V107.38H66.5892L65.1177 108.358V107.616L66.6246 106.615H67.3544ZM71.0067 106.533C71.2539 106.535 71.5011 106.582 71.7483 106.674C71.9955 106.766 72.2212 106.919 72.4252 107.133C72.6293 107.345 72.7931 107.635 72.9167 108.001C73.0403 108.368 73.1021 108.828 73.1021 109.382C73.1021 109.917 73.0511 110.393 72.9491 110.809C72.849 111.223 72.7038 111.572 72.5135 111.857C72.3252 112.141 72.0956 112.357 71.8248 112.504C71.5561 112.651 71.2519 112.725 70.9125 112.725C70.575 112.725 70.2739 112.658 70.009 112.525C69.7461 112.389 69.5303 112.202 69.3615 111.963C69.1948 111.721 69.0878 111.442 69.0408 111.124H69.7589C69.8236 111.401 69.9521 111.629 70.1444 111.81C70.3386 111.988 70.5947 112.078 70.9125 112.078C71.3775 112.078 71.7444 111.874 72.0132 111.468C72.284 111.062 72.4193 110.488 72.4193 109.747H72.3722C72.2624 109.911 72.1319 110.054 71.9808 110.173C71.8297 110.293 71.662 110.385 71.4776 110.45C71.2931 110.515 71.0969 110.547 70.889 110.547C70.5437 110.547 70.2268 110.462 69.9384 110.291C69.6519 110.118 69.4224 109.882 69.2497 109.582C69.079 109.28 68.9937 108.934 68.9937 108.546C68.9937 108.177 69.0761 107.84 69.2409 107.534C69.4077 107.225 69.6411 106.98 69.9413 106.798C70.2435 106.615 70.5986 106.527 71.0067 106.533ZM71.0067 107.18C70.7595 107.18 70.5368 107.242 70.3386 107.366C70.1424 107.487 69.9864 107.652 69.8707 107.86C69.7569 108.066 69.7 108.295 69.7 108.546C69.7 108.797 69.7549 109.026 69.8648 109.232C69.9766 109.436 70.1287 109.599 70.321 109.72C70.5152 109.84 70.7359 109.9 70.9831 109.9C71.1695 109.9 71.3432 109.863 71.5041 109.791C71.6649 109.716 71.8052 109.615 71.9249 109.488C72.0466 109.358 72.1417 109.212 72.2104 109.049C72.279 108.884 72.3134 108.713 72.3134 108.534C72.3134 108.299 72.2565 108.078 72.1427 107.872C72.0309 107.666 71.8759 107.499 71.6777 107.372C71.4815 107.244 71.2578 107.18 71.0067 107.18ZM74.567 112.69C74.4218 112.69 74.2972 112.638 74.1932 112.534C74.0892 112.43 74.0372 112.305 74.0372 112.16C74.0372 112.015 74.0892 111.89 74.1932 111.786C74.2972 111.682 74.4218 111.63 74.567 111.63C74.7122 111.63 74.8368 111.682 74.9408 111.786C75.0447 111.89 75.0967 112.015 75.0967 112.16C75.0967 112.256 75.0722 112.344 75.0232 112.425C74.9761 112.505 74.9123 112.57 74.8319 112.619C74.7534 112.666 74.6651 112.69 74.567 112.69ZM78.1935 106.533C78.4407 106.535 78.6879 106.582 78.9351 106.674C79.1824 106.766 79.408 106.919 79.612 107.133C79.8161 107.345 79.9799 107.635 80.1035 108.001C80.2271 108.368 80.2889 108.828 80.2889 109.382C80.2889 109.917 80.2379 110.393 80.1359 110.809C80.0358 111.223 79.8906 111.572 79.7003 111.857C79.512 112.141 79.2824 112.357 79.0117 112.504C78.7429 112.651 78.4388 112.725 78.0993 112.725C77.7619 112.725 77.4607 112.658 77.1958 112.525C76.9329 112.389 76.7171 112.202 76.5484 111.963C76.3816 111.721 76.2747 111.442 76.2276 111.124H76.9457C77.0104 111.401 77.1389 111.629 77.3312 111.81C77.5254 111.988 77.7815 112.078 78.0993 112.078C78.5643 112.078 78.9312 111.874 79.2 111.468C79.4708 111.062 79.6061 110.488 79.6061 109.747H79.5591C79.4492 109.911 79.3187 110.054 79.1676 110.173C79.0166 110.293 78.8488 110.385 78.6644 110.45C78.48 110.515 78.2838 110.547 78.0758 110.547C77.7305 110.547 77.4136 110.462 77.1252 110.291C76.8387 110.118 76.6092 109.882 76.4365 109.582C76.2658 109.28 76.1805 108.934 76.1805 108.546C76.1805 108.177 76.2629 107.84 76.4277 107.534C76.5945 107.225 76.828 106.98 77.1281 106.798C77.4303 106.615 77.7854 106.527 78.1935 106.533ZM78.1935 107.18C77.9463 107.18 77.7236 107.242 77.5254 107.366C77.3292 107.487 77.1733 107.652 77.0575 107.86C76.9437 108.066 76.8868 108.295 76.8868 108.546C76.8868 108.797 76.9417 109.026 77.0516 109.232C77.1635 109.436 77.3155 109.599 77.5078 109.72C77.702 109.84 77.9228 109.9 78.17 109.9C78.3564 109.9 78.53 109.863 78.6909 109.791C78.8518 109.716 78.992 109.615 79.1117 109.488C79.2334 109.358 79.3285 109.212 79.3972 109.049C79.4659 108.884 79.5002 108.713 79.5002 108.534C79.5002 108.299 79.4433 108.078 79.3295 107.872C79.2177 107.666 79.0627 107.499 78.8645 107.372C78.6683 107.244 78.4446 107.18 78.1935 107.18ZM84.5188 111.512V111.195C84.5188 110.975 84.5639 110.774 84.6541 110.591C84.7464 110.407 84.8798 110.26 85.0544 110.15C85.231 110.038 85.4448 109.982 85.696 109.982C85.951 109.982 86.1649 110.038 86.3375 110.15C86.5102 110.26 86.6407 110.407 86.729 110.591C86.8172 110.774 86.8614 110.975 86.8614 111.195V111.512C86.8614 111.732 86.8163 111.934 86.726 112.119C86.6377 112.301 86.5063 112.448 86.3317 112.56C86.159 112.67 85.9471 112.725 85.696 112.725C85.4409 112.725 85.2261 112.67 85.0514 112.56C84.8768 112.448 84.7444 112.301 84.6541 112.119C84.5639 111.934 84.5188 111.732 84.5188 111.512ZM85.1191 111.195V111.512C85.1191 111.695 85.1623 111.859 85.2486 112.004C85.335 112.147 85.4841 112.219 85.696 112.219C85.902 112.219 86.0472 112.147 86.1315 112.004C86.2179 111.859 86.261 111.695 86.261 111.512V111.195C86.261 111.012 86.2198 110.849 86.1374 110.706C86.055 110.561 85.9079 110.488 85.696 110.488C85.49 110.488 85.3418 110.561 85.2516 110.706C85.1633 110.849 85.1191 111.012 85.1191 111.195ZM81.5169 108.063V107.745C81.5169 107.526 81.562 107.325 81.6523 107.142C81.7445 106.958 81.8779 106.811 82.0525 106.701C82.2291 106.589 82.443 106.533 82.6941 106.533C82.9492 106.533 83.163 106.589 83.3357 106.701C83.5083 106.811 83.6388 106.958 83.7271 107.142C83.8154 107.325 83.8595 107.526 83.8595 107.745V108.063C83.8595 108.283 83.8144 108.485 83.7241 108.67C83.6359 108.852 83.5044 108.999 83.3298 109.111C83.1571 109.221 82.9452 109.276 82.6941 109.276C82.439 109.276 82.2242 109.221 82.0496 109.111C81.875 108.999 81.7425 108.852 81.6523 108.67C81.562 108.485 81.5169 108.283 81.5169 108.063ZM82.1173 107.745V108.063C82.1173 108.246 82.1604 108.41 82.2468 108.555C82.3331 108.698 82.4822 108.77 82.6941 108.77C82.9001 108.77 83.0453 108.698 83.1297 108.555C83.216 108.41 83.2592 108.246 83.2592 108.063V107.745C83.2592 107.563 83.218 107.4 83.1355 107.257C83.0531 107.112 82.906 107.039 82.6941 107.039C82.4881 107.039 82.34 107.112 82.2497 107.257C82.1614 107.4 82.1173 107.563 82.1173 107.745ZM81.7406 112.643L85.8843 106.615H86.5553L82.4116 112.643H81.7406Z" fill="#767676"/>
<circle cx="135.938" cy="80.014" r="2.7625" fill="#8EA26A"/>
<path d="M132.684 62.4848C132.199 62.4848 131.766 62.3955 131.386 62.217C131.008 62.0385 130.708 61.7924 130.486 61.4788C130.264 61.1652 130.149 60.8058 130.14 60.4007H131.582C131.598 60.6731 131.712 60.894 131.925 61.0633C132.138 61.2327 132.391 61.3174 132.684 61.3174C132.917 61.3174 133.123 61.2659 133.302 61.1629C133.483 61.0576 133.624 60.9123 133.724 60.7269C133.827 60.5392 133.879 60.324 133.879 60.0814C133.879 59.8341 133.826 59.6167 133.721 59.429C133.618 59.2413 133.475 59.0948 133.292 58.9895C133.108 58.8842 132.899 58.8304 132.663 58.8281C132.457 58.8281 132.257 58.8705 132.062 58.9552C131.87 59.0399 131.72 59.1555 131.613 59.302L130.291 59.065L130.624 55.3569H134.923V56.5723H131.85L131.668 58.3337H131.709C131.832 58.1597 132.019 58.0155 132.268 57.9011C132.518 57.7866 132.797 57.7294 133.106 57.7294C133.53 57.7294 133.907 57.829 134.239 58.0281C134.571 58.2273 134.833 58.5008 135.026 58.8487C135.218 59.1944 135.313 59.5927 135.311 60.0436C135.313 60.5174 135.203 60.9386 134.981 61.3071C134.761 61.6734 134.453 61.9618 134.057 62.1724C133.664 62.3807 133.206 62.4848 132.684 62.4848ZM136.241 61.1526V59.9818L139.177 55.3569H140.186V56.9775H139.589L137.738 59.9062V59.9612H141.91V61.1526H136.241ZM139.616 62.3887V60.7955L139.644 60.2771V55.3569H141.038V62.3887H139.616Z" fill="#323232"/>
<path d="M124.58 72.3887V71.8589L126.569 69.6811C126.803 69.426 126.995 69.2043 127.146 69.016C127.297 68.8257 127.409 68.6471 127.482 68.4804C127.556 68.3116 127.593 68.135 127.593 67.9506C127.593 67.7387 127.542 67.5553 127.44 67.4003C127.34 67.2453 127.203 67.1256 127.028 67.0412C126.854 66.9569 126.658 66.9147 126.44 66.9147C126.208 66.9147 126.006 66.9628 125.834 67.0589C125.663 67.1531 125.53 67.2855 125.436 67.4562C125.344 67.6269 125.298 67.827 125.298 68.0566H124.603C124.603 67.7034 124.685 67.3934 124.848 67.1266C125.01 66.8597 125.232 66.6518 125.513 66.5027C125.795 66.3535 126.112 66.279 126.463 66.279C126.817 66.279 127.129 66.3535 127.402 66.5027C127.675 66.6518 127.889 66.8529 128.044 67.106C128.199 67.3591 128.276 67.6406 128.276 67.9506C128.276 68.1723 128.236 68.3891 128.156 68.601C128.077 68.811 127.94 69.0454 127.744 69.3044C127.549 69.5614 127.28 69.8753 126.934 70.2462L125.58 71.6941V71.7412H128.382V72.3887H124.58ZM131.516 66.279C131.764 66.281 132.011 66.328 132.258 66.4203C132.505 66.5125 132.731 66.6655 132.935 66.8794C133.139 67.0913 133.303 67.3807 133.427 67.7476C133.55 68.1144 133.612 68.5745 133.612 69.1278C133.612 69.6634 133.561 70.1392 133.459 70.5552C133.359 70.9692 133.214 71.3184 133.023 71.6029C132.835 71.8874 132.605 72.1032 132.335 72.2504C132.066 72.3975 131.762 72.4711 131.422 72.4711C131.085 72.4711 130.784 72.4044 130.519 72.271C130.256 72.1356 130.04 71.9482 129.871 71.7088C129.705 71.4675 129.598 71.1879 129.551 70.8701H130.269C130.333 71.1467 130.462 71.3753 130.654 71.5558C130.848 71.7343 131.104 71.8236 131.422 71.8236C131.887 71.8236 132.254 71.6205 132.523 71.2144C132.794 70.8083 132.929 70.2344 132.929 69.4928H132.882C132.772 69.6576 132.642 69.7998 132.491 69.9195C132.34 70.0392 132.172 70.1314 131.987 70.1961C131.803 70.2609 131.607 70.2933 131.399 70.2933C131.053 70.2933 130.737 70.2079 130.448 70.0372C130.162 69.8646 129.932 69.6281 129.76 69.3279C129.589 69.0258 129.503 68.6805 129.503 68.292C129.503 67.9232 129.586 67.5857 129.751 67.2796C129.917 66.9716 130.151 66.7263 130.451 66.5439C130.753 66.3614 131.108 66.2731 131.516 66.279ZM131.516 66.9265C131.269 66.9265 131.047 66.9883 130.848 67.1119C130.652 67.2335 130.496 67.3983 130.38 67.6063C130.267 67.8123 130.21 68.0409 130.21 68.292C130.21 68.5431 130.265 68.7717 130.375 68.9777C130.486 69.1818 130.638 69.3446 130.831 69.4663C131.025 69.586 131.246 69.6458 131.493 69.6458C131.679 69.6458 131.853 69.6095 132.014 69.5369C132.175 69.4623 132.315 69.3613 132.435 69.2338C132.556 69.1043 132.652 68.9581 132.72 68.7953C132.789 68.6305 132.823 68.4588 132.823 68.2802C132.823 68.0448 132.766 67.8241 132.652 67.6181C132.541 67.4121 132.386 67.2453 132.187 67.1178C131.991 66.9902 131.768 66.9265 131.516 66.9265ZM135.077 72.4358C134.932 72.4358 134.807 72.3838 134.703 72.2798C134.599 72.1758 134.547 72.0512 134.547 71.906C134.547 71.7608 134.599 71.6362 134.703 71.5323C134.807 71.4283 134.932 71.3763 135.077 71.3763C135.222 71.3763 135.347 71.4283 135.451 71.5323C135.555 71.6362 135.607 71.7608 135.607 71.906C135.607 72.0022 135.582 72.0904 135.533 72.1709C135.486 72.2513 135.422 72.3161 135.342 72.3651C135.263 72.4122 135.175 72.4358 135.077 72.4358ZM138.597 72.4711C138.153 72.4711 137.776 72.3504 137.464 72.1091C137.152 71.8658 136.913 71.5136 136.748 71.0525C136.584 70.5895 136.501 70.0303 136.501 69.375C136.501 68.7236 136.584 68.1674 136.748 67.7064C136.915 67.2433 137.155 66.8902 137.467 66.6469C137.78 66.4016 138.157 66.279 138.597 66.279C139.036 66.279 139.412 66.4016 139.724 66.6469C140.038 66.8902 140.277 67.2433 140.442 67.7064C140.609 68.1674 140.692 68.7236 140.692 69.375C140.692 70.0303 140.61 70.5895 140.445 71.0525C140.28 71.5136 140.042 71.8658 139.73 72.1091C139.418 72.3504 139.04 72.4711 138.597 72.4711ZM138.597 71.8236C139.036 71.8236 139.378 71.6117 139.621 71.1879C139.864 70.7641 139.986 70.1598 139.986 69.375C139.986 68.8531 139.93 68.4087 139.818 68.0419C139.708 67.675 139.549 67.3954 139.341 67.2031C139.135 67.0108 138.887 66.9147 138.597 66.9147C138.161 66.9147 137.821 67.1295 137.575 67.5592C137.33 67.9869 137.208 68.5922 137.208 69.375C137.208 69.8969 137.262 70.3403 137.372 70.7053C137.482 71.0702 137.64 71.3478 137.846 71.5381C138.054 71.7285 138.304 71.8236 138.597 71.8236ZM144.883 71.2586V70.9407C144.883 70.721 144.928 70.5199 145.018 70.3374C145.11 70.153 145.244 70.0058 145.419 69.8959C145.595 69.7841 145.809 69.7282 146.06 69.7282C146.315 69.7282 146.529 69.7841 146.702 69.8959C146.874 70.0058 147.005 70.153 147.093 70.3374C147.181 70.5199 147.226 70.721 147.226 70.9407V71.2586C147.226 71.4783 147.18 71.6804 147.09 71.8648C147.002 72.0473 146.87 72.1944 146.696 72.3063C146.523 72.4161 146.311 72.4711 146.06 72.4711C145.805 72.4711 145.59 72.4161 145.416 72.3063C145.241 72.1944 145.109 72.0473 145.018 71.8648C144.928 71.6804 144.883 71.4783 144.883 71.2586ZM145.483 70.9407V71.2586C145.483 71.441 145.526 71.6049 145.613 71.75C145.699 71.8933 145.848 71.9649 146.06 71.9649C146.266 71.9649 146.411 71.8933 146.496 71.75C146.582 71.6049 146.625 71.441 146.625 71.2586V70.9407C146.625 70.7582 146.584 70.5954 146.502 70.4522C146.419 70.307 146.272 70.2344 146.06 70.2344C145.854 70.2344 145.706 70.307 145.616 70.4522C145.527 70.5954 145.483 70.7582 145.483 70.9407ZM141.881 67.8094V67.4915C141.881 67.2718 141.926 67.0707 142.016 66.8882C142.109 66.7038 142.242 66.5566 142.417 66.4467C142.593 66.3349 142.807 66.279 143.058 66.279C143.313 66.279 143.527 66.3349 143.7 66.4467C143.872 66.5566 144.003 66.7038 144.091 66.8882C144.18 67.0707 144.224 67.2718 144.224 67.4915V67.8094C144.224 68.0291 144.179 68.2312 144.088 68.4156C144 68.5981 143.869 68.7452 143.694 68.8571C143.521 68.9669 143.309 69.0219 143.058 69.0219C142.803 69.0219 142.588 68.9669 142.414 68.8571C142.239 68.7452 142.107 68.5981 142.016 68.4156C141.926 68.2312 141.881 68.0291 141.881 67.8094ZM142.481 67.4915V67.8094C142.481 67.9918 142.525 68.1557 142.611 68.3008C142.697 68.4441 142.846 68.5157 143.058 68.5157C143.264 68.5157 143.409 68.4441 143.494 68.3008C143.58 68.1557 143.623 67.9918 143.623 67.8094V67.4915C143.623 67.309 143.582 67.1462 143.5 67.003C143.417 66.8578 143.27 66.7852 143.058 66.7852C142.852 66.7852 142.704 66.8578 142.614 67.003C142.526 67.1462 142.481 67.309 142.481 67.4915ZM142.105 72.3887L146.248 66.3614H146.919L142.776 72.3887H142.105Z" fill="#767676"/>
<circle cx="195.792" cy="56.3353" r="2.7625" fill="#8EA26A"/>
<path d="M199.499 40.4838C199.138 40.4815 198.789 40.4209 198.452 40.3019C198.118 40.1828 197.818 39.9894 197.553 39.7216C197.287 39.4538 197.076 39.099 196.921 38.6572C196.767 38.2154 196.691 37.6729 196.691 37.0297C196.693 36.4392 196.761 35.9115 196.893 35.4469C197.028 34.9799 197.221 34.5839 197.47 34.2589C197.722 33.9338 198.023 33.6866 198.373 33.5173C198.723 33.3456 199.116 33.2597 199.551 33.2597C200.02 33.2597 200.434 33.3513 200.794 33.5344C201.153 33.7152 201.442 33.9613 201.659 34.2726C201.879 34.5839 202.011 34.933 202.057 35.3198H200.591C200.534 35.0749 200.414 34.8826 200.231 34.743C200.048 34.6034 199.821 34.5336 199.551 34.5336C199.093 34.5336 198.745 34.7327 198.507 35.131C198.271 35.5293 198.151 36.0706 198.147 36.755H198.195C198.3 36.5467 198.442 36.3693 198.62 36.2229C198.801 36.0741 199.006 35.9608 199.235 35.8829C199.466 35.8028 199.71 35.7628 199.966 35.7628C200.383 35.7628 200.754 35.8612 201.079 36.058C201.404 36.2526 201.66 36.5204 201.848 36.8615C202.036 37.2025 202.129 37.5928 202.129 38.0323C202.129 38.5084 202.018 38.9319 201.796 39.3027C201.577 39.6735 201.269 39.9642 200.873 40.1748C200.479 40.3831 200.021 40.4861 199.499 40.4838ZM199.492 39.3164C199.721 39.3164 199.926 39.2615 200.107 39.1516C200.288 39.0418 200.43 38.893 200.533 38.7053C200.636 38.5176 200.687 38.307 200.687 38.0735C200.687 37.84 200.636 37.6306 200.533 37.4452C200.432 37.2598 200.292 37.1121 200.114 37.0023C199.935 36.8924 199.732 36.8375 199.503 36.8375C199.331 36.8375 199.172 36.8695 199.025 36.9336C198.881 36.9977 198.754 37.087 198.644 37.2014C198.537 37.3159 198.452 37.4486 198.39 37.5997C198.328 37.7485 198.298 37.9076 198.298 38.0769C198.298 38.3036 198.349 38.5107 198.452 38.6984C198.557 38.8861 198.699 39.036 198.878 39.1482C199.059 39.2604 199.264 39.3164 199.492 39.3164ZM203.077 39.1516V37.9808L206.013 33.3559H207.022V34.9765H206.425L204.574 37.9053V37.9602H208.746V39.1516H203.077ZM206.452 40.3877V38.7945L206.48 38.2761V33.3559H207.874V40.3877H206.452Z" fill="#323232"/>
<path d="M193.037 50.4701C192.648 50.4701 192.302 50.4034 191.998 50.27C191.696 50.1366 191.456 49.9511 191.277 49.7137C191.1 49.4744 191.004 49.1968 190.989 48.8809H191.73C191.746 49.0751 191.813 49.2429 191.93 49.3841C192.048 49.5234 192.202 49.6313 192.392 49.7079C192.583 49.7844 192.794 49.8226 193.025 49.8226C193.284 49.8226 193.514 49.7775 193.714 49.6873C193.914 49.597 194.071 49.4714 194.185 49.3106C194.299 49.1497 194.355 48.9633 194.355 48.7514C194.355 48.5297 194.3 48.3345 194.191 48.1657C194.081 47.995 193.92 47.8616 193.708 47.7655C193.496 47.6693 193.237 47.6213 192.931 47.6213H192.448V46.9738H192.931C193.17 46.9738 193.38 46.9306 193.561 46.8443C193.743 46.758 193.886 46.6363 193.988 46.4794C194.092 46.3224 194.144 46.138 194.144 45.9261C194.144 45.7221 194.098 45.5445 194.008 45.3934C193.918 45.2423 193.79 45.1246 193.626 45.0403C193.463 44.9559 193.27 44.9137 193.049 44.9137C192.841 44.9137 192.645 44.952 192.46 45.0285C192.278 45.103 192.129 45.2119 192.013 45.3552C191.897 45.4964 191.834 45.6671 191.824 45.8672H191.118C191.13 45.5514 191.225 45.2747 191.404 45.0373C191.582 44.7979 191.816 44.6116 192.104 44.4781C192.394 44.3447 192.713 44.278 193.061 44.278C193.433 44.278 193.753 44.3536 194.02 44.5046C194.287 44.6537 194.492 44.8509 194.635 45.0962C194.778 45.3414 194.85 45.6063 194.85 45.8908C194.85 46.2302 194.761 46.5196 194.582 46.759C194.405 46.9983 194.165 47.1641 193.861 47.2563V47.3034C194.242 47.3662 194.539 47.5281 194.753 47.789C194.967 48.048 195.074 48.3688 195.074 48.7514C195.074 49.079 194.984 49.3733 194.806 49.6343C194.629 49.8933 194.388 50.0973 194.082 50.2464C193.776 50.3955 193.427 50.4701 193.037 50.4701ZM196.136 49.1516V48.5513L198.785 44.3604H199.22V45.2904H198.926L196.925 48.4571V48.5042H200.492V49.1516H196.136ZM198.973 50.3877V48.9692V48.6896V44.3604H199.668V50.3877H198.973ZM201.829 50.4348C201.684 50.4348 201.559 50.3828 201.455 50.2788C201.351 50.1748 201.299 50.0502 201.299 49.905C201.299 49.7599 201.351 49.6353 201.455 49.5313C201.559 49.4273 201.684 49.3753 201.829 49.3753C201.974 49.3753 202.099 49.4273 202.203 49.5313C202.307 49.6353 202.359 49.7599 202.359 49.905C202.359 50.0012 202.334 50.0895 202.285 50.1699C202.238 50.2504 202.175 50.3151 202.094 50.3642C202.016 50.4112 201.927 50.4348 201.829 50.4348ZM203.452 49.1516V48.5513L206.101 44.3604H206.537V45.2904H206.242L204.241 48.4571V48.5042H207.808V49.1516H203.452ZM206.289 50.3877V48.9692V48.6896V44.3604H206.984V50.3877H206.289ZM211.983 49.2576V48.9397C211.983 48.72 212.028 48.5189 212.119 48.3364C212.211 48.152 212.344 48.0048 212.519 47.895C212.696 47.7831 212.909 47.7272 213.161 47.7272C213.416 47.7272 213.629 47.7831 213.802 47.895C213.975 48.0048 214.105 48.152 214.193 48.3364C214.282 48.5189 214.326 48.72 214.326 48.9397V49.2576C214.326 49.4773 214.281 49.6794 214.191 49.8638C214.102 50.0463 213.971 50.1935 213.796 50.3053C213.624 50.4152 213.412 50.4701 213.161 50.4701C212.905 50.4701 212.691 50.4152 212.516 50.3053C212.341 50.1935 212.209 50.0463 212.119 49.8638C212.028 49.6794 211.983 49.4773 211.983 49.2576ZM212.584 48.9397V49.2576C212.584 49.44 212.627 49.6039 212.713 49.7491C212.799 49.8923 212.949 49.9639 213.161 49.9639C213.367 49.9639 213.512 49.8923 213.596 49.7491C213.682 49.6039 213.726 49.44 213.726 49.2576V48.9397C213.726 48.7573 213.684 48.5944 213.602 48.4512C213.52 48.306 213.372 48.2334 213.161 48.2334C212.954 48.2334 212.806 48.306 212.716 48.4512C212.628 48.5944 212.584 48.7573 212.584 48.9397ZM208.981 45.8084V45.4905C208.981 45.2708 209.027 45.0697 209.117 44.8872C209.209 44.7028 209.342 44.5556 209.517 44.4458C209.694 44.3339 209.907 44.278 210.159 44.278C210.414 44.278 210.628 44.3339 210.8 44.4458C210.973 44.5556 211.103 44.7028 211.192 44.8872C211.28 45.0697 211.324 45.2708 211.324 45.4905V45.8084C211.324 46.0281 211.279 46.2302 211.189 46.4146C211.1 46.5971 210.969 46.7443 210.794 46.8561C210.622 46.966 210.41 47.0209 210.159 47.0209C209.904 47.0209 209.689 46.966 209.514 46.8561C209.339 46.7443 209.207 46.5971 209.117 46.4146C209.027 46.2302 208.981 46.0281 208.981 45.8084ZM209.582 45.4905V45.8084C209.582 45.9908 209.625 46.1547 209.711 46.2999C209.798 46.4431 209.947 46.5147 210.159 46.5147C210.365 46.5147 210.51 46.4431 210.594 46.2999C210.681 46.1547 210.724 45.9908 210.724 45.8084V45.4905C210.724 45.3081 210.682 45.1452 210.6 45.002C210.518 44.8568 210.371 44.7842 210.159 44.7842C209.953 44.7842 209.804 44.8568 209.714 45.002C209.626 45.1452 209.582 45.3081 209.582 45.4905ZM209.205 50.3877L213.349 44.3604H214.02L209.876 50.3877H209.205Z" fill="#767676"/>
<path d="M16.2297 134.475L76.0839 120.268L135.938 80.014L195.792 56.3354" stroke="#8EA26A" stroke-width="1.38125" stroke-linecap="round"/>
</g>
<defs>
<clipPath id="clip0_53_1193">
<rect width="221" height="221" rx="11.05" fill="white"/>
</clipPath>
</defs>
</svg>
